Trackball.ufo
<glyph name="exclam" format="2">
  <advance width="273"/>
  <unicode hex="0021"/>
  <outline>
    <contour>
      <point x="260" y="676" type="line"/>
      <point x="260" y="488" type="line"/>
      <point x="248" y="488"/>
      <point x="228" y="487"/>
      <point x="213" y="481"/>
      <point x="204" y="465"/>
      <point x="204" y="450" type="qcurve" smooth="yes"/>
      <point x="204" y="244" type="line"/>
      <point x="16" y="244" type="line"/>
      <point x="16" y="507" type="line" smooth="yes"/>
      <point x="16" y="542"/>
      <point x="43" y="603"/>
      <point x="89" y="649"/>
      <point x="150" y="676"/>
      <point x="185" y="676" type="qcurve" smooth="yes"/>
    </contour>
    <contour>
      <point x="204" y="188" type="line"/>
      <point x="204" y="0" type="line"/>
      <point x="16" y="0" type="line"/>
      <point x="16" y="188" type="line"/>
    </contour>
  </outline>
</glyph>
<glyph name="quotedbl" format="2">
  <advance width="430"/>
  <unicode hex="0022"/>
  <outline>
    <contour>
      <point x="204" y="676" type="line"/>
      <point x="170" y="396" type="line"/>
      <point x="55" y="396" type="line"/>
      <point x="26" y="676" type="line"/>
    </contour>
    <contour>
      <point x="410" y="676" type="line"/>
      <point x="376" y="396" type="line"/>
      <point x="261" y="396" type="line"/>
      <point x="232" y="676" type="line"/>
    </contour>
  </outline>
</glyph>
<glyph name="numbersign" format="2">
  <advance width="603"/>
  <unicode hex="0023"/>
  <outline>
    <contour>
      <point x="241" y="252" type="line"/>
      <point x="351" y="252" type="line"/>
      <point x="370" y="345" type="line"/>
      <point x="261" y="345" type="line"/>
    </contour>
    <contour>
      <point x="514" y="141" type="line"/>
      <point x="437" y="141" type="line"/>
      <point x="407" y="0" type="line"/>
      <point x="297" y="0" type="line"/>
      <point x="327" y="141" type="line"/>
      <point x="217" y="141" type="line"/>
      <point x="187" y="0" type="line"/>
      <point x="76" y="0" type="line"/>
      <point x="106" y="141" type="line"/>
      <point x="27" y="141" type="line"/>
      <point x="50" y="252" type="line"/>
      <point x="130" y="252" type="line"/>
      <point x="150" y="345" type="line"/>
      <point x="69" y="345" type="line"/>
      <point x="93" y="456" type="line"/>
      <point x="174" y="456" type="line"/>
      <point x="202" y="590" type="line"/>
      <point x="313" y="590" type="line"/>
      <point x="284" y="456" type="line"/>
      <point x="394" y="456" type="line"/>
      <point x="423" y="590" type="line"/>
      <point x="533" y="590" type="line"/>
      <point x="504" y="456" type="line"/>
      <point x="581" y="456" type="line"/>
      <point x="557" y="345" type="line"/>
      <point x="481" y="345" type="line"/>
      <point x="461" y="252" type="line"/>
      <point x="538" y="252" type="line"/>
    </contour>
  </outline>
</glyph>
<glyph name="percent" format="2">
  <advance width="879"/>
  <unicode hex="0025"/>
  <outline>
    <contour>
      <point x="634" y="671" type="line"/>
      <point x="403" y="1" type="line"/>
      <point x="245" y="1" type="line"/>
      <point x="476" y="671" type="line"/>
    </contour>
    <contour>
      <point x="212" y="408" type="line"/>
      <point x="212" y="609" type="line"/>
      <point x="155" y="609" type="line"/>
      <point x="155" y="408" type="line"/>
    </contour>
    <contour>
      <point x="340" y="329" type="line"/>
      <point x="33" y="329" type="line"/>
      <point x="33" y="676" type="line"/>
      <point x="340" y="676" type="line"/>
    </contour>
    <contour>
      <point x="734" y="86" type="line"/>
      <point x="734" y="274" type="line"/>
      <point x="670" y="274" type="line"/>
      <point x="670" y="86" type="line"/>
    </contour>
    <contour>
      <point x="856" y="1" type="line"/>
      <point x="549" y="1" type="line"/>
      <point x="549" y="348" type="line"/>
      <point x="856" y="348" type="line"/>
    </contour>
  </outline>
</glyph>
<glyph name="ampersand" format="2">
  <advance width="676"/>
  <unicode hex="0026"/>
  <outline>
    <contour>
      <point x="544" y="499" type="line"/>
      <point x="304" y="499" type="line" smooth="yes"/>
      <point x="289" y="499"/>
      <point x="275" y="491"/>
      <point x="270" y="477"/>
      <point x="269" y="459"/>
      <point x="269" y="454" type="qcurve"/>
      <point x="270" y="400" type="line"/>
      <point x="438" y="400" type="line"/>
      <point x="438" y="447" type="line"/>
      <point x="601" y="447" type="line"/>
      <point x="601" y="400" type="line"/>
      <point x="667" y="400" type="line"/>
      <point x="667" y="259" type="line"/>
      <point x="601" y="259" type="line"/>
      <point x="601" y="6" type="line"/>
      <point x="322" y="6" type="line" smooth="yes"/>
      <point x="273" y="6"/>
      <point x="186" y="42"/>
      <point x="121" y="105"/>
      <point x="83" y="189"/>
      <point x="83" y="235" type="qcurve"/>
      <point x="83" y="236" type="line"/>
      <point x="20" y="236" type="line"/>
      <point x="20" y="400" type="line"/>
      <point x="84" y="400" type="line"/>
      <point x="83" y="517" type="line"/>
      <point x="83" y="550"/>
      <point x="109" y="608"/>
      <point x="154" y="650"/>
      <point x="214" y="676"/>
      <point x="249" y="676" type="qcurve" smooth="yes"/>
      <point x="544" y="676" type="line"/>
    </contour>
    <contour>
      <point x="327" y="182" type="qcurve"/>
      <point x="438" y="182" type="line"/>
      <point x="438" y="259" type="line"/>
      <point x="267" y="259" type="line"/>
      <point x="267" y="235" type="line" smooth="yes"/>
      <point x="267" y="210"/>
      <point x="288" y="188"/>
      <point x="314" y="182"/>
      <point x="322" y="182" type="qcurve" smooth="yes"/>
      <point x="325" y="182"/>
    </contour>
  </outline>
</glyph>
<glyph name="quotesingle" format="2">
  <advance width="233"/>
  <unicode hex="0027"/>
  <outline>
    <contour>
      <point x="204" y="676" type="line"/>
      <point x="170" y="388" type="line"/>
      <point x="55" y="388" type="line"/>
      <point x="26" y="676" type="line"/>
    </contour>
  </outline>
</glyph>
<glyph name="parenleft" format="2">
  <advance width="251"/>
  <unicode hex="0028"/>
  <outline>
    <contour>
      <point x="216" y="-10" type="line" smooth="yes"/>
      <point x="216" y="-25"/>
      <point x="225" y="-41"/>
      <point x="240" y="-48"/>
      <point x="250" y="-48" type="qcurve" smooth="yes"/>
      <point x="272" y="-48" type="line"/>
      <point x="272" y="-236" type="line"/>
      <point x="197" y="-236" type="line" smooth="yes"/>
      <point x="162" y="-236"/>
      <point x="101" y="-209"/>
      <point x="55" y="-163"/>
      <point x="28" y="-102"/>
      <point x="28" y="-67" type="qcurve" smooth="yes"/>
      <point x="28" y="732" type="line" smooth="yes"/>
      <point x="28" y="767"/>
      <point x="55" y="828"/>
      <point x="101" y="874"/>
      <point x="162" y="901"/>
      <point x="197" y="901" type="qcurve" smooth="yes"/>
      <point x="272" y="901" type="line"/>
      <point x="272" y="713" type="line"/>
      <point x="250" y="713" type="line" smooth="yes"/>
      <point x="240" y="713"/>
      <point x="225" y="706"/>
      <point x="216" y="690"/>
      <point x="216" y="675" type="qcurve" smooth="yes"/>
    </contour>
  </outline>
</glyph>
<glyph name="parenright" format="2">
  <advance width="251"/>
  <unicode hex="0029"/>
  <outline>
    <contour>
      <point x="84" y="675" type="line" smooth="yes"/>
      <point x="84" y="690"/>
      <point x="75" y="706"/>
      <point x="60" y="713"/>
      <point x="50" y="713" type="qcurve" smooth="yes"/>
      <point x="28" y="713" type="line"/>
      <point x="28" y="901" type="line"/>
      <point x="103" y="901" type="line" smooth="yes"/>
      <point x="138" y="901"/>
      <point x="199" y="874"/>
      <point x="245" y="828"/>
      <point x="272" y="767"/>
      <point x="272" y="732" type="qcurve" smooth="yes"/>
      <point x="272" y="-67" type="line" smooth="yes"/>
      <point x="272" y="-102"/>
      <point x="245" y="-163"/>
      <point x="199" y="-209"/>
      <point x="138" y="-236"/>
      <point x="103" y="-236" type="qcurve" smooth="yes"/>
      <point x="28" y="-236" type="line"/>
      <point x="28" y="-48" type="line"/>
      <point x="50" y="-48" type="line" smooth="yes"/>
      <point x="60" y="-48"/>
      <point x="75" y="-41"/>
      <point x="84" y="-25"/>
      <point x="84" y="-10" type="qcurve" smooth="yes"/>
    </contour>
  </outline>
</glyph>
<glyph name="asterisk" format="2">
  <advance width="330"/>
  <unicode hex="002A"/>
  <outline>
    <contour>
      <point x="297" y="488" type="line"/>
      <point x="248" y="426" type="line"/>
      <point x="193" y="486" type="line"/>
      <point x="201" y="390" type="line"/>
      <point x="123" y="390" type="line"/>
      <point x="134" y="478" type="line"/>
      <point x="79" y="421" type="line"/>
      <point x="27" y="481" type="line"/>
      <point x="97" y="527" type="line"/>
      <point x="25" y="577" type="line"/>
      <point x="77" y="639" type="line"/>
      <point x="131" y="579" type="line"/>
      <point x="121" y="675" type="line"/>
      <point x="201" y="675" type="line"/>
      <point x="191" y="587" type="line"/>
      <point x="245" y="644" type="line"/>
      <point x="297" y="584" type="line"/>
      <point x="224" y="535" type="line"/>
    </contour>
  </outline>
</glyph>
<glyph name="plus" format="2">
  <advance width="458"/>
  <unicode hex="002B"/>
  <outline>
    <contour>
      <point x="153" y="556" type="line"/>
      <point x="307" y="556" type="line"/>
      <point x="307" y="421" type="line"/>
      <point x="443" y="421" type="line"/>
      <point x="443" y="267" type="line"/>
      <point x="307" y="267" type="line"/>
      <point x="307" y="128" type="line"/>
      <point x="153" y="128" type="line"/>
      <point x="153" y="267" type="line"/>
      <point x="15" y="267" type="line"/>
      <point x="15" y="421" type="line"/>
      <point x="153" y="421" type="line"/>
    </contour>
  </outline>
</glyph>
<glyph name="hyphen" format="2">
  <advance width="456"/>
  <unicode hex="002D"/>
  <outline>
    <contour>
      <point x="443" y="421" type="line"/>
      <point x="443" y="267" type="line"/>
      <point x="15" y="267" type="line"/>
      <point x="15" y="421" type="line"/>
    </contour>
  </outline>
</glyph>
<glyph name="period" format="2">
  <advance width="222"/>
  <unicode hex="002E"/>
  <outline>
    <contour>
      <point x="17" y="94" type="qcurve" smooth="yes"/>
      <point x="17" y="113"/>
      <point x="32" y="148"/>
      <point x="57" y="173"/>
      <point x="91" y="188"/>
      <point x="111" y="188" type="qcurve" smooth="yes"/>
      <point x="150" y="188"/>
      <point x="205" y="133"/>
      <point x="205" y="94" type="qcurve" smooth="yes"/>
      <point x="205" y="74"/>
      <point x="190" y="40"/>
      <point x="165" y="15"/>
      <point x="130" y="0"/>
      <point x="111" y="0" type="qcurve" smooth="yes"/>
      <point x="72" y="0"/>
      <point x="17" y="55"/>
    </contour>
  </outline>
</glyph>
<glyph name="zero" format="2">
  <advance width="562"/>
  <unicode hex="0030"/>
  <outline>
    <contour>
      <point x="206" y="187" type="line"/>
      <point x="356" y="187" type="line"/>
      <point x="356" y="488" type="line"/>
      <point x="206" y="488" type="line"/>
    </contour>
    <contour>
      <point x="375" y="732" type="line"/>
      <point x="375" y="675" type="line"/>
      <point x="544" y="675" type="line"/>
      <point x="544" y="0" type="line"/>
      <point x="18" y="0" type="line"/>
      <point x="18" y="675" type="line"/>
      <point x="187" y="675" type="line"/>
      <point x="187" y="732" type="line"/>
    </contour>
  </outline>
</glyph>
<glyph name="one" format="2">
  <advance width="278"/>
  <unicode hex="0031"/>
  <outline>
    <contour>
      <point x="91" y="676" type="line" smooth="yes"/>
      <point x="126" y="676"/>
      <point x="187" y="649"/>
      <point x="233" y="603"/>
      <point x="260" y="542"/>
      <point x="260" y="507" type="qcurve" smooth="yes"/>
      <point x="260" y="0" type="line"/>
      <point x="72" y="0" type="line"/>
      <point x="72" y="451" type="line" smooth="yes"/>
      <point x="72" y="466"/>
      <point x="63" y="481"/>
      <point x="48" y="487"/>
      <point x="27" y="488"/>
      <point x="16" y="488" type="qcurve"/>
      <point x="16" y="676" type="line"/>
    </contour>
  </outline>
</glyph>
<glyph name="two" format="2">
  <advance width="564"/>
  <unicode hex="0032"/>
  <outline>
    <contour>
      <point x="545" y="244" type="line"/>
      <point x="207" y="244" type="line"/>
      <point x="207" y="187" type="line"/>
      <point x="545" y="187" type="line"/>
      <point x="545" y="0" type="line"/>
      <point x="19" y="0" type="line"/>
      <point x="19" y="412" type="line"/>
      <point x="357" y="412" type="line"/>
      <point x="357" y="431" type="line" smooth="yes"/>
      <point x="357" y="460"/>
      <point x="331" y="488"/>
      <point x="301" y="488" type="qcurve" smooth="yes"/>
      <point x="19" y="488" type="line"/>
      <point x="19" y="675" type="line"/>
      <point x="301" y="675" type="line" smooth="yes"/>
      <point x="351" y="675"/>
      <point x="440" y="636"/>
      <point x="506" y="570"/>
      <point x="545" y="481"/>
      <point x="545" y="431" type="qcurve" smooth="yes"/>
    </contour>
  </outline>
</glyph>
<glyph name="three" format="2">
  <advance width="614"/>
  <unicode hex="0033"/>
  <outline>
    <contour>
      <point x="542" y="488" type="line"/>
      <point x="542" y="431" type="line"/>
      <point x="599" y="431" type="line"/>
      <point x="599" y="244" type="line"/>
      <point x="542" y="244" type="line"/>
      <point x="542" y="194"/>
      <point x="503" y="105"/>
      <point x="437" y="39"/>
      <point x="348" y="0"/>
      <point x="298" y="0" type="qcurve" smooth="yes"/>
      <point x="17" y="0" type="line"/>
      <point x="17" y="187" type="line"/>
      <point x="298" y="187" type="line" smooth="yes"/>
      <point x="327" y="187"/>
      <point x="355" y="213"/>
      <point x="355" y="240" type="qcurve"/>
      <point x="355" y="242"/>
      <point x="355" y="244" type="qcurve"/>
      <point x="129" y="244" type="line"/>
      <point x="129" y="413" type="line"/>
      <point x="355" y="413" type="line"/>
      <point x="355" y="488" type="line"/>
      <point x="17" y="488" type="line"/>
      <point x="17" y="676" type="line"/>
      <point x="599" y="676" type="line"/>
      <point x="599" y="488" type="line"/>
    </contour>
  </outline>
</glyph>
<glyph name="four" format="2">
  <advance width="613"/>
  <unicode hex="0034"/>
  <outline>
    <contour>
      <point x="599" y="413" type="line"/>
      <point x="599" y="244" type="line"/>
      <point x="543" y="244" type="line"/>
      <point x="543" y="200"/>
      <point x="533" y="113"/>
      <point x="499" y="43"/>
      <point x="431" y="0"/>
      <point x="374" y="0" type="qcurve" smooth="yes"/>
      <point x="308" y="0" type="line"/>
      <point x="308" y="187" type="line"/>
      <point x="326" y="187"/>
      <point x="345" y="193"/>
      <point x="354" y="206"/>
      <point x="355" y="228"/>
      <point x="355" y="244" type="qcurve"/>
      <point x="328" y="244"/>
      <point x="257" y="239"/>
      <point x="182" y="239"/>
      <point x="109" y="248"/>
      <point x="52" y="276"/>
      <point x="17" y="328"/>
      <point x="17" y="370" type="qcurve" smooth="yes"/>
      <point x="17" y="676" type="line"/>
      <point x="205" y="676" type="line"/>
      <point x="205" y="413" type="line"/>
      <point x="355" y="413" type="line"/>
      <point x="355" y="676" type="line"/>
      <point x="543" y="676" type="line"/>
      <point x="543" y="413" type="line"/>
    </contour>
  </outline>
</glyph>
<glyph name="five" format="2">
  <advance width="615"/>
  <unicode hex="0035"/>
  <outline>
    <contour>
      <point x="598" y="244" type="line" smooth="yes"/>
      <point x="598" y="194"/>
      <point x="559" y="105"/>
      <point x="493" y="39"/>
      <point x="404" y="0"/>
      <point x="354" y="0" type="qcurve" smooth="yes"/>
      <point x="72" y="0" type="line"/>
      <point x="72" y="188" type="line"/>
      <point x="354" y="188" type="line" smooth="yes"/>
      <point x="375" y="188"/>
      <point x="397" y="199"/>
      <point x="408" y="218"/>
      <point x="410" y="246"/>
      <point x="410" y="263" type="qcurve"/>
      <point x="72" y="263" type="line"/>
      <point x="72" y="488" type="line"/>
      <point x="16" y="488" type="line"/>
      <point x="16" y="676" type="line"/>
      <point x="598" y="676" type="line"/>
      <point x="598" y="488" type="line"/>
      <point x="260" y="488" type="line"/>
      <point x="260" y="432" type="line"/>
      <point x="598" y="432" type="line"/>
    </contour>
  </outline>
</glyph>
<glyph name="six" format="2">
  <advance width="618"/>
  <unicode hex="0036"/>
  <outline>
    <contour>
      <point x="598" y="0" type="line"/>
      <point x="317" y="0" type="line" smooth="yes"/>
      <point x="260" y="0"/>
      <point x="170" y="42"/>
      <point x="106" y="113"/>
      <point x="72" y="209"/>
      <point x="72" y="263" type="qcurve"/>
      <point x="16" y="263" type="line"/>
      <point x="16" y="432" type="line"/>
      <point x="72" y="432" type="line"/>
      <point x="72" y="676" type="line"/>
      <point x="598" y="676" type="line"/>
      <point x="598" y="488" type="line"/>
      <point x="260" y="488" type="line"/>
      <point x="260" y="432" type="line"/>
      <point x="411" y="432" type="line" smooth="yes"/>
      <point x="467" y="432"/>
      <point x="540" y="411"/>
      <point x="582" y="363"/>
      <point x="598" y="288"/>
      <point x="598" y="234" type="qcurve" smooth="yes"/>
    </contour>
    <contour>
      <point x="410" y="188" type="qcurve"/>
      <point x="410" y="263" type="line"/>
      <point x="260" y="263" type="line"/>
      <point x="260" y="237" type="line" smooth="yes"/>
      <point x="260" y="219"/>
      <point x="279" y="199"/>
      <point x="308" y="189"/>
      <point x="340" y="186"/>
      <point x="353" y="186" type="qcurve" smooth="yes"/>
      <point x="367" y="186"/>
      <point x="396" y="188"/>
    </contour>
  </outline>
</glyph>
<glyph name="seven" format="2">
  <advance width="587"/>
  <unicode hex="0037"/>
  <outline>
    <contour>
      <point x="482" y="676" type="line" smooth="yes"/>
      <point x="521" y="676"/>
      <point x="576" y="622"/>
      <point x="576" y="583" type="qcurve" smooth="yes"/>
      <point x="576" y="558"/>
      <point x="563" y="535" type="qcurve" smooth="yes"/>
      <point x="251" y="0" type="line"/>
      <point x="18" y="0" type="line"/>
      <point x="303" y="488" type="line"/>
      <point x="206" y="488" type="line"/>
      <point x="206" y="451" type="line"/>
      <point x="18" y="451" type="line"/>
      <point x="18" y="676" type="line"/>
    </contour>
  </outline>
</glyph>
<glyph name="eight" format="2">
  <advance width="561"/>
  <unicode hex="0038"/>
  <outline>
    <contour>
      <point x="205" y="488" type="line"/>
      <point x="205" y="432" type="line"/>
      <point x="355" y="432" type="line"/>
      <point x="355" y="488" type="line"/>
    </contour>
    <contour>
      <point x="205" y="244" type="line"/>
      <point x="205" y="187" type="line"/>
      <point x="355" y="187" type="line"/>
      <point x="355" y="244" type="line"/>
    </contour>
    <contour>
      <point x="374" y="732" type="line"/>
      <point x="374" y="676" type="line"/>
      <point x="543" y="676" type="line"/>
      <point x="543" y="0" type="line"/>
      <point x="17" y="0" type="line"/>
      <point x="17" y="676" type="line"/>
      <point x="186" y="676" type="line"/>
      <point x="186" y="732" type="line"/>
    </contour>
  </outline>
</glyph>
<glyph name="nine" format="2">
  <advance width="614"/>
  <unicode hex="0039"/>
  <outline>
    <contour>
      <point x="598" y="413" type="line"/>
      <point x="598" y="244" type="line"/>
      <point x="542" y="244" type="line"/>
      <point x="542" y="0" type="line"/>
      <point x="354" y="0" type="line"/>
      <point x="354" y="244" type="line"/>
      <point x="327" y="244"/>
      <point x="256" y="239"/>
      <point x="181" y="239"/>
      <point x="108" y="248"/>
      <point x="51" y="276"/>
      <point x="16" y="328"/>
      <point x="16" y="370" type="qcurve" smooth="yes"/>
      <point x="16" y="676" type="line"/>
      <point x="542" y="676" type="line"/>
      <point x="542" y="413" type="line"/>
    </contour>
    <contour>
      <point x="354" y="413" type="line"/>
      <point x="354" y="488" type="line"/>
      <point x="204" y="488" type="line"/>
      <point x="204" y="413" type="line"/>
    </contour>
  </outline>
</glyph>
<glyph name="colon" format="2">
  <advance width="222"/>
  <unicode hex="003A"/>
  <outline>
    <contour>
      <point x="16" y="582" type="qcurve" smooth="yes"/>
      <point x="16" y="601"/>
      <point x="31" y="636"/>
      <point x="56" y="661"/>
      <point x="90" y="676"/>
      <point x="110" y="676" type="qcurve" smooth="yes"/>
      <point x="129" y="676"/>
      <point x="164" y="661"/>
      <point x="189" y="636"/>
      <point x="204" y="601"/>
      <point x="204" y="582" type="qcurve" smooth="yes"/>
      <point x="204" y="562"/>
      <point x="189" y="528"/>
      <point x="164" y="503"/>
      <point x="129" y="488"/>
      <point x="110" y="488" type="qcurve" smooth="yes"/>
      <point x="90" y="488"/>
      <point x="56" y="503"/>
      <point x="31" y="528"/>
      <point x="16" y="562"/>
    </contour>
    <contour>
      <point x="17" y="94" type="qcurve" smooth="yes"/>
      <point x="17" y="113"/>
      <point x="32" y="148"/>
      <point x="57" y="173"/>
      <point x="91" y="188"/>
      <point x="111" y="188" type="qcurve" smooth="yes"/>
      <point x="150" y="188"/>
      <point x="205" y="133"/>
      <point x="205" y="94" type="qcurve" smooth="yes"/>
      <point x="205" y="74"/>
      <point x="190" y="40"/>
      <point x="165" y="15"/>
      <point x="130" y="0"/>
      <point x="111" y="0" type="qcurve" smooth="yes"/>
      <point x="72" y="0"/>
      <point x="17" y="55"/>
    </contour>
  </outline>
</glyph>
<glyph name="semicolon" format="2">
  <advance width="264"/>
  <unicode hex="003B"/>
  <outline>
    <contour>
      <point x="48" y="582" type="qcurve" smooth="yes"/>
      <point x="48" y="601"/>
      <point x="63" y="636"/>
      <point x="88" y="661"/>
      <point x="122" y="676"/>
      <point x="142" y="676" type="qcurve" smooth="yes"/>
      <point x="161" y="676"/>
      <point x="196" y="661"/>
      <point x="221" y="636"/>
      <point x="236" y="601"/>
      <point x="236" y="582" type="qcurve" smooth="yes"/>
      <point x="236" y="562"/>
      <point x="221" y="528"/>
      <point x="196" y="503"/>
      <point x="161" y="488"/>
      <point x="142" y="488" type="qcurve" smooth="yes"/>
      <point x="122" y="488"/>
      <point x="88" y="503"/>
      <point x="63" y="528"/>
      <point x="48" y="562"/>
    </contour>
    <contour>
      <point x="247" y="188" type="line"/>
      <point x="142" y="-101" type="line"/>
      <point x="4" y="-102" type="line"/>
      <point x="49" y="188" type="line"/>
    </contour>
  </outline>
</glyph>
<glyph name="less" format="2">
  <advance width="367"/>
  <unicode hex="003C"/>
  <outline>
    <contour>
      <point x="21" y="381" type="line"/>
      <point x="363" y="618" type="line"/>
      <point x="363" y="460" type="line"/>
      <point x="186" y="339" type="line"/>
      <point x="230" y="309"/>
      <point x="319" y="246"/>
      <point x="363" y="217" type="qcurve"/>
      <point x="363" y="59" type="line"/>
      <point x="21" y="295" type="line"/>
    </contour>
  </outline>
</glyph>
<glyph name="equal" format="2">
  <advance width="466"/>
  <unicode hex="003D"/>
  <outline>
    <contour>
      <point x="444" y="293" type="line"/>
      <point x="444" y="166" type="line"/>
      <point x="27" y="166" type="line"/>
      <point x="27" y="293" type="line"/>
    </contour>
    <contour>
      <point x="444" y="523" type="line"/>
      <point x="444" y="395" type="line"/>
      <point x="27" y="395" type="line"/>
      <point x="27" y="523" type="line"/>
    </contour>
  </outline>
</glyph>
<glyph name="greater" format="2">
  <advance width="367"/>
  <unicode hex="003E"/>
  <outline>
    <contour>
      <point x="363" y="295" type="line"/>
      <point x="21" y="59" type="line"/>
      <point x="21" y="217" type="line"/>
      <point x="198" y="339" type="line"/>
      <point x="154" y="368"/>
      <point x="65" y="431"/>
      <point x="21" y="460" type="qcurve"/>
      <point x="21" y="618" type="line"/>
      <point x="363" y="381" type="line"/>
    </contour>
  </outline>
</glyph>
<glyph name="question" format="2">
  <advance width="549"/>
  <unicode hex="003F"/>
  <outline>
    <contour>
      <point x="537" y="370" type="line" smooth="yes"/>
      <point x="537" y="344"/>
      <point x="517" y="298"/>
      <point x="483" y="264"/>
      <point x="438" y="244"/>
      <point x="412" y="244" type="qcurve" smooth="yes"/>
      <point x="199" y="244" type="line"/>
      <point x="199" y="413" type="line"/>
      <point x="350" y="413" type="line"/>
      <point x="350" y="488" type="line"/>
      <point x="12" y="488" type="line"/>
      <point x="12" y="676" type="line"/>
      <point x="537" y="676" type="line"/>
    </contour>
    <contour>
      <point x="387" y="188" type="line"/>
      <point x="387" y="0" type="line"/>
      <point x="199" y="0" type="line"/>
      <point x="199" y="188" type="line"/>
    </contour>
  </outline>
</glyph>
<glyph name="at" format="2">
  <advance width="629"/>
  <unicode hex="0040"/>
  <outline>
    <contour>
      <point x="430" y="624" type="line" smooth="yes"/>
      <point x="466" y="624"/>
      <point x="529" y="601"/>
      <point x="576" y="559"/>
      <point x="604" y="499"/>
      <point x="604" y="462" type="qcurve" smooth="yes"/>
      <point x="604" y="213" type="line" smooth="yes"/>
      <point x="604" y="181"/>
      <point x="557" y="134"/>
      <point x="524" y="134" type="qcurve" smooth="yes"/>
      <point x="267" y="134" type="line" smooth="yes"/>
      <point x="235" y="134"/>
      <point x="189" y="181"/>
      <point x="189" y="213" type="qcurve" smooth="yes"/>
      <point x="189" y="280" type="line" smooth="yes"/>
      <point x="189" y="312"/>
      <point x="235" y="359"/>
      <point x="267" y="359" type="qcurve" smooth="yes"/>
      <point x="352" y="359" type="line"/>
      <point x="352" y="392" type="line"/>
      <point x="189" y="392" type="line"/>
      <point x="189" y="490" type="line"/>
      <point x="372" y="490" type="line" smooth="yes"/>
      <point x="405" y="490"/>
      <point x="450" y="443"/>
      <point x="450" y="412" type="qcurve" smooth="yes"/>
      <point x="450" y="233" type="line"/>
      <point x="502" y="233" type="line"/>
      <point x="502" y="462" type="line" smooth="yes"/>
      <point x="502" y="495"/>
      <point x="459" y="524"/>
      <point x="430" y="524" type="qcurve" smooth="yes"/>
      <point x="201" y="524" type="line" smooth="yes"/>
      <point x="172" y="524"/>
      <point x="130" y="495"/>
      <point x="130" y="462" type="qcurve" smooth="yes"/>
      <point x="130" y="161" type="line" smooth="yes"/>
      <point x="130" y="130"/>
      <point x="172" y="101"/>
      <point x="201" y="101" type="qcurve" smooth="yes"/>
      <point x="430" y="101" type="line"/>
      <point x="430" y="0" type="line"/>
      <point x="201" y="0" type="line" smooth="yes"/>
      <point x="165" y="0"/>
      <point x="103" y="23"/>
      <point x="56" y="66"/>
      <point x="29" y="125"/>
      <point x="29" y="161" type="qcurve" smooth="yes"/>
      <point x="29" y="462" type="line" smooth="yes"/>
      <point x="29" y="499"/>
      <point x="56" y="559"/>
      <point x="103" y="601"/>
      <point x="165" y="624"/>
      <point x="201" y="624" type="qcurve" smooth="yes"/>
    </contour>
    <contour>
      <point x="352" y="259" type="line"/>
      <point x="288" y="259" type="line"/>
      <point x="288" y="233" type="line"/>
      <point x="352" y="233" type="line"/>
    </contour>
  </outline>
</glyph>
<glyph name="B" format="2">
  <advance width="627"/>
  <unicode hex="0042"/>
  <outline>
    <contour>
      <point x="605" y="169" type="line" smooth="yes"/>
      <point x="605" y="134"/>
      <point x="578" y="73"/>
      <point x="532" y="27"/>
      <point x="471" y="0"/>
      <point x="436" y="0" type="qcurve" smooth="yes"/>
      <point x="296" y="0" type="line"/>
      <point x="296" y="188" type="line"/>
      <point x="417" y="188" type="line"/>
      <point x="417" y="244" type="line"/>
      <point x="267" y="244" type="line"/>
      <point x="267" y="0" type="line"/>
      <point x="79" y="0" type="line"/>
      <point x="79" y="244" type="line"/>
      <point x="23" y="244" type="line"/>
      <point x="23" y="432" type="line"/>
      <point x="79" y="432" type="line"/>
      <point x="79" y="488" type="line"/>
      <point x="23" y="488" type="line"/>
      <point x="23" y="676" type="line"/>
      <point x="605" y="676" type="line"/>
    </contour>
    <contour>
      <point x="417" y="413" type="line"/>
      <point x="417" y="488" type="line"/>
      <point x="267" y="488" type="line"/>
      <point x="267" y="413" type="line"/>
    </contour>
  </outline>
</glyph>
<glyph name="O" format="2">
  <advance width="570"/>
  <unicode hex="004F"/>
  <outline>
    <contour>
      <point x="361" y="188" type="line"/>
      <point x="361" y="488" type="line"/>
      <point x="211" y="488" type="line"/>
      <point x="211" y="188" type="line"/>
    </contour>
    <contour>
      <point x="549" y="0" type="line"/>
      <point x="23" y="0" type="line"/>
      <point x="23" y="676" type="line"/>
      <point x="549" y="676" type="line"/>
    </contour>
  </outline>
</glyph>
<glyph name="R" format="2">
  <advance width="617"/>
  <unicode hex="0052"/>
  <outline>
    <contour>
      <point x="599" y="169" type="qcurve"/>
      <point x="599" y="0" type="line"/>
      <point x="540" y="0"/>
      <point x="434" y="31"/>
      <point x="350" y="92"/>
      <point x="293" y="183"/>
      <point x="283" y="244" type="qcurve"/>
      <point x="261" y="244" type="line"/>
      <point x="261" y="0" type="line"/>
      <point x="73" y="0" type="line"/>
      <point x="73" y="244" type="line"/>
      <point x="17" y="244" type="line"/>
      <point x="17" y="432" type="line"/>
      <point x="73" y="432" type="line"/>
      <point x="73" y="489" type="line"/>
      <point x="17" y="489" type="line"/>
      <point x="17" y="676" type="line"/>
      <point x="599" y="676" type="line"/>
      <point x="599" y="413" type="line" smooth="yes"/>
      <point x="599" y="382"/>
      <point x="577" y="326"/>
      <point x="539" y="281"/>
      <point x="487" y="251"/>
      <point x="456" y="247" type="qcurve"/>
      <point x="464" y="224"/>
      <point x="494" y="194"/>
      <point x="533" y="176"/>
      <point x="577" y="169"/>
    </contour>
    <contour>
      <point x="411" y="413" type="line"/>
      <point x="411" y="489" type="line"/>
      <point x="261" y="489" type="line"/>
      <point x="261" y="413" type="line"/>
    </contour>
  </outline>
</glyph>
<glyph name="V" format="2">
  <advance width="634"/>
  <unicode hex="0056"/>
  <outline>
    <contour>
      <point x="616" y="676" type="line"/>
      <point x="616" y="488" type="line"/>
      <point x="604" y="488"/>
      <point x="584" y="487"/>
      <point x="569" y="481"/>
      <point x="560" y="465"/>
      <point x="560" y="450" type="qcurve" smooth="yes"/>
      <point x="560" y="0" type="line"/>
      <point x="372" y="0" type="line"/>
      <point x="5" y="676" type="line"/>
      <point x="198" y="676" type="line"/>
      <point x="372" y="354" type="line"/>
      <point x="372" y="386"/>
      <point x="371" y="428"/>
      <point x="371" y="433" type="qcurve" smooth="yes"/>
      <point x="371" y="464"/>
      <point x="377" y="531"/>
      <point x="394" y="596"/>
      <point x="432" y="646"/>
      <point x="494" y="676"/>
      <point x="541" y="676" type="qcurve" smooth="yes"/>
    </contour>
  </outline>
</glyph>
<glyph name="X" format="2">
  <advance width="592"/>
  <unicode hex="0058"/>
  <outline>
    <contour>
      <point x="575" y="676" type="line"/>
      <point x="575" y="488" type="line"/>
      <point x="538" y="488"/>
      <point x="494" y="486"/>
      <point x="466" y="476"/>
      <point x="450" y="458"/>
      <point x="433" y="424"/>
      <point x="411" y="374"/>
      <point x="391" y="338" type="qcurve"/>
      <point x="575" y="0" type="line"/>
      <point x="387" y="0" type="line"/>
      <point x="297" y="167" type="line"/>
      <point x="278" y="132"/>
      <point x="246" y="71"/>
      <point x="205" y="26"/>
      <point x="149" y="0"/>
      <point x="106" y="0" type="qcurve" smooth="yes"/>
      <point x="20" y="0" type="line"/>
      <point x="20" y="188" type="line"/>
      <point x="57" y="188"/>
      <point x="102" y="189"/>
      <point x="129" y="197"/>
      <point x="145" y="215"/>
      <point x="161" y="249"/>
      <point x="183" y="300"/>
      <point x="204" y="338" type="qcurve"/>
      <point x="20" y="676" type="line"/>
      <point x="208" y="676" type="line"/>
      <point x="298" y="511" type="line"/>
      <point x="316" y="544"/>
      <point x="348" y="604"/>
      <point x="389" y="649"/>
      <point x="446" y="676"/>
      <point x="489" y="676" type="qcurve" smooth="yes"/>
    </contour>
  </outline>
</glyph>
<glyph name="bracketleft" format="2">
  <advance width="242"/>
  <unicode hex="005B"/>
  <outline>
    <contour>
      <point x="211" y="-28" type="line"/>
      <point x="343" y="-28" type="line"/>
      <point x="343" y="-216" type="line"/>
      <point x="23" y="-216" type="line"/>
      <point x="23" y="887" type="line"/>
      <point x="343" y="887" type="line"/>
      <point x="343" y="699" type="line"/>
      <point x="211" y="699" type="line"/>
    </contour>
  </outline>
</glyph>
<glyph name="backslash" format="2">
  <advance width="461"/>
  <unicode hex="005C"/>
  <outline>
    <contour>
      <point x="202" y="678" type="line"/>
      <point x="455" y="0" type="line"/>
      <point x="267" y="0" type="line"/>
      <point x="14" y="678" type="line"/>
    </contour>
  </outline>
</glyph>
<glyph name="bracketright" format="2">
  <advance width="242"/>
  <unicode hex="005D"/>
  <outline>
    <contour>
      <point x="26" y="699" type="line"/>
      <point x="-106" y="699" type="line"/>
      <point x="-106" y="887" type="line"/>
      <point x="214" y="887" type="line"/>
      <point x="214" y="-216" type="line"/>
      <point x="-106" y="-216" type="line"/>
      <point x="-106" y="-28" type="line"/>
      <point x="26" y="-28" type="line"/>
    </contour>
  </outline>
</glyph>
<glyph name="asciicircum" format="2">
  <advance width="560"/>
  <unicode hex="005E"/>
  <outline>
    <contour>
      <point x="318" y="676" type="line"/>
      <point x="539" y="356" type="line"/>
      <point x="408" y="356" type="line"/>
      <point x="280" y="542" type="line"/>
      <point x="153" y="356" type="line"/>
      <point x="22" y="356" type="line"/>
      <point x="244" y="676" type="line"/>
    </contour>
  </outline>
</glyph>
<glyph name="underscore" format="2">
  <advance width="696"/>
  <unicode hex="005F"/>
  <outline>
    <contour>
      <point x="21" y="-60" type="line"/>
      <point x="676" y="-60" type="line"/>
      <point x="676" y="-227" type="line"/>
      <point x="21" y="-227" type="line"/>
    </contour>
  </outline>
</glyph>
<glyph name="grave" format="2">
  <advance width="301"/>
  <unicode hex="0060"/>
  <outline>
    <contour>
      <point x="257" y="743" type="line"/>
      <point x="126" y="743" type="line"/>
      <point x="32" y="915" type="line"/>
      <point x="181" y="915" type="line"/>
    </contour>
  </outline>
</glyph>
<glyph name="a" format="2">
  <advance width="677"/>
  <unicode hex="0061"/>
  <outline>
    <contour>
      <point x="245" y="675" type="line"/>
      <point x="245" y="713" type="line"/>
      <point x="433" y="713" type="line"/>
      <point x="433" y="675" type="line"/>
      <point x="658" y="675" type="line"/>
      <point x="658" y="488" type="line"/>
      <point x="601" y="488" type="line"/>
      <point x="601" y="225" type="line" smooth="yes"/>
      <point x="601" y="210"/>
      <point x="610" y="194"/>
      <point x="626" y="187"/>
      <point x="636" y="187" type="qcurve"/>
      <point x="637" y="187" type="line"/>
      <point x="637" y="187"/>
      <point x="637" y="187" type="qcurve"/>
      <point x="638" y="187" type="line"/>
      <point x="639" y="187"/>
      <point x="640" y="187" type="qcurve"/>
      <point x="641" y="187" type="line"/>
      <point x="642" y="187"/>
      <point x="642" y="187" type="qcurve"/>
      <point x="643" y="187" type="line"/>
      <point x="643" y="187"/>
      <point x="644" y="187" type="qcurve"/>
      <point x="646" y="187" type="line"/>
      <point x="646" y="187"/>
      <point x="647" y="187" type="qcurve"/>
      <point x="648" y="187" type="line"/>
      <point x="648" y="187"/>
      <point x="649" y="187" type="qcurve"/>
      <point x="658" y="187" type="line"/>
      <point x="658" y="0" type="line"/>
      <point x="583" y="0" type="line" smooth="yes"/>
      <point x="525" y="0"/>
      <point x="458" y="44"/>
      <point x="423" y="113"/>
      <point x="414" y="200"/>
      <point x="414" y="244" type="qcurve"/>
      <point x="264" y="244" type="line"/>
      <point x="264" y="168" type="line" smooth="yes"/>
      <point x="264" y="133"/>
      <point x="237" y="72"/>
      <point x="191" y="26"/>
      <point x="129" y="0"/>
      <point x="95" y="0" type="qcurve" smooth="yes"/>
      <point x="19" y="0" type="line"/>
      <point x="19" y="187" type="line"/>
      <point x="20" y="187" type="line"/>
      <point x="20" y="187"/>
      <point x="20" y="187" type="qcurve"/>
      <point x="22" y="187" type="line"/>
      <point x="22" y="187"/>
      <point x="23" y="187" type="qcurve"/>
      <point x="25" y="187" type="line"/>
      <point x="26" y="187"/>
      <point x="26" y="187" type="qcurve"/>
      <point x="27" y="187" type="line"/>
      <point x="27" y="187"/>
      <point x="28" y="187" type="qcurve"/>
      <point x="30" y="187" type="line"/>
      <point x="31" y="187"/>
      <point x="31" y="187" type="qcurve"/>
      <point x="32" y="187" type="line"/>
      <point x="32" y="187"/>
      <point x="33" y="187" type="qcurve"/>
      <point x="41" y="187" type="line" smooth="yes"/>
      <point x="51" y="187"/>
      <point x="67" y="194"/>
      <point x="76" y="210"/>
      <point x="76" y="225" type="qcurve" smooth="yes"/>
      <point x="76" y="488" type="line"/>
      <point x="19" y="488" type="line"/>
      <point x="19" y="675" type="line"/>
    </contour>
    <contour>
      <point x="414" y="431" type="line"/>
      <point x="414" y="488" type="line"/>
      <point x="264" y="488" type="line"/>
      <point x="264" y="431" type="line"/>
    </contour>
  </outline>
</glyph>
<glyph name="f" format="2">
  <advance width="621"/>
  <unicode hex="0066"/>
  <outline>
    <contour>
      <point x="76" y="244" type="qcurve"/>
      <point x="19" y="244" type="line"/>
      <point x="19" y="432" type="line"/>
      <point x="76" y="432" type="line"/>
      <point x="76" y="488" type="line"/>
      <point x="19" y="488" type="line"/>
      <point x="19" y="676" type="line"/>
      <point x="601" y="676" type="line"/>
      <point x="601" y="488" type="line"/>
      <point x="263" y="488" type="line"/>
      <point x="263" y="413" type="line"/>
      <point x="488" y="413" type="line"/>
      <point x="488" y="244" type="line"/>
      <point x="263" y="244" type="line"/>
      <point x="263" y="200"/>
      <point x="253" y="112"/>
      <point x="219" y="43"/>
      <point x="151" y="0"/>
      <point x="94" y="0" type="qcurve" smooth="yes"/>
      <point x="19" y="0" type="line"/>
      <point x="19" y="187" type="line"/>
      <point x="38" y="187"/>
      <point x="61" y="190"/>
      <point x="73" y="201"/>
      <point x="76" y="224"/>
    </contour>
  </outline>
</glyph>
<glyph name="j" format="2">
  <advance width="363"/>
  <unicode hex="006A"/>
  <outline>
    <contour>
      <point x="342" y="675" type="line"/>
      <point x="342" y="300" type="line" smooth="yes"/>
      <point x="342" y="232"/>
      <point x="292" y="121"/>
      <point x="205" y="43"/>
      <point x="89" y="0"/>
      <point x="23" y="0" type="qcurve"/>
      <point x="23" y="187" type="line"/>
      <point x="49" y="187"/>
      <point x="97" y="200"/>
      <point x="133" y="228"/>
      <point x="154" y="271"/>
      <point x="154" y="300" type="qcurve" smooth="yes"/>
      <point x="154" y="488" type="line"/>
      <point x="23" y="488" type="line"/>
      <point x="23" y="675" type="line"/>
    </contour>
  </outline>
</glyph>
<glyph name="k" format="2">
  <advance width="566"/>
  <unicode hex="006B"/>
  <outline>
    <contour>
      <point x="547" y="676" type="line"/>
      <point x="524" y="643"/>
      <point x="463" y="551"/>
      <point x="408" y="449"/>
      <point x="370" y="347"/>
      <point x="370" y="305" type="qcurve" smooth="yes"/>
      <point x="370" y="267"/>
      <point x="403" y="222"/>
      <point x="454" y="196"/>
      <point x="517" y="188"/>
      <point x="547" y="188" type="qcurve"/>
      <point x="547" y="0" type="line"/>
      <point x="494" y="0"/>
      <point x="393" y="18"/>
      <point x="305" y="60"/>
      <point x="233" y="128"/>
      <point x="209" y="179" type="qcurve"/>
      <point x="209" y="0" type="line"/>
      <point x="21" y="0" type="line"/>
      <point x="21" y="676" type="line"/>
      <point x="209" y="676" type="line"/>
      <point x="209" y="451" type="line"/>
      <point x="228" y="511"/>
      <point x="289" y="623"/>
      <point x="322" y="676" type="qcurve"/>
    </contour>
  </outline>
</glyph>
<glyph name="m" format="2">
  <advance width="791"/>
  <unicode hex="006D"/>
  <outline>
    <contour>
      <point x="771" y="676" type="line"/>
      <point x="771" y="488" type="line"/>
      <point x="715" y="488" type="line"/>
      <point x="715" y="225" type="line" smooth="yes"/>
      <point x="715" y="210"/>
      <point x="724" y="195"/>
      <point x="739" y="188"/>
      <point x="750" y="188" type="qcurve"/>
      <point x="751" y="188" type="line"/>
      <point x="752" y="188"/>
      <point x="753" y="188" type="qcurve"/>
      <point x="754" y="188" type="line"/>
      <point x="755" y="188"/>
      <point x="755" y="188" type="qcurve"/>
      <point x="756" y="188" type="line"/>
      <point x="756" y="188"/>
      <point x="756" y="188" type="qcurve"/>
      <point x="758" y="188" type="line"/>
      <point x="758" y="188"/>
      <point x="759" y="188" type="qcurve"/>
      <point x="760" y="188"/>
      <point x="760" y="188" type="qcurve"/>
      <point x="768" y="188" type="line"/>
      <point x="768" y="188"/>
      <point x="768" y="188" type="qcurve"/>
      <point x="771" y="188" type="line"/>
      <point x="771" y="0" type="line"/>
      <point x="715" y="0" type="line" smooth="yes"/>
      <point x="653" y="0"/>
      <point x="578" y="37"/>
      <point x="539" y="103"/>
      <point x="527" y="192"/>
      <point x="527" y="244" type="qcurve" smooth="yes"/>
      <point x="527" y="488" type="line"/>
      <point x="490" y="488" type="line"/>
      <point x="490" y="244" type="line"/>
      <point x="302" y="244" type="line"/>
      <point x="302" y="488" type="line"/>
      <point x="264" y="488" type="line"/>
      <point x="264" y="244" type="line" smooth="yes"/>
      <point x="264" y="184"/>
      <point x="250" y="93"/>
      <point x="206" y="31"/>
      <point x="125" y="0"/>
      <point x="58" y="0" type="qcurve" smooth="yes"/>
      <point x="20" y="0" type="line"/>
      <point x="20" y="188" type="line"/>
      <point x="22" y="188" type="line"/>
      <point x="23" y="188"/>
      <point x="24" y="188" type="qcurve"/>
      <point x="25" y="188" type="line"/>
      <point x="25" y="188"/>
      <point x="26" y="188" type="qcurve"/>
      <point x="27" y="188" type="line"/>
      <point x="27" y="188"/>
      <point x="27" y="188" type="qcurve"/>
      <point x="29" y="188" type="line"/>
      <point x="29" y="188"/>
      <point x="29" y="188" type="qcurve"/>
      <point x="30" y="188" type="line"/>
      <point x="30" y="188"/>
      <point x="31" y="188" type="qcurve"/>
      <point x="38" y="188" type="line"/>
      <point x="39" y="188"/>
      <point x="39" y="188" type="qcurve"/>
      <point x="42" y="188" type="line" smooth="yes"/>
      <point x="52" y="188"/>
      <point x="68" y="195"/>
      <point x="77" y="210"/>
      <point x="77" y="225" type="qcurve" smooth="yes"/>
      <point x="77" y="488" type="line"/>
      <point x="20" y="488" type="line"/>
      <point x="20" y="676" type="line"/>
      <point x="302" y="676" type="line"/>
      <point x="302" y="713" type="line"/>
      <point x="490" y="713" type="line"/>
      <point x="490" y="676" type="line"/>
    </contour>
  </outline>
</glyph>
<glyph name="n" format="2">
  <advance width="636"/>
  <unicode hex="006E"/>
  <outline>
    <contour>
      <point x="619" y="188" type="qcurve"/>
      <point x="619" y="0" type="line"/>
      <point x="544" y="0" type="line" smooth="yes"/>
      <point x="509" y="0"/>
      <point x="448" y="27"/>
      <point x="402" y="73"/>
      <point x="375" y="134"/>
      <point x="375" y="169" type="qcurve" smooth="yes"/>
      <point x="375" y="488" type="line"/>
      <point x="310" y="481"/>
      <point x="242" y="445"/>
      <point x="210" y="385"/>
      <point x="206" y="299"/>
      <point x="206" y="244" type="qcurve" smooth="yes"/>
      <point x="206" y="0" type="line"/>
      <point x="18" y="0" type="line"/>
      <point x="18" y="676" type="line"/>
      <point x="206" y="676" type="line"/>
      <point x="206" y="640" type="line"/>
      <point x="251" y="660"/>
      <point x="338" y="676"/>
      <point x="387" y="676" type="qcurve" smooth="yes"/>
      <point x="563" y="676" type="line"/>
      <point x="563" y="225" type="line" smooth="yes"/>
      <point x="563" y="210"/>
      <point x="572" y="195"/>
      <point x="587" y="189"/>
      <point x="608" y="188"/>
    </contour>
  </outline>
</glyph>
<glyph name="p" format="2">
  <advance width="621"/>
  <unicode hex="0070"/>
  <outline>
    <contour>
      <point x="601" y="413" type="line" smooth="yes"/>
      <point x="601" y="364"/>
      <point x="569" y="301"/>
      <point x="516" y="263"/>
      <point x="446" y="247"/>
      <point x="382" y="243"/>
      <point x="355" y="243" type="qcurve" smooth="yes"/>
      <point x="344" y="243"/>
      <point x="295" y="244"/>
      <point x="263" y="244" type="qcurve"/>
      <point x="263" y="0" type="line"/>
      <point x="75" y="0" type="line"/>
      <point x="75" y="244" type="line"/>
      <point x="19" y="244" type="line"/>
      <point x="19" y="432" type="line"/>
      <point x="75" y="432" type="line"/>
      <point x="75" y="488" type="line"/>
      <point x="19" y="488" type="line"/>
      <point x="19" y="676" type="line"/>
      <point x="601" y="676" type="line"/>
    </contour>
    <contour>
      <point x="413" y="413" type="line"/>
      <point x="413" y="488" type="line"/>
      <point x="263" y="488" type="line"/>
      <point x="263" y="413" type="line"/>
    </contour>
  </outline>
</glyph>
<glyph name="q" format="2">
  <advance width="568"/>
  <unicode hex="0071"/>
  <outline>
    <contour>
      <point x="359" y="188" type="line"/>
      <point x="359" y="488" type="line"/>
      <point x="209" y="488" type="line"/>
      <point x="209" y="188" type="line"/>
    </contour>
    <contour>
      <point x="546" y="0" type="line"/>
      <point x="378" y="0" type="line"/>
      <point x="378" y="-56" type="line"/>
      <point x="190" y="-56" type="line"/>
      <point x="190" y="0" type="line"/>
      <point x="21" y="0" type="line"/>
      <point x="21" y="676" type="line"/>
      <point x="546" y="676" type="line"/>
    </contour>
  </outline>
</glyph>
<glyph name="u" format="2">
  <advance width="622"/>
  <unicode hex="0075"/>
  <outline>
    <contour>
      <point x="601" y="0" type="line"/>
      <point x="432" y="0" type="line" smooth="yes"/>
      <point x="358" y="0"/>
      <point x="228" y="56"/>
      <point x="131" y="153"/>
      <point x="75" y="283"/>
      <point x="75" y="357" type="qcurve" smooth="yes"/>
      <point x="75" y="469" type="line"/>
      <point x="19" y="469" type="line"/>
      <point x="19" y="676" type="line"/>
      <point x="263" y="676" type="line"/>
      <point x="263" y="485" type="line"/>
      <point x="263" y="484"/>
      <point x="263" y="482" type="qcurve"/>
      <point x="263" y="463" type="line"/>
      <point x="263" y="461"/>
      <point x="263" y="460" type="qcurve"/>
      <point x="263" y="445" type="line"/>
      <point x="263" y="444"/>
      <point x="263" y="442" type="qcurve"/>
      <point x="263" y="393" type="line" smooth="yes"/>
      <point x="263" y="343"/>
      <point x="288" y="257"/>
      <point x="350" y="196"/>
      <point x="413" y="189" type="qcurve"/>
      <point x="413" y="676" type="line"/>
      <point x="601" y="676" type="line"/>
    </contour>
  </outline>
</glyph>
<glyph name="braceleft" format="2">
  <advance width="493"/>
  <unicode hex="007B"/>
  <outline>
    <contour>
      <point x="338" y="96" type="line" smooth="yes"/>
      <point x="338" y="67"/>
      <point x="359" y="24"/>
      <point x="395" y="-4"/>
      <point x="443" y="-17"/>
      <point x="469" y="-17" type="qcurve"/>
      <point x="469" y="-204" type="line"/>
      <point x="403" y="-204"/>
      <point x="287" y="-161"/>
      <point x="200" y="-83"/>
      <point x="150" y="28"/>
      <point x="150" y="96" type="qcurve" smooth="yes"/>
      <point x="150" y="128" type="line" smooth="yes"/>
      <point x="150" y="157"/>
      <point x="129" y="200"/>
      <point x="93" y="228"/>
      <point x="69" y="234" type="qcurve"/>
      <point x="49" y="240"/>
      <point x="28" y="241" type="qcurve"/>
      <point x="19" y="241" type="line"/>
      <point x="19" y="428" type="line"/>
      <point x="30" y="428" type="line"/>
      <point x="50" y="429"/>
      <point x="69" y="434" type="qcurve" smooth="yes"/>
      <point x="93" y="441"/>
      <point x="129" y="469"/>
      <point x="150" y="512"/>
      <point x="150" y="541" type="qcurve" smooth="yes"/>
      <point x="150" y="576" type="line" smooth="yes"/>
      <point x="150" y="644"/>
      <point x="200" y="755"/>
      <point x="287" y="833"/>
      <point x="403" y="876"/>
      <point x="469" y="876" type="qcurve"/>
      <point x="469" y="689" type="line"/>
      <point x="443" y="689"/>
      <point x="395" y="676"/>
      <point x="359" y="648"/>
      <point x="338" y="605"/>
      <point x="338" y="576" type="qcurve" smooth="yes"/>
      <point x="338" y="541" type="line" smooth="yes"/>
      <point x="338" y="473"/>
      <point x="313" y="417" type="qcurve" smooth="yes"/>
      <point x="292" y="370"/>
      <point x="257" y="334" type="qcurve"/>
      <point x="292" y="299"/>
      <point x="313" y="251" type="qcurve" smooth="yes"/>
      <point x="338" y="196"/>
      <point x="338" y="128" type="qcurve" smooth="yes"/>
    </contour>
  </outline>
</glyph>
<glyph name="bar" format="2">
  <advance width="210"/>
  <unicode hex="007C"/>
  <outline>
    <contour>
      <point x="23" y="809" type="line"/>
      <point x="188" y="809" type="line"/>
      <point x="188" y="-151" type="line"/>
      <point x="23" y="-151" type="line"/>
    </contour>
  </outline>
</glyph>
<glyph name="braceright" format="2">
  <advance width="493"/>
  <unicode hex="007D"/>
  <outline>
    <contour>
      <point x="150" y="128" type="line" smooth="yes"/>
      <point x="150" y="196"/>
      <point x="175" y="251" type="qcurve" smooth="yes"/>
      <point x="196" y="299"/>
      <point x="231" y="334" type="qcurve"/>
      <point x="196" y="370"/>
      <point x="175" y="417" type="qcurve" smooth="yes"/>
      <point x="150" y="473"/>
      <point x="150" y="541" type="qcurve" smooth="yes"/>
      <point x="150" y="576" type="line" smooth="yes"/>
      <point x="150" y="605"/>
      <point x="129" y="648"/>
      <point x="93" y="676"/>
      <point x="45" y="689"/>
      <point x="19" y="689" type="qcurve"/>
      <point x="19" y="876" type="line"/>
      <point x="85" y="876"/>
      <point x="201" y="833"/>
      <point x="288" y="755"/>
      <point x="338" y="644"/>
      <point x="338" y="576" type="qcurve" smooth="yes"/>
      <point x="338" y="541" type="line" smooth="yes"/>
      <point x="338" y="512"/>
      <point x="359" y="469"/>
      <point x="395" y="441"/>
      <point x="419" y="434" type="qcurve" smooth="yes"/>
      <point x="438" y="429"/>
      <point x="458" y="428" type="qcurve"/>
      <point x="469" y="428" type="line"/>
      <point x="469" y="241" type="line"/>
      <point x="460" y="241" type="line"/>
      <point x="439" y="240"/>
      <point x="419" y="234" type="qcurve"/>
      <point x="395" y="228"/>
      <point x="359" y="200"/>
      <point x="338" y="157"/>
      <point x="338" y="128" type="qcurve" smooth="yes"/>
      <point x="338" y="96" type="line" smooth="yes"/>
      <point x="338" y="28"/>
      <point x="288" y="-83"/>
      <point x="201" y="-161"/>
      <point x="85" y="-204"/>
      <point x="19" y="-204" type="qcurve"/>
      <point x="19" y="-17" type="line"/>
      <point x="45" y="-17"/>
      <point x="93" y="-4"/>
      <point x="129" y="24"/>
      <point x="150" y="67"/>
      <point x="150" y="96" type="qcurve" smooth="yes"/>
    </contour>
  </outline>
</glyph>
<glyph name="asciitilde" format="2">
  <advance width="542"/>
  <unicode hex="007E"/>
  <outline>
    <contour>
      <point x="21" y="312" type="line"/>
      <point x="41" y="363" type="line"/>
      <point x="55" y="402"/>
      <point x="122" y="444"/>
      <point x="165" y="442" type="qcurve"/>
      <point x="190" y="442"/>
      <point x="247" y="424"/>
      <point x="305" y="403"/>
      <point x="361" y="385"/>
      <point x="385" y="383" type="qcurve" smooth="yes"/>
      <point x="395" y="382"/>
      <point x="399" y="387"/>
      <point x="401" y="392" type="qcurve"/>
      <point x="400" y="391" type="line"/>
      <point x="417" y="442" type="line"/>
      <point x="521" y="404" type="line"/>
      <point x="503" y="354" type="line" smooth="yes"/>
      <point x="488" y="314"/>
      <point x="424" y="272"/>
      <point x="378" y="274" type="qcurve" smooth="yes"/>
      <point x="349" y="276"/>
      <point x="285" y="296"/>
      <point x="252" y="308" type="qcurve"/>
      <point x="253" y="307" type="line"/>
      <point x="232" y="314" type="line" smooth="yes"/>
      <point x="211" y="321"/>
      <point x="173" y="331"/>
      <point x="159" y="333" type="qcurve" smooth="yes"/>
      <point x="150" y="334"/>
      <point x="146" y="333"/>
      <point x="145" y="331" type="qcurve" smooth="yes"/>
      <point x="123" y="274" type="line"/>
    </contour>
  </outline>
</glyph>
<glyph name="exclamdown" format="2">
  <advance width="273"/>
  <unicode hex="00A1"/>
  <outline>
    <contour>
      <point x="72" y="488" type="line"/>
      <point x="72" y="676" type="line"/>
      <point x="260" y="676" type="line"/>
      <point x="260" y="488" type="line"/>
    </contour>
    <contour>
      <point x="16" y="0" type="line"/>
      <point x="16" y="188" type="line"/>
      <point x="28" y="188"/>
      <point x="48" y="189"/>
      <point x="63" y="195"/>
      <point x="72" y="211"/>
      <point x="72" y="226" type="qcurve" smooth="yes"/>
      <point x="72" y="432" type="line"/>
      <point x="260" y="432" type="line"/>
      <point x="260" y="169" type="line" smooth="yes"/>
      <point x="260" y="134"/>
      <point x="233" y="73"/>
      <point x="187" y="27"/>
      <point x="126" y="0"/>
      <point x="91" y="0" type="qcurve" smooth="yes"/>
    </contour>
  </outline>
</glyph>
<glyph name="cent" format="2">
  <advance width="428"/>
  <unicode hex="00A2"/>
  <outline>
    <contour>
      <point x="154" y="676" type="line"/>
      <point x="280" y="676" type="line"/>
      <point x="280" y="542" type="line"/>
      <point x="411" y="542" type="line"/>
      <point x="411" y="378" type="line"/>
      <point x="285" y="378" type="line"/>
      <point x="285" y="416" type="line"/>
      <point x="184" y="416" type="line"/>
      <point x="184" y="368" type="line" smooth="yes"/>
      <point x="184" y="335"/>
      <point x="206" y="293"/>
      <point x="241" y="268"/>
      <point x="288" y="257"/>
      <point x="331" y="254"/>
      <point x="347" y="254" type="qcurve" smooth="yes"/>
      <point x="356" y="254"/>
      <point x="389" y="255"/>
      <point x="411" y="255" type="qcurve"/>
      <point x="411" y="128" type="line"/>
      <point x="298" y="128" type="line" smooth="yes"/>
      <point x="289" y="128"/>
      <point x="280" y="129" type="qcurve"/>
      <point x="280" y="0" type="line"/>
      <point x="154" y="0" type="line"/>
      <point x="154" y="176" type="line"/>
      <point x="140" y="186"/>
      <point x="128" y="198" type="qcurve" smooth="yes"/>
      <point x="95" y="231"/>
      <point x="58" y="318"/>
      <point x="58" y="368" type="qcurve" smooth="yes"/>
      <point x="58" y="403" type="line"/>
      <point x="20" y="403" type="line"/>
      <point x="20" y="542" type="line"/>
      <point x="154" y="542" type="line"/>
    </contour>
  </outline>
</glyph>
<glyph name="sterling" format="2">
  <advance width="597"/>
  <unicode hex="00A3"/>
  <outline>
    <contour>
      <point x="435" y="676" type="line"/>
      <point x="435" y="523" type="line"/>
      <point x="318" y="523" type="line"/>
      <point x="301" y="522"/>
      <point x="285" y="518" type="qcurve" smooth="yes"/>
      <point x="265" y="513"/>
      <point x="236" y="490"/>
      <point x="219" y="455"/>
      <point x="219" y="431" type="qcurve" smooth="yes"/>
      <point x="219" y="331" type="line"/>
      <point x="365" y="331" type="line"/>
      <point x="365" y="217" type="line"/>
      <point x="219" y="217" type="line"/>
      <point x="219" y="153" type="line"/>
      <point x="399" y="153" type="line" smooth="yes"/>
      <point x="411" y="153"/>
      <point x="424" y="160"/>
      <point x="429" y="172"/>
      <point x="430" y="189"/>
      <point x="430" y="198" type="qcurve"/>
      <point x="583" y="198" type="line"/>
      <point x="583" y="137" type="line" smooth="yes"/>
      <point x="583" y="109"/>
      <point x="561" y="59"/>
      <point x="524" y="22"/>
      <point x="474" y="0"/>
      <point x="446" y="0" type="qcurve" smooth="yes"/>
      <point x="21" y="0" type="line"/>
      <point x="21" y="153" type="line"/>
      <point x="66" y="153" type="line"/>
      <point x="66" y="217" type="line"/>
      <point x="18" y="217" type="line"/>
      <point x="18" y="331" type="line"/>
      <point x="66" y="331" type="line"/>
      <point x="66" y="431" type="line" smooth="yes"/>
      <point x="66" y="487"/>
      <point x="107" y="577"/>
      <point x="178" y="640"/>
      <point x="225" y="657" type="qcurve" smooth="yes"/>
      <point x="269" y="673"/>
      <point x="318" y="675" type="qcurve"/>
    </contour>
  </outline>
</glyph>
<glyph name="currency" format="2">
  <advance width="560"/>
  <unicode hex="00A4"/>
  <outline>
    <contour>
      <point x="325" y="158" type="line"/>
      <point x="302" y="148"/>
      <point x="277" y="148" type="qcurve" smooth="yes"/>
      <point x="254" y="148"/>
      <point x="231" y="158" type="qcurve"/>
      <point x="94" y="38" type="line"/>
      <point x="14" y="94" type="line"/>
      <point x="120" y="265" type="line"/>
      <point x="116" y="279"/>
      <point x="112" y="304"/>
      <point x="112" y="318" type="qcurve" smooth="yes"/>
      <point x="112" y="336"/>
      <point x="120" y="368"/>
      <point x="126" y="384" type="qcurve"/>
      <point x="14" y="566" type="line"/>
      <point x="94" y="623" type="line"/>
      <point x="252" y="482" type="line"/>
      <point x="259" y="484"/>
      <point x="271" y="485"/>
      <point x="277" y="485" type="qcurve" smooth="yes"/>
      <point x="284" y="485"/>
      <point x="297" y="484"/>
      <point x="305" y="482" type="qcurve"/>
      <point x="463" y="623" type="line"/>
      <point x="542" y="566" type="line"/>
      <point x="431" y="384" type="line"/>
      <point x="437" y="368"/>
      <point x="445" y="336"/>
      <point x="445" y="318" type="qcurve" smooth="yes"/>
      <point x="445" y="304"/>
      <point x="440" y="279"/>
      <point x="437" y="265" type="qcurve"/>
      <point x="542" y="94" type="line"/>
      <point x="463" y="38" type="line"/>
    </contour>
    <contour>
      <point x="215" y="318" type="qcurve" smooth="yes"/>
      <point x="215" y="291"/>
      <point x="251" y="253"/>
      <point x="277" y="252" type="qcurve"/>
      <point x="304" y="252"/>
      <point x="341" y="291"/>
      <point x="341" y="318" type="qcurve" smooth="yes"/>
      <point x="341" y="344"/>
      <point x="304" y="380"/>
      <point x="277" y="381" type="qcurve"/>
      <point x="251" y="379"/>
      <point x="215" y="342"/>
    </contour>
  </outline>
</glyph>
<glyph name="yen" format="2">
  <advance width="458"/>
  <unicode hex="00A5"/>
  <outline>
    <contour>
      <point x="296" y="0" type="line"/>
      <point x="155" y="0" type="line"/>
      <point x="155" y="343" type="line"/>
      <point x="150" y="343"/>
      <point x="95" y="350"/>
      <point x="52" y="371"/>
      <point x="26" y="409"/>
      <point x="26" y="441" type="qcurve" smooth="yes"/>
      <point x="26" y="676" type="line"/>
      <point x="168" y="676" type="line"/>
      <point x="168" y="472" type="line"/>
      <point x="291" y="472" type="line"/>
      <point x="291" y="676" type="line"/>
      <point x="433" y="676" type="line"/>
      <point x="433" y="441" type="line" smooth="yes"/>
      <point x="433" y="409"/>
      <point x="407" y="371"/>
      <point x="364" y="350"/>
      <point x="310" y="343"/>
      <point x="296" y="343" type="qcurve"/>
    </contour>
    <contour>
      <point x="416" y="154" type="line"/>
      <point x="416" y="41" type="line"/>
      <point x="45" y="41" type="line"/>
      <point x="45" y="154" type="line"/>
    </contour>
    <contour>
      <point x="416" y="308" type="line"/>
      <point x="416" y="193" type="line"/>
      <point x="45" y="193" type="line"/>
      <point x="45" y="308" type="line"/>
    </contour>
  </outline>
</glyph>
<glyph name="brokenbar" format="2">
  <advance width="210"/>
  <unicode hex="00A6"/>
  <outline>
    <contour>
      <point x="23" y="-151" type="line"/>
      <point x="23" y="143" type="line"/>
      <point x="188" y="143" type="line"/>
      <point x="188" y="-151" type="line"/>
    </contour>
    <contour>
      <point x="23" y="809" type="line"/>
      <point x="188" y="809" type="line"/>
      <point x="188" y="525" type="line"/>
      <point x="23" y="525" type="line"/>
    </contour>
  </outline>
</glyph>
<glyph name="section" format="2">
  <advance width="498"/>
  <unicode hex="00A7"/>
  <outline>
    <contour>
      <point x="29" y="90" type="line"/>
      <point x="159" y="90" type="line"/>
      <point x="159" y="82"/>
      <point x="160" y="68"/>
      <point x="164" y="59"/>
      <point x="175" y="53"/>
      <point x="185" y="53" type="qcurve" smooth="yes"/>
      <point x="277" y="53" type="line"/>
      <point x="277" y="51" type="line"/>
      <point x="322" y="51" type="line"/>
      <point x="326" y="52"/>
      <point x="338" y="56"/>
      <point x="350" y="62"/>
      <point x="358" y="72"/>
      <point x="358" y="79" type="qcurve" smooth="yes"/>
      <point x="358" y="99"/>
      <point x="351" y="113"/>
      <point x="348" y="115" type="qcurve" smooth="yes"/>
      <point x="67" y="278" type="line"/>
      <point x="61" y="286" type="line" smooth="yes"/>
      <point x="52" y="298"/>
      <point x="34" y="337"/>
      <point x="30" y="370"/>
      <point x="30" y="379" type="qcurve" smooth="yes"/>
      <point x="30" y="395"/>
      <point x="38" y="439"/>
      <point x="56" y="468" type="qcurve"/>
      <point x="47" y="482"/>
      <point x="21" y="539"/>
      <point x="21" y="582" type="qcurve" smooth="yes"/>
      <point x="21" y="622"/>
      <point x="53" y="679"/>
      <point x="98" y="715"/>
      <point x="148" y="734"/>
      <point x="167" y="737" type="qcurve"/>
      <point x="354" y="737" type="line" smooth="yes"/>
      <point x="378" y="737"/>
      <point x="421" y="719"/>
      <point x="452" y="689"/>
      <point x="471" y="648"/>
      <point x="471" y="626" type="qcurve" smooth="yes"/>
      <point x="471" y="576" type="line"/>
      <point x="341" y="576" type="line"/>
      <point x="341" y="584"/>
      <point x="340" y="598"/>
      <point x="336" y="607"/>
      <point x="325" y="613"/>
      <point x="315" y="613" type="qcurve" smooth="yes"/>
      <point x="230" y="613" type="line"/>
      <point x="230" y="612" type="line"/>
      <point x="184" y="612" type="line"/>
      <point x="180" y="611"/>
      <point x="167" y="608"/>
      <point x="155" y="601"/>
      <point x="146" y="590"/>
      <point x="146" y="582" type="qcurve" smooth="yes"/>
      <point x="146" y="564"/>
      <point x="155" y="551"/>
      <point x="156" y="549" type="qcurve"/>
      <point x="161" y="547" type="line"/>
      <point x="445" y="378" type="line"/>
      <point x="455" y="366"/>
      <point x="473" y="327"/>
      <point x="477" y="293"/>
      <point x="477" y="284" type="qcurve" smooth="yes"/>
      <point x="477" y="268"/>
      <point x="469" y="223"/>
      <point x="450" y="194" type="qcurve"/>
      <point x="459" y="181"/>
      <point x="483" y="124"/>
      <point x="483" y="79" type="qcurve" smooth="yes"/>
      <point x="483" y="40"/>
      <point x="452" y="-15"/>
      <point x="407" y="-52"/>
      <point x="358" y="-72"/>
      <point x="339" y="-75" type="qcurve"/>
      <point x="146" y="-75" type="line" smooth="yes"/>
      <point x="122" y="-75"/>
      <point x="79" y="-57"/>
      <point x="48" y="-23"/>
      <point x="29" y="18"/>
      <point x="29" y="40" type="qcurve" smooth="yes"/>
    </contour>
    <contour>
      <point x="342" y="262" type="line"/>
      <point x="347" y="270"/>
      <point x="352" y="287"/>
      <point x="352" y="291" type="qcurve" smooth="yes"/>
      <point x="352" y="294" type="line"/>
      <point x="162" y="404" type="line"/>
      <point x="157" y="394"/>
      <point x="154" y="379"/>
      <point x="154" y="376" type="qcurve" smooth="yes"/>
      <point x="154" y="373"/>
      <point x="155" y="371" type="qcurve"/>
    </contour>
  </outline>
</glyph>
<glyph name="copyright" format="2">
  <advance width="484"/>
  <unicode hex="00A9"/>
  <outline>
    <contour>
      <point x="239" y="228" type="qcurve" smooth="yes"/>
      <point x="192" y="228"/>
      <point x="111" y="263"/>
      <point x="49" y="324"/>
      <point x="14" y="406"/>
      <point x="14" y="453" type="qcurve" smooth="yes"/>
      <point x="14" y="499"/>
      <point x="49" y="580"/>
      <point x="111" y="641"/>
      <point x="192" y="676"/>
      <point x="239" y="676" type="qcurve" smooth="yes"/>
      <point x="285" y="676"/>
      <point x="367" y="641"/>
      <point x="428" y="580"/>
      <point x="463" y="499"/>
      <point x="463" y="453" type="qcurve" smooth="yes"/>
      <point x="463" y="406"/>
      <point x="428" y="324"/>
      <point x="367" y="263"/>
      <point x="285" y="228"/>
    </contour>
    <contour>
      <point x="239" y="625" type="qcurve" smooth="yes"/>
      <point x="203" y="625"/>
      <point x="139" y="598"/>
      <point x="92" y="551"/>
      <point x="65" y="488"/>
      <point x="65" y="453" type="qcurve" smooth="yes"/>
      <point x="65" y="416"/>
      <point x="92" y="353"/>
      <point x="139" y="306"/>
      <point x="203" y="279"/>
      <point x="239" y="279" type="qcurve" smooth="yes"/>
      <point x="274" y="279"/>
      <point x="337" y="306"/>
      <point x="384" y="353"/>
      <point x="411" y="416"/>
      <point x="411" y="453" type="qcurve" smooth="yes"/>
      <point x="411" y="488"/>
      <point x="384" y="551"/>
      <point x="337" y="598"/>
      <point x="274" y="625"/>
    </contour>
    <contour>
      <point x="243" y="537" type="qcurve" smooth="yes"/>
      <point x="208" y="537"/>
      <point x="160" y="490"/>
      <point x="160" y="455" type="qcurve" smooth="yes"/>
      <point x="160" y="420"/>
      <point x="208" y="372"/>
      <point x="243" y="372" type="qcurve" smooth="yes"/>
      <point x="260" y="372"/>
      <point x="275" y="378" type="qcurve" smooth="yes"/>
      <point x="281" y="381"/>
      <point x="293" y="389"/>
      <point x="298" y="394" type="qcurve"/>
      <point x="338" y="368" type="line"/>
      <point x="336" y="362" type="line"/>
      <point x="299" y="325"/>
      <point x="243" y="325" type="qcurve" smooth="yes"/>
      <point x="216" y="325"/>
      <point x="169" y="345"/>
      <point x="133" y="380"/>
      <point x="113" y="428"/>
      <point x="113" y="455" type="qcurve" smooth="yes"/>
      <point x="113" y="482"/>
      <point x="133" y="529"/>
      <point x="169" y="564"/>
      <point x="216" y="584"/>
      <point x="243" y="584" type="qcurve" smooth="yes"/>
      <point x="297" y="584"/>
      <point x="335" y="546" type="qcurve"/>
      <point x="345" y="534" type="line"/>
      <point x="306" y="507" type="line"/>
      <point x="301" y="513" type="line"/>
      <point x="290" y="524"/>
      <point x="261" y="537"/>
    </contour>
  </outline>
</glyph>
<glyph name="ordfeminine" format="2">
  <advance width="300"/>
  <unicode hex="00AA"/>
  <outline>
    <contour>
      <point x="272" y="425" type="line" smooth="yes"/>
      <point x="272" y="411"/>
      <point x="261" y="385"/>
      <point x="242" y="366"/>
      <point x="217" y="355"/>
      <point x="202" y="355" type="qcurve" smooth="yes"/>
      <point x="91" y="355" type="line" smooth="yes"/>
      <point x="76" y="355"/>
      <point x="51" y="366"/>
      <point x="32" y="385"/>
      <point x="21" y="411"/>
      <point x="21" y="425" type="qcurve" smooth="yes"/>
      <point x="21" y="497" type="line" smooth="yes"/>
      <point x="21" y="511"/>
      <point x="32" y="536"/>
      <point x="51" y="556"/>
      <point x="76" y="567"/>
      <point x="91" y="567" type="qcurve" smooth="yes"/>
      <point x="194" y="567" type="line"/>
      <point x="194" y="598" type="line"/>
      <point x="21" y="598" type="line"/>
      <point x="21" y="675" type="line"/>
      <point x="202" y="675" type="line" smooth="yes"/>
      <point x="217" y="675"/>
      <point x="242" y="664"/>
      <point x="261" y="645"/>
      <point x="272" y="620"/>
      <point x="272" y="605" type="qcurve" smooth="yes"/>
    </contour>
    <contour>
      <point x="99" y="433" type="line"/>
      <point x="194" y="433" type="line"/>
      <point x="194" y="489" type="line"/>
      <point x="99" y="489" type="line"/>
    </contour>
  </outline>
</glyph>
<glyph name="guillemotleft" format="2">
  <advance width="675"/>
  <unicode hex="00AB"/>
  <outline>
    <contour>
      <point x="17" y="399" type="line"/>
      <point x="206" y="557" type="line"/>
      <point x="395" y="557" type="line"/>
      <point x="367" y="534"/>
      <point x="304" y="481"/>
      <point x="240" y="427"/>
      <point x="177" y="373"/>
      <point x="148" y="349" type="qcurve"/>
      <point x="395" y="142" type="line"/>
      <point x="206" y="142" type="line"/>
      <point x="17" y="299" type="line"/>
    </contour>
    <contour>
      <point x="278" y="399" type="line"/>
      <point x="468" y="557" type="line"/>
      <point x="657" y="557" type="line"/>
      <point x="628" y="534"/>
      <point x="565" y="481"/>
      <point x="500" y="427"/>
      <point x="436" y="373"/>
      <point x="407" y="349" type="qcurve"/>
      <point x="655" y="142" type="line"/>
      <point x="466" y="142" type="line"/>
      <point x="278" y="299" type="line"/>
    </contour>
  </outline>
</glyph>
<glyph name="uni00AD" format="2">
  <advance width="412"/>
  <unicode hex="00AD"/>
  <outline>
    <contour>
      <point x="397" y="421" type="line"/>
      <point x="397" y="267" type="line"/>
      <point x="15" y="267" type="line"/>
      <point x="15" y="421" type="line"/>
    </contour>
  </outline>
</glyph>
<glyph name="registered" format="2">
  <advance width="472"/>
  <unicode hex="00AE"/>
  <outline>
    <contour>
      <point x="236" y="249" type="qcurve" smooth="yes"/>
      <point x="191" y="249"/>
      <point x="113" y="282"/>
      <point x="54" y="341"/>
      <point x="21" y="419"/>
      <point x="21" y="464" type="qcurve" smooth="yes"/>
      <point x="21" y="507"/>
      <point x="54" y="585"/>
      <point x="113" y="642"/>
      <point x="191" y="676"/>
      <point x="236" y="676" type="qcurve" smooth="yes"/>
      <point x="279" y="676"/>
      <point x="357" y="642"/>
      <point x="414" y="585"/>
      <point x="448" y="507"/>
      <point x="448" y="464" type="qcurve" smooth="yes"/>
      <point x="448" y="419"/>
      <point x="414" y="341"/>
      <point x="357" y="282"/>
      <point x="279" y="249"/>
    </contour>
    <contour>
      <point x="236" y="641" type="qcurve" smooth="yes"/>
      <point x="199" y="641"/>
      <point x="133" y="613"/>
      <point x="84" y="564"/>
      <point x="56" y="500"/>
      <point x="56" y="464" type="qcurve" smooth="yes"/>
      <point x="56" y="427"/>
      <point x="84" y="361"/>
      <point x="133" y="312"/>
      <point x="199" y="284"/>
      <point x="236" y="284" type="qcurve" smooth="yes"/>
      <point x="272" y="284"/>
      <point x="336" y="312"/>
      <point x="385" y="361"/>
      <point x="413" y="427"/>
      <point x="413" y="464" type="qcurve" smooth="yes"/>
      <point x="413" y="500"/>
      <point x="385" y="564"/>
      <point x="336" y="613"/>
      <point x="272" y="641"/>
    </contour>
    <contour>
      <point x="335" y="335" type="line"/>
      <point x="295" y="337"/>
      <point x="238" y="386"/>
      <point x="230" y="432" type="qcurve"/>
      <point x="200" y="432" type="line"/>
      <point x="200" y="335" type="line"/>
      <point x="147" y="335" type="line"/>
      <point x="147" y="432" type="line"/>
      <point x="124" y="432" type="line"/>
      <point x="124" y="486" type="line"/>
      <point x="147" y="486" type="line"/>
      <point x="147" y="530" type="line"/>
      <point x="124" y="530" type="line"/>
      <point x="124" y="583" type="line"/>
      <point x="335" y="583" type="line"/>
      <point x="335" y="489" type="line" smooth="yes"/>
      <point x="335" y="469"/>
      <point x="300" y="435"/>
      <point x="274" y="433" type="qcurve"/>
      <point x="282" y="404"/>
      <point x="317" y="382"/>
      <point x="335" y="380" type="qcurve"/>
    </contour>
    <contour>
      <point x="282" y="478" type="line"/>
      <point x="282" y="530" type="line"/>
      <point x="200" y="530" type="line"/>
      <point x="200" y="478" type="line"/>
    </contour>
  </outline>
</glyph>
<glyph name="macron" format="2">
  <advance width="469"/>
  <unicode hex="00AF"/>
  <outline>
    <contour>
      <point x="424" y="900" type="line"/>
      <point x="424" y="746" type="line"/>
      <point x="45" y="746" type="line"/>
      <point x="45" y="900" type="line"/>
    </contour>
  </outline>
</glyph>
<glyph name="degree" format="2">
  <advance width="286"/>
  <unicode hex="00B0"/>
  <outline>
    <contour>
      <point x="138" y="430" type="qcurve" smooth="yes"/>
      <point x="112" y="430"/>
      <point x="68" y="450"/>
      <point x="35" y="483"/>
      <point x="16" y="528"/>
      <point x="16" y="554" type="qcurve" smooth="yes"/>
      <point x="16" y="579"/>
      <point x="35" y="624"/>
      <point x="68" y="657"/>
      <point x="112" y="676"/>
      <point x="138" y="676" type="qcurve" smooth="yes"/>
      <point x="163" y="676"/>
      <point x="208" y="657"/>
      <point x="242" y="624"/>
      <point x="262" y="579"/>
      <point x="262" y="554" type="qcurve" smooth="yes"/>
      <point x="262" y="528"/>
      <point x="242" y="483"/>
      <point x="208" y="450"/>
      <point x="163" y="430"/>
    </contour>
    <contour>
      <point x="138" y="601" type="qcurve" smooth="yes"/>
      <point x="118" y="601"/>
      <point x="91" y="573"/>
      <point x="91" y="554" type="qcurve" smooth="yes"/>
      <point x="91" y="534"/>
      <point x="118" y="506"/>
      <point x="138" y="506" type="qcurve" smooth="yes"/>
      <point x="158" y="506"/>
      <point x="186" y="534"/>
      <point x="186" y="554" type="qcurve" smooth="yes"/>
      <point x="186" y="573"/>
      <point x="158" y="601"/>
    </contour>
  </outline>
</glyph>
<glyph name="plusminus" format="2">
  <advance width="389"/>
  <unicode hex="00B1"/>
  <outline>
    <contour>
      <point x="363" y="214" type="line"/>
      <point x="363" y="96" type="line"/>
      <point x="36" y="96" type="line"/>
      <point x="36" y="214" type="line"/>
    </contour>
    <contour>
      <point x="142" y="599" type="line"/>
      <point x="259" y="599" type="line"/>
      <point x="259" y="496" type="line"/>
      <point x="363" y="496" type="line"/>
      <point x="363" y="378" type="line"/>
      <point x="259" y="378" type="line"/>
      <point x="259" y="272" type="line"/>
      <point x="142" y="272" type="line"/>
      <point x="142" y="378" type="line"/>
      <point x="36" y="378" type="line"/>
      <point x="36" y="496" type="line"/>
      <point x="142" y="496" type="line"/>
    </contour>
  </outline>
</glyph>
<glyph name="acute" format="2">
  <advance width="335"/>
  <unicode hex="00B4"/>
  <outline>
    <contour>
      <point x="152" y="915" type="line"/>
      <point x="301" y="915" type="line"/>
      <point x="207" y="743" type="line"/>
      <point x="76" y="743" type="line"/>
    </contour>
  </outline>
</glyph>
<glyph name="paragraph" format="2">
  <advance width="661"/>
  <unicode hex="00B6"/>
  <outline>
    <contour>
      <point x="638" y="675" type="line"/>
      <point x="638" y="571" type="line"/>
      <point x="575" y="571" type="line"/>
      <point x="575" y="0" type="line"/>
      <point x="454" y="0" type="line"/>
      <point x="454" y="571" type="line"/>
      <point x="367" y="571" type="line"/>
      <point x="367" y="0" type="line"/>
      <point x="250" y="0" type="line"/>
      <point x="250" y="344" type="line"/>
      <point x="183" y="344" type="line" smooth="yes"/>
      <point x="151" y="344"/>
      <point x="93" y="370"/>
      <point x="50" y="415"/>
      <point x="25" y="475"/>
      <point x="25" y="509" type="qcurve" smooth="yes"/>
      <point x="25" y="545"/>
      <point x="50" y="605"/>
      <point x="93" y="650"/>
      <point x="151" y="676"/>
      <point x="183" y="676" type="qcurve"/>
    </contour>
  </outline>
</glyph>
<glyph name="periodcentered" format="2">
  <advance width="214"/>
  <unicode hex="00B7"/>
  <outline>
    <contour>
      <point x="18" y="413" type="qcurve" smooth="yes"/>
      <point x="18" y="451"/>
      <point x="71" y="505"/>
      <point x="109" y="505" type="qcurve" smooth="yes"/>
      <point x="147" y="505"/>
      <point x="200" y="451"/>
      <point x="200" y="413" type="qcurve" smooth="yes"/>
      <point x="200" y="375"/>
      <point x="147" y="323"/>
      <point x="109" y="323" type="qcurve" smooth="yes"/>
      <point x="71" y="323"/>
      <point x="18" y="375"/>
    </contour>
  </outline>
</glyph>
<glyph name="ordmasculine" format="2">
  <advance width="291"/>
  <unicode hex="00BA"/>
  <outline>
    <contour>
      <point x="89" y="355" type="line" smooth="yes"/>
      <point x="74" y="355"/>
      <point x="49" y="366"/>
      <point x="30" y="385"/>
      <point x="19" y="411"/>
      <point x="19" y="425" type="qcurve" smooth="yes"/>
      <point x="19" y="605" type="line" smooth="yes"/>
      <point x="19" y="620"/>
      <point x="30" y="645"/>
      <point x="49" y="664"/>
      <point x="74" y="675"/>
      <point x="89" y="675" type="qcurve" smooth="yes"/>
      <point x="204" y="675" type="line" smooth="yes"/>
      <point x="219" y="675"/>
      <point x="244" y="664"/>
      <point x="263" y="645"/>
      <point x="274" y="620"/>
      <point x="274" y="605" type="qcurve" smooth="yes"/>
      <point x="274" y="425" type="line" smooth="yes"/>
      <point x="274" y="411"/>
      <point x="263" y="385"/>
      <point x="244" y="366"/>
      <point x="219" y="355"/>
      <point x="204" y="355" type="qcurve" smooth="yes"/>
    </contour>
    <contour>
      <point x="97" y="598" type="line"/>
      <point x="97" y="433" type="line"/>
      <point x="197" y="433" type="line"/>
      <point x="197" y="598" type="line"/>
    </contour>
  </outline>
</glyph>
<glyph name="guillemotright" format="2">
  <advance width="675"/>
  <unicode hex="00BB"/>
  <outline>
    <contour>
      <point x="396" y="299" type="line"/>
      <point x="208" y="142" type="line"/>
      <point x="19" y="142" type="line"/>
      <point x="267" y="349" type="line"/>
      <point x="238" y="373"/>
      <point x="174" y="427"/>
      <point x="109" y="481"/>
      <point x="45" y="534"/>
      <point x="17" y="557" type="qcurve"/>
      <point x="206" y="557" type="line"/>
      <point x="396" y="399" type="line"/>
    </contour>
    <contour>
      <point x="657" y="299" type="line"/>
      <point x="468" y="142" type="line"/>
      <point x="279" y="142" type="line"/>
      <point x="526" y="349" type="line"/>
      <point x="497" y="373"/>
      <point x="434" y="427"/>
      <point x="370" y="481"/>
      <point x="307" y="534"/>
      <point x="279" y="557" type="qcurve"/>
      <point x="468" y="557" type="line"/>
      <point x="657" y="399" type="line"/>
    </contour>
  </outline>
</glyph>
<glyph name="questiondown" format="2">
  <advance width="549"/>
  <unicode hex="00BF"/>
  <outline>
    <contour>
      <point x="162" y="488" type="line"/>
      <point x="162" y="676" type="line"/>
      <point x="350" y="676" type="line"/>
      <point x="350" y="488" type="line"/>
    </contour>
    <contour>
      <point x="12" y="306" type="line" smooth="yes"/>
      <point x="12" y="332"/>
      <point x="32" y="378"/>
      <point x="66" y="412"/>
      <point x="111" y="432"/>
      <point x="137" y="432" type="qcurve" smooth="yes"/>
      <point x="350" y="432" type="line"/>
      <point x="350" y="263" type="line"/>
      <point x="199" y="263" type="line"/>
      <point x="199" y="188" type="line"/>
      <point x="537" y="188" type="line"/>
      <point x="537" y="0" type="line"/>
      <point x="12" y="0" type="line"/>
    </contour>
  </outline>
</glyph>
<glyph name="Acircumflex" format="2">
  <advance width="677"/>
  <unicode hex="00C2"/>
  <outline>
    <contour>
      <point x="344" y="942" type="line"/>
      <point x="558" y="818" type="line"/>
      <point x="505" y="733" type="line"/>
      <point x="342" y="794" type="line"/>
      <point x="180" y="733" type="line"/>
      <point x="127" y="818" type="line"/>
    </contour>
    <contour>
      <point x="245" y="675" type="line"/>
      <point x="245" y="713" type="line"/>
      <point x="433" y="713" type="line"/>
      <point x="433" y="675" type="line"/>
      <point x="658" y="675" type="line"/>
      <point x="658" y="488" type="line"/>
      <point x="601" y="488" type="line"/>
      <point x="601" y="225" type="line" smooth="yes"/>
      <point x="601" y="210"/>
      <point x="610" y="194"/>
      <point x="626" y="187"/>
      <point x="636" y="187" type="qcurve" smooth="yes"/>
      <point x="658" y="187" type="line"/>
      <point x="658" y="0" type="line"/>
      <point x="583" y="0" type="line" smooth="yes"/>
      <point x="525" y="0"/>
      <point x="458" y="44"/>
      <point x="423" y="113"/>
      <point x="414" y="200"/>
      <point x="414" y="244" type="qcurve"/>
      <point x="264" y="244" type="line"/>
      <point x="264" y="168" type="line" smooth="yes"/>
      <point x="264" y="133"/>
      <point x="237" y="72"/>
      <point x="191" y="26"/>
      <point x="129" y="0"/>
      <point x="95" y="0" type="qcurve" smooth="yes"/>
      <point x="19" y="0" type="line"/>
      <point x="19" y="187" type="line"/>
      <point x="41" y="187" type="line" smooth="yes"/>
      <point x="51" y="187"/>
      <point x="67" y="194"/>
      <point x="76" y="210"/>
      <point x="76" y="225" type="qcurve" smooth="yes"/>
      <point x="76" y="488" type="line"/>
      <point x="19" y="488" type="line"/>
      <point x="19" y="675" type="line"/>
    </contour>
    <contour>
      <point x="414" y="431" type="line"/>
      <point x="414" y="488" type="line"/>
      <point x="264" y="488" type="line"/>
      <point x="264" y="431" type="line"/>
    </contour>
  </outline>
</glyph>
<glyph name="AE" format="2">
  <advance width="968"/>
  <unicode hex="00C6"/>
  <outline>
    <contour>
      <point x="607" y="488" type="line"/>
      <point x="607" y="413" type="line"/>
      <point x="832" y="413" type="line"/>
      <point x="832" y="244" type="line"/>
      <point x="607" y="244" type="line"/>
      <point x="607" y="225" type="line" smooth="yes"/>
      <point x="607" y="205"/>
      <point x="622" y="190"/>
      <point x="633" y="188" type="qcurve" smooth="yes"/>
      <point x="640" y="187"/>
      <point x="648" y="187" type="qcurve"/>
      <point x="648" y="187"/>
      <point x="648" y="187" type="qcurve"/>
      <point x="649" y="187" type="line"/>
      <point x="650" y="187"/>
      <point x="650" y="187" type="qcurve"/>
      <point x="651" y="187" type="line"/>
      <point x="652" y="187"/>
      <point x="653" y="187" type="qcurve"/>
      <point x="653" y="187"/>
      <point x="653" y="187" type="qcurve"/>
      <point x="655" y="187" type="line"/>
      <point x="655" y="187"/>
      <point x="656" y="187" type="qcurve"/>
      <point x="656" y="187"/>
      <point x="657" y="187" type="qcurve"/>
      <point x="945" y="187" type="line"/>
      <point x="945" y="0" type="line"/>
      <point x="589" y="0" type="line" smooth="yes"/>
      <point x="535" y="0"/>
      <point x="470" y="38"/>
      <point x="434" y="100"/>
      <point x="422" y="179"/>
      <point x="421" y="220" type="qcurve"/>
      <point x="420" y="226"/>
      <point x="419" y="238"/>
      <point x="419" y="244" type="qcurve"/>
      <point x="270" y="244" type="line"/>
      <point x="270" y="168" type="line" smooth="yes"/>
      <point x="270" y="133"/>
      <point x="243" y="72"/>
      <point x="197" y="26"/>
      <point x="135" y="0"/>
      <point x="101" y="0" type="qcurve" smooth="yes"/>
      <point x="25" y="0" type="line"/>
      <point x="25" y="187" type="line"/>
      <point x="26" y="187" type="line"/>
      <point x="26" y="187"/>
      <point x="26" y="187" type="qcurve"/>
      <point x="28" y="187" type="line"/>
      <point x="28" y="187"/>
      <point x="29" y="187" type="qcurve"/>
      <point x="31" y="187" type="line"/>
      <point x="32" y="187"/>
      <point x="32" y="187" type="qcurve"/>
      <point x="33" y="187" type="line"/>
      <point x="33" y="187"/>
      <point x="34" y="187" type="qcurve"/>
      <point x="36" y="187" type="line"/>
      <point x="37" y="187"/>
      <point x="37" y="187" type="qcurve"/>
      <point x="38" y="187" type="line"/>
      <point x="38" y="187"/>
      <point x="39" y="187" type="qcurve"/>
      <point x="47" y="187" type="line" smooth="yes"/>
      <point x="57" y="187"/>
      <point x="73" y="194"/>
      <point x="82" y="210"/>
      <point x="82" y="225" type="qcurve" smooth="yes"/>
      <point x="82" y="488" type="line"/>
      <point x="25" y="488" type="line"/>
      <point x="25" y="675" type="line"/>
      <point x="251" y="675" type="line"/>
      <point x="251" y="713" type="line"/>
      <point x="439" y="713" type="line"/>
      <point x="439" y="675" type="line"/>
      <point x="945" y="675" type="line"/>
      <point x="945" y="488" type="line"/>
    </contour>
    <contour>
      <point x="419" y="431" type="line"/>
      <point x="419" y="488" type="line"/>
      <point x="270" y="488" type="line"/>
      <point x="270" y="431" type="line"/>
    </contour>
  </outline>
</glyph>
<glyph name="Icircumflex" format="2">
  <advance width="285"/>
  <unicode hex="00CE"/>
  <outline>
    <contour>
      <point x="186" y="942" type="line"/>
      <point x="400" y="818" type="line"/>
      <point x="347" y="733" type="line"/>
      <point x="184" y="794" type="line"/>
      <point x="22" y="733" type="line"/>
      <point x="-31" y="818" type="line"/>
    </contour>
    <contour>
      <point x="265" y="676" type="line"/>
      <point x="265" y="169" type="line" smooth="yes"/>
      <point x="265" y="134"/>
      <point x="238" y="73"/>
      <point x="192" y="27"/>
      <point x="131" y="0"/>
      <point x="96" y="0" type="qcurve" smooth="yes"/>
      <point x="21" y="0" type="line"/>
      <point x="21" y="188" type="line"/>
      <point x="32" y="188"/>
      <point x="53" y="189"/>
      <point x="68" y="195"/>
      <point x="77" y="210"/>
      <point x="77" y="225" type="qcurve" smooth="yes"/>
      <point x="77" y="676" type="line"/>
    </contour>
  </outline>
</glyph>
<glyph name="multiply" format="2">
  <advance width="517"/>
  <unicode hex="00D7"/>
  <outline>
    <contour>
      <point x="129" y="113" type="line"/>
      <point x="20" y="222" type="line"/>
      <point x="153" y="355" type="line"/>
      <point x="19" y="489" type="line"/>
      <point x="128" y="598" type="line"/>
      <point x="262" y="464" type="line"/>
      <point x="395" y="597" type="line"/>
      <point x="504" y="488" type="line"/>
      <point x="371" y="355" type="line"/>
      <point x="503" y="224" type="line"/>
      <point x="394" y="115" type="line"/>
      <point x="262" y="246" type="line"/>
    </contour>
  </outline>
</glyph>
<glyph name="Oslash" format="2">
  <advance width="570"/>
  <unicode hex="00D8"/>
  <outline>
    <contour>
      <point x="307" y="488" type="line"/>
      <point x="211" y="488" type="line"/>
      <point x="211" y="278" type="line"/>
    </contour>
    <contour>
      <point x="361" y="188" type="line"/>
      <point x="361" y="398" type="line"/>
      <point x="266" y="188" type="line"/>
    </contour>
    <contour>
      <point x="549" y="0" type="line"/>
      <point x="181" y="0" type="line"/>
      <point x="157" y="-52" type="line"/>
      <point x="61" y="-52" type="line"/>
      <point x="85" y="0" type="line"/>
      <point x="23" y="0" type="line"/>
      <point x="23" y="676" type="line"/>
      <point x="392" y="676" type="line"/>
      <point x="413" y="722" type="line"/>
      <point x="508" y="722" type="line"/>
      <point x="487" y="676" type="line"/>
      <point x="549" y="676" type="line"/>
    </contour>
  </outline>
</glyph>
<glyph name="Thorn" format="2">
  <advance width="617"/>
  <unicode hex="00DE"/>
  <outline>
    <contour>
      <point x="208" y="676" type="line"/>
      <point x="208" y="584" type="line"/>
      <point x="414" y="584" type="line" smooth="yes"/>
      <point x="451" y="584"/>
      <point x="516" y="556"/>
      <point x="564" y="508"/>
      <point x="592" y="443"/>
      <point x="592" y="406" type="qcurve" smooth="yes"/>
      <point x="592" y="275" type="line" smooth="yes"/>
      <point x="592" y="238"/>
      <point x="564" y="173"/>
      <point x="516" y="125"/>
      <point x="451" y="98"/>
      <point x="414" y="98" type="qcurve" smooth="yes"/>
      <point x="208" y="98" type="line"/>
      <point x="208" y="1" type="line"/>
      <point x="20" y="1" type="line"/>
      <point x="20" y="676" type="line"/>
    </contour>
    <contour>
      <point x="403" y="422" type="line" smooth="yes"/>
      <point x="403" y="428"/>
      <point x="401" y="436" type="qcurve"/>
      <point x="393" y="450"/>
      <point x="353" y="453"/>
      <point x="337" y="453" type="qcurve" smooth="yes"/>
      <point x="330" y="453"/>
      <point x="322" y="453" type="qcurve" smooth="yes"/>
      <point x="208" y="453" type="line"/>
      <point x="208" y="224" type="line"/>
      <point x="321" y="224" type="line" smooth="yes"/>
      <point x="328" y="224"/>
      <point x="334" y="224" type="qcurve" smooth="yes"/>
      <point x="351" y="224"/>
      <point x="390" y="228"/>
      <point x="400" y="238" type="qcurve"/>
      <point x="401" y="241"/>
      <point x="403" y="249"/>
      <point x="403" y="255" type="qcurve" smooth="yes"/>
    </contour>
  </outline>
</glyph>
<glyph name="ccedilla" format="2">
  <advance width="625"/>
  <unicode hex="00E7"/>
  <outline>
    <contour>
      <point x="418" y="33" type="line"/>
      <point x="397" y="-54" type="line"/>
      <point x="407" y="-56" type="line"/>
      <point x="423" y="-60"/>
      <point x="455" y="-72"/>
      <point x="468" y="-81" type="qcurve"/>
      <point x="479" y="-91"/>
      <point x="495" y="-117"/>
      <point x="495" y="-128" type="qcurve" smooth="yes"/>
      <point x="495" y="-147"/>
      <point x="459" y="-180"/>
      <point x="413" y="-188" type="qcurve"/>
      <point x="414" y="-188" type="line"/>
      <point x="404" y="-190"/>
      <point x="273" y="-214" type="qcurve"/>
      <point x="288" y="-167" type="line"/>
      <point x="351" y="-145"/>
      <point x="382" y="-132"/>
      <point x="382" y="-123" type="qcurve" smooth="yes"/>
      <point x="382" y="-115"/>
      <point x="357" y="-101"/>
      <point x="331" y="-91"/>
      <point x="303" y="-85"/>
      <point x="293" y="-84" type="qcurve"/>
      <point x="324" y="33" type="line"/>
    </contour>
    <contour>
      <point x="601" y="432" type="line"/>
      <point x="413" y="432" type="line"/>
      <point x="413" y="489" type="line"/>
      <point x="263" y="489" type="line"/>
      <point x="263" y="357" type="line" smooth="yes"/>
      <point x="263" y="308"/>
      <point x="295" y="245"/>
      <point x="348" y="208"/>
      <point x="418" y="191"/>
      <point x="482" y="187"/>
      <point x="509" y="187" type="qcurve" smooth="yes"/>
      <point x="520" y="187"/>
      <point x="568" y="188"/>
      <point x="601" y="188" type="qcurve"/>
      <point x="601" y="0" type="line"/>
      <point x="432" y="0" type="line" smooth="yes"/>
      <point x="358" y="0"/>
      <point x="228" y="56"/>
      <point x="131" y="153"/>
      <point x="75" y="283"/>
      <point x="75" y="357" type="qcurve" smooth="yes"/>
      <point x="75" y="470" type="line"/>
      <point x="19" y="470" type="line"/>
      <point x="19" y="676" type="line"/>
      <point x="601" y="676" type="line"/>
    </contour>
  </outline>
</glyph>
<glyph name="ecircumflex" format="2">
  <advance width="620"/>
  <unicode hex="00EA"/>
  <outline>
    <contour>
      <point x="311" y="942" type="line"/>
      <point x="525" y="818" type="line"/>
      <point x="472" y="733" type="line"/>
      <point x="309" y="794" type="line"/>
      <point x="147" y="733" type="line"/>
      <point x="94" y="818" type="line"/>
    </contour>
    <contour>
      <point x="75" y="244" type="qcurve"/>
      <point x="19" y="244" type="line"/>
      <point x="19" y="431" type="line"/>
      <point x="75" y="431" type="line"/>
      <point x="75" y="488" type="line"/>
      <point x="19" y="488" type="line"/>
      <point x="19" y="675" type="line"/>
      <point x="601" y="675" type="line"/>
      <point x="601" y="488" type="line"/>
      <point x="263" y="488" type="line"/>
      <point x="263" y="413" type="line"/>
      <point x="488" y="413" type="line"/>
      <point x="488" y="244" type="line"/>
      <point x="263" y="244" type="line"/>
      <point x="263" y="243"/>
      <point x="263" y="242" type="qcurve"/>
      <point x="263" y="187"/>
      <point x="319" y="187" type="qcurve" smooth="yes"/>
      <point x="601" y="187" type="line"/>
      <point x="601" y="0" type="line"/>
      <point x="319" y="0" type="line" smooth="yes"/>
      <point x="269" y="0"/>
      <point x="180" y="39"/>
      <point x="114" y="105"/>
      <point x="75" y="194"/>
    </contour>
  </outline>
</glyph>
<glyph name="idieresis" format="2">
  <advance width="285"/>
  <unicode hex="00EF"/>
  <outline>
    <contour>
      <point x="205" y="827" type="qcurve" smooth="yes"/>
      <point x="205" y="865"/>
      <point x="258" y="919"/>
      <point x="296" y="919" type="qcurve" smooth="yes"/>
      <point x="334" y="919"/>
      <point x="387" y="865"/>
      <point x="387" y="827" type="qcurve" smooth="yes"/>
      <point x="387" y="789"/>
      <point x="334" y="737"/>
      <point x="296" y="737" type="qcurve" smooth="yes"/>
      <point x="258" y="737"/>
      <point x="205" y="789"/>
    </contour>
    <contour>
      <point x="-59" y="827" type="qcurve" smooth="yes"/>
      <point x="-59" y="865"/>
      <point x="-6" y="919"/>
      <point x="32" y="919" type="qcurve" smooth="yes"/>
      <point x="70" y="919"/>
      <point x="123" y="865"/>
      <point x="123" y="827" type="qcurve" smooth="yes"/>
      <point x="123" y="789"/>
      <point x="70" y="737"/>
      <point x="32" y="737" type="qcurve" smooth="yes"/>
      <point x="-6" y="737"/>
      <point x="-59" y="789"/>
    </contour>
    <contour>
      <point x="265" y="676" type="line"/>
      <point x="265" y="169" type="line" smooth="yes"/>
      <point x="265" y="134"/>
      <point x="238" y="73"/>
      <point x="192" y="27"/>
      <point x="131" y="0"/>
      <point x="96" y="0" type="qcurve" smooth="yes"/>
      <point x="21" y="0" type="line"/>
      <point x="21" y="188" type="line"/>
      <point x="32" y="188"/>
      <point x="53" y="189"/>
      <point x="68" y="195"/>
      <point x="77" y="210"/>
      <point x="77" y="225" type="qcurve" smooth="yes"/>
      <point x="77" y="676" type="line"/>
    </contour>
  </outline>
</glyph>
<glyph name="ocircumflex" format="2">
  <advance width="570"/>
  <unicode hex="00F4"/>
  <outline>
    <contour>
      <point x="361" y="188" type="line"/>
      <point x="361" y="488" type="line"/>
      <point x="211" y="488" type="line"/>
      <point x="211" y="188" type="line"/>
    </contour>
    <contour>
      <point x="549" y="0" type="line"/>
      <point x="23" y="0" type="line"/>
      <point x="23" y="676" type="line"/>
      <point x="549" y="676" type="line"/>
    </contour>
    <contour>
      <point x="281" y="942" type="line"/>
      <point x="495" y="818" type="line"/>
      <point x="442" y="733" type="line"/>
      <point x="279" y="794" type="line"/>
      <point x="117" y="733" type="line"/>
      <point x="64" y="818" type="line"/>
    </contour>
  </outline>
</glyph>
<glyph name="divide" format="2">
  <advance width="393"/>
  <unicode hex="00F7"/>
  <outline>
    <contour>
      <point x="122" y="508" type="qcurve" smooth="yes"/>
      <point x="122" y="524"/>
      <point x="134" y="553"/>
      <point x="155" y="574"/>
      <point x="182" y="586"/>
      <point x="199" y="586" type="qcurve" smooth="yes"/>
      <point x="214" y="586"/>
      <point x="242" y="574"/>
      <point x="263" y="553"/>
      <point x="275" y="524"/>
      <point x="275" y="508" type="qcurve" smooth="yes"/>
      <point x="275" y="492"/>
      <point x="263" y="463"/>
      <point x="242" y="443"/>
      <point x="214" y="430"/>
      <point x="199" y="430" type="qcurve" smooth="yes"/>
      <point x="182" y="430"/>
      <point x="155" y="443"/>
      <point x="134" y="463"/>
      <point x="122" y="492"/>
    </contour>
    <contour>
      <point x="368" y="407" type="line"/>
      <point x="368" y="280" type="line"/>
      <point x="21" y="280" type="line"/>
      <point x="21" y="407" type="line"/>
    </contour>
    <contour>
      <point x="123" y="175" type="qcurve" smooth="yes"/>
      <point x="123" y="191"/>
      <point x="135" y="220"/>
      <point x="156" y="241"/>
      <point x="183" y="253"/>
      <point x="199" y="253" type="qcurve" smooth="yes"/>
      <point x="215" y="253"/>
      <point x="243" y="241"/>
      <point x="264" y="220"/>
      <point x="276" y="191"/>
      <point x="276" y="175" type="qcurve" smooth="yes"/>
      <point x="276" y="159"/>
      <point x="264" y="131"/>
      <point x="243" y="110"/>
      <point x="215" y="97"/>
      <point x="199" y="97" type="qcurve" smooth="yes"/>
      <point x="183" y="97"/>
      <point x="156" y="110"/>
      <point x="135" y="131"/>
      <point x="123" y="159"/>
    </contour>
  </outline>
</glyph>
<glyph name="Aogonek" format="2">
  <advance width="677"/>
  <unicode hex="0104"/>
  <outline>
    <contour>
      <point x="245" y="675" type="line"/>
      <point x="245" y="713" type="line"/>
      <point x="433" y="713" type="line"/>
      <point x="433" y="675" type="line"/>
      <point x="658" y="675" type="line"/>
      <point x="658" y="488" type="line"/>
      <point x="601" y="488" type="line"/>
      <point x="601" y="225" type="line" smooth="yes"/>
      <point x="601" y="210"/>
      <point x="610" y="194"/>
      <point x="626" y="187"/>
      <point x="636" y="187" type="qcurve"/>
      <point x="637" y="187" type="line"/>
      <point x="637" y="187"/>
      <point x="637" y="187" type="qcurve"/>
      <point x="638" y="187" type="line"/>
      <point x="639" y="187"/>
      <point x="640" y="187" type="qcurve"/>
      <point x="641" y="187" type="line"/>
      <point x="642" y="187"/>
      <point x="642" y="187" type="qcurve"/>
      <point x="643" y="187" type="line"/>
      <point x="643" y="187"/>
      <point x="644" y="187" type="qcurve"/>
      <point x="646" y="187" type="line"/>
      <point x="646" y="187"/>
      <point x="647" y="187" type="qcurve"/>
      <point x="648" y="187" type="line"/>
      <point x="648" y="187"/>
      <point x="649" y="187" type="qcurve"/>
      <point x="658" y="187" type="line"/>
      <point x="658" y="0" type="line"/>
      <point x="590" y="0" type="line"/>
      <point x="568" y="-28"/>
      <point x="553" y="-53" type="qcurve" smooth="yes"/>
      <point x="531" y="-87"/>
      <point x="531" y="-108" type="qcurve" smooth="yes"/>
      <point x="531" y="-123"/>
      <point x="541" y="-126" type="qcurve" smooth="yes"/>
      <point x="546" y="-128"/>
      <point x="560" y="-130"/>
      <point x="565" y="-130" type="qcurve" smooth="yes"/>
      <point x="569" y="-130"/>
      <point x="573" y="-129" type="qcurve" smooth="yes"/>
      <point x="581" y="-128"/>
      <point x="619" y="-116" type="qcurve"/>
      <point x="645" y="-152" type="line"/>
      <point x="597" y="-169"/>
      <point x="557" y="-179" type="qcurve"/>
      <point x="545" y="-181"/>
      <point x="519" y="-184"/>
      <point x="502" y="-184" type="qcurve" smooth="yes"/>
      <point x="480" y="-184"/>
      <point x="435" y="-176"/>
      <point x="419" y="-165" type="qcurve" smooth="yes"/>
      <point x="396" y="-149"/>
      <point x="396" y="-134" type="qcurve" smooth="yes"/>
      <point x="396" y="-118"/>
      <point x="426" y="-72"/>
      <point x="446" y="-51" type="qcurve" smooth="yes"/>
      <point x="458" y="-38"/>
      <point x="480" y="-19" type="qcurve" smooth="yes"/>
      <point x="495" y="-5"/>
      <point x="514" y="11" type="qcurve"/>
      <point x="501" y="15"/>
      <point x="492" y="22" type="qcurve"/>
      <point x="458" y="44"/>
      <point x="423" y="113"/>
      <point x="414" y="200"/>
      <point x="414" y="244" type="qcurve"/>
      <point x="264" y="244" type="line"/>
      <point x="264" y="168" type="line" smooth="yes"/>
      <point x="264" y="133"/>
      <point x="237" y="72"/>
      <point x="191" y="26"/>
      <point x="129" y="0"/>
      <point x="95" y="0" type="qcurve" smooth="yes"/>
      <point x="19" y="0" type="line"/>
      <point x="19" y="187" type="line"/>
      <point x="20" y="187" type="line"/>
      <point x="20" y="187"/>
      <point x="20" y="187" type="qcurve"/>
      <point x="22" y="187" type="line"/>
      <point x="22" y="187"/>
      <point x="23" y="187" type="qcurve"/>
      <point x="25" y="187" type="line"/>
      <point x="26" y="187"/>
      <point x="26" y="187" type="qcurve"/>
      <point x="27" y="187" type="line"/>
      <point x="27" y="187"/>
      <point x="28" y="187" type="qcurve"/>
      <point x="30" y="187" type="line"/>
      <point x="31" y="187"/>
      <point x="31" y="187" type="qcurve"/>
      <point x="32" y="187" type="line"/>
      <point x="32" y="187"/>
      <point x="33" y="187" type="qcurve"/>
      <point x="41" y="187" type="line" smooth="yes"/>
      <point x="51" y="187"/>
      <point x="67" y="194"/>
      <point x="76" y="210"/>
      <point x="76" y="225" type="qcurve" smooth="yes"/>
      <point x="76" y="488" type="line"/>
      <point x="19" y="488" type="line"/>
      <point x="19" y="675" type="line"/>
    </contour>
    <contour>
      <point x="414" y="431" type="line"/>
      <point x="414" y="488" type="line"/>
      <point x="264" y="488" type="line"/>
      <point x="264" y="431" type="line"/>
    </contour>
  </outline>
</glyph>
<glyph name="Cacute" format="2">
  <advance width="625"/>
  <unicode hex="0106"/>
  <outline>
    <contour>
      <point x="476" y="869" type="line"/>
      <point x="254" y="745" type="line"/>
      <point x="185" y="839" type="line"/>
      <point x="371" y="1004" type="line"/>
    </contour>
    <contour>
      <point x="601" y="432" type="line"/>
      <point x="413" y="432" type="line"/>
      <point x="413" y="489" type="line"/>
      <point x="263" y="489" type="line"/>
      <point x="263" y="357" type="line" smooth="yes"/>
      <point x="263" y="308"/>
      <point x="295" y="245"/>
      <point x="348" y="208"/>
      <point x="418" y="191"/>
      <point x="482" y="187"/>
      <point x="509" y="187" type="qcurve" smooth="yes"/>
      <point x="520" y="187"/>
      <point x="568" y="188"/>
      <point x="601" y="188" type="qcurve"/>
      <point x="601" y="0" type="line"/>
      <point x="432" y="0" type="line" smooth="yes"/>
      <point x="358" y="0"/>
      <point x="228" y="56"/>
      <point x="131" y="153"/>
      <point x="75" y="283"/>
      <point x="75" y="357" type="qcurve" smooth="yes"/>
      <point x="75" y="470" type="line"/>
      <point x="19" y="470" type="line"/>
      <point x="19" y="676" type="line"/>
      <point x="601" y="676" type="line"/>
    </contour>
  </outline>
</glyph>
<glyph name="ccircumflex" format="2">
  <advance width="625"/>
  <unicode hex="0109"/>
  <outline>
    <contour>
      <point x="319" y="942" type="line"/>
      <point x="533" y="818" type="line"/>
      <point x="480" y="733" type="line"/>
      <point x="317" y="794" type="line"/>
      <point x="155" y="733" type="line"/>
      <point x="102" y="818" type="line"/>
    </contour>
    <contour>
      <point x="601" y="432" type="line"/>
      <point x="413" y="432" type="line"/>
      <point x="413" y="489" type="line"/>
      <point x="263" y="489" type="line"/>
      <point x="263" y="357" type="line" smooth="yes"/>
      <point x="263" y="308"/>
      <point x="295" y="245"/>
      <point x="348" y="208"/>
      <point x="418" y="191"/>
      <point x="482" y="187"/>
      <point x="509" y="187" type="qcurve" smooth="yes"/>
      <point x="520" y="187"/>
      <point x="568" y="188"/>
      <point x="601" y="188" type="qcurve"/>
      <point x="601" y="0" type="line"/>
      <point x="432" y="0" type="line" smooth="yes"/>
      <point x="358" y="0"/>
      <point x="228" y="56"/>
      <point x="131" y="153"/>
      <point x="75" y="283"/>
      <point x="75" y="357" type="qcurve" smooth="yes"/>
      <point x="75" y="470" type="line"/>
      <point x="19" y="470" type="line"/>
      <point x="19" y="676" type="line"/>
      <point x="601" y="676" type="line"/>
    </contour>
  </outline>
</glyph>
<glyph name="Cdotaccent" format="2">
  <advance width="625"/>
  <unicode hex="010A"/>
  <outline>
    <contour>
      <point x="214" y="834" type="qcurve" smooth="yes"/>
      <point x="214" y="872"/>
      <point x="267" y="926"/>
      <point x="305" y="926" type="qcurve" smooth="yes"/>
      <point x="343" y="926"/>
      <point x="396" y="872"/>
      <point x="396" y="834" type="qcurve" smooth="yes"/>
      <point x="396" y="796"/>
      <point x="343" y="744"/>
      <point x="305" y="744" type="qcurve" smooth="yes"/>
      <point x="267" y="744"/>
      <point x="214" y="796"/>
    </contour>
    <contour>
      <point x="601" y="432" type="line"/>
      <point x="413" y="432" type="line"/>
      <point x="413" y="489" type="line"/>
      <point x="263" y="489" type="line"/>
      <point x="263" y="357" type="line" smooth="yes"/>
      <point x="263" y="308"/>
      <point x="295" y="245"/>
      <point x="348" y="208"/>
      <point x="418" y="191"/>
      <point x="482" y="187"/>
      <point x="509" y="187" type="qcurve" smooth="yes"/>
      <point x="520" y="187"/>
      <point x="568" y="188"/>
      <point x="601" y="188" type="qcurve"/>
      <point x="601" y="0" type="line"/>
      <point x="432" y="0" type="line" smooth="yes"/>
      <point x="358" y="0"/>
      <point x="228" y="56"/>
      <point x="131" y="153"/>
      <point x="75" y="283"/>
      <point x="75" y="357" type="qcurve" smooth="yes"/>
      <point x="75" y="470" type="line"/>
      <point x="19" y="470" type="line"/>
      <point x="19" y="676" type="line"/>
      <point x="601" y="676" type="line"/>
    </contour>
  </outline>
</glyph>
<glyph name="Ccaron" format="2">
  <advance width="625"/>
  <unicode hex="010C"/>
  <outline>
    <contour>
      <point x="100" y="857" type="line"/>
      <point x="153" y="942" type="line"/>
      <point x="315" y="881" type="line"/>
      <point x="478" y="942" type="line"/>
      <point x="531" y="857" type="line"/>
      <point x="317" y="733" type="line"/>
    </contour>
    <contour>
      <point x="601" y="432" type="line"/>
      <point x="413" y="432" type="line"/>
      <point x="413" y="489" type="line"/>
      <point x="263" y="489" type="line"/>
      <point x="263" y="357" type="line" smooth="yes"/>
      <point x="263" y="308"/>
      <point x="295" y="245"/>
      <point x="348" y="208"/>
      <point x="418" y="191"/>
      <point x="482" y="187"/>
      <point x="509" y="187" type="qcurve" smooth="yes"/>
      <point x="520" y="187"/>
      <point x="568" y="188"/>
      <point x="601" y="188" type="qcurve"/>
      <point x="601" y="0" type="line"/>
      <point x="432" y="0" type="line" smooth="yes"/>
      <point x="358" y="0"/>
      <point x="228" y="56"/>
      <point x="131" y="153"/>
      <point x="75" y="283"/>
      <point x="75" y="357" type="qcurve" smooth="yes"/>
      <point x="75" y="470" type="line"/>
      <point x="19" y="470" type="line"/>
      <point x="19" y="676" type="line"/>
      <point x="601" y="676" type="line"/>
    </contour>
  </outline>
</glyph>
<glyph name="Dcaron" format="2">
  <advance width="619"/>
  <unicode hex="010E"/>
  <outline>
    <contour>
      <point x="89" y="857" type="line"/>
      <point x="142" y="942" type="line"/>
      <point x="304" y="881" type="line"/>
      <point x="467" y="942" type="line"/>
      <point x="520" y="857" type="line"/>
      <point x="306" y="733" type="line"/>
    </contour>
    <contour>
      <point x="600" y="244" type="line" smooth="yes"/>
      <point x="600" y="194"/>
      <point x="561" y="105"/>
      <point x="495" y="39"/>
      <point x="406" y="0"/>
      <point x="356" y="0" type="qcurve" smooth="yes"/>
      <point x="295" y="0" type="line"/>
      <point x="295" y="188" type="line"/>
      <point x="314" y="188"/>
      <point x="340" y="186"/>
      <point x="345" y="186" type="qcurve" smooth="yes"/>
      <point x="360" y="186"/>
      <point x="390" y="193"/>
      <point x="412" y="217"/>
      <point x="412" y="244" type="qcurve" smooth="yes"/>
      <point x="412" y="488" type="line"/>
      <point x="262" y="488" type="line"/>
      <point x="262" y="0" type="line"/>
      <point x="74" y="0" type="line"/>
      <point x="74" y="488" type="line"/>
      <point x="18" y="488" type="line"/>
      <point x="18" y="676" type="line"/>
      <point x="600" y="676" type="line"/>
    </contour>
  </outline>
</glyph>
<glyph name="Edotaccent" format="2">
  <advance width="620"/>
  <unicode hex="0116"/>
  <outline>
    <contour>
      <point x="214" y="834" type="qcurve" smooth="yes"/>
      <point x="214" y="872"/>
      <point x="267" y="926"/>
      <point x="305" y="926" type="qcurve" smooth="yes"/>
      <point x="343" y="926"/>
      <point x="396" y="872"/>
      <point x="396" y="834" type="qcurve" smooth="yes"/>
      <point x="396" y="796"/>
      <point x="343" y="744"/>
      <point x="305" y="744" type="qcurve" smooth="yes"/>
      <point x="267" y="744"/>
      <point x="214" y="796"/>
    </contour>
    <contour>
      <point x="75" y="244" type="qcurve"/>
      <point x="19" y="244" type="line"/>
      <point x="19" y="431" type="line"/>
      <point x="75" y="431" type="line"/>
      <point x="75" y="488" type="line"/>
      <point x="19" y="488" type="line"/>
      <point x="19" y="675" type="line"/>
      <point x="601" y="675" type="line"/>
      <point x="601" y="488" type="line"/>
      <point x="263" y="488" type="line"/>
      <point x="263" y="413" type="line"/>
      <point x="488" y="413" type="line"/>
      <point x="488" y="244" type="line"/>
      <point x="263" y="244" type="line"/>
      <point x="263" y="243"/>
      <point x="263" y="242" type="qcurve"/>
      <point x="263" y="187"/>
      <point x="319" y="187" type="qcurve" smooth="yes"/>
      <point x="601" y="187" type="line"/>
      <point x="601" y="0" type="line"/>
      <point x="319" y="0" type="line" smooth="yes"/>
      <point x="269" y="0"/>
      <point x="180" y="39"/>
      <point x="114" y="105"/>
      <point x="75" y="194"/>
    </contour>
  </outline>
</glyph>
<glyph name="Eogonek" format="2">
  <advance width="620"/>
  <unicode hex="0118"/>
  <outline>
    <contour>
      <point x="75" y="244" type="qcurve"/>
      <point x="19" y="244" type="line"/>
      <point x="19" y="431" type="line"/>
      <point x="75" y="431" type="line"/>
      <point x="75" y="488" type="line"/>
      <point x="19" y="488" type="line"/>
      <point x="19" y="675" type="line"/>
      <point x="601" y="675" type="line"/>
      <point x="601" y="488" type="line"/>
      <point x="263" y="488" type="line"/>
      <point x="263" y="413" type="line"/>
      <point x="488" y="413" type="line"/>
      <point x="488" y="244" type="line"/>
      <point x="263" y="244" type="line"/>
      <point x="263" y="243"/>
      <point x="263" y="242" type="qcurve"/>
      <point x="263" y="187"/>
      <point x="319" y="187" type="qcurve" smooth="yes"/>
      <point x="601" y="187" type="line"/>
      <point x="601" y="0" type="line"/>
      <point x="419" y="0" type="line"/>
      <point x="397" y="-28"/>
      <point x="382" y="-53" type="qcurve" smooth="yes"/>
      <point x="360" y="-87"/>
      <point x="360" y="-108" type="qcurve" smooth="yes"/>
      <point x="360" y="-123"/>
      <point x="370" y="-126" type="qcurve" smooth="yes"/>
      <point x="375" y="-128"/>
      <point x="389" y="-130"/>
      <point x="394" y="-130" type="qcurve" smooth="yes"/>
      <point x="398" y="-130"/>
      <point x="402" y="-129" type="qcurve" smooth="yes"/>
      <point x="410" y="-128"/>
      <point x="448" y="-116" type="qcurve"/>
      <point x="474" y="-152" type="line"/>
      <point x="426" y="-169"/>
      <point x="386" y="-179" type="qcurve"/>
      <point x="374" y="-181"/>
      <point x="348" y="-184"/>
      <point x="331" y="-184" type="qcurve" smooth="yes"/>
      <point x="309" y="-184"/>
      <point x="264" y="-176"/>
      <point x="248" y="-165" type="qcurve" smooth="yes"/>
      <point x="225" y="-149"/>
      <point x="225" y="-134" type="qcurve" smooth="yes"/>
      <point x="225" y="-118"/>
      <point x="255" y="-72"/>
      <point x="275" y="-51" type="qcurve" smooth="yes"/>
      <point x="287" y="-38"/>
      <point x="309" y="-19" type="qcurve" smooth="yes"/>
      <point x="318" y="-10"/>
      <point x="330" y="0" type="qcurve"/>
      <point x="319" y="0" type="line" smooth="yes"/>
      <point x="269" y="0"/>
      <point x="180" y="39"/>
      <point x="114" y="105"/>
      <point x="75" y="194"/>
    </contour>
  </outline>
</glyph>
<glyph name="ecaron" format="2">
  <advance width="620"/>
  <unicode hex="011B"/>
  <outline>
    <contour>
      <point x="93" y="857" type="line"/>
      <point x="146" y="942" type="line"/>
      <point x="308" y="881" type="line"/>
      <point x="471" y="942" type="line"/>
      <point x="524" y="857" type="line"/>
      <point x="310" y="733" type="line"/>
    </contour>
    <contour>
      <point x="75" y="244" type="qcurve"/>
      <point x="19" y="244" type="line"/>
      <point x="19" y="431" type="line"/>
      <point x="75" y="431" type="line"/>
      <point x="75" y="488" type="line"/>
      <point x="19" y="488" type="line"/>
      <point x="19" y="675" type="line"/>
      <point x="601" y="675" type="line"/>
      <point x="601" y="488" type="line"/>
      <point x="263" y="488" type="line"/>
      <point x="263" y="413" type="line"/>
      <point x="488" y="413" type="line"/>
      <point x="488" y="244" type="line"/>
      <point x="263" y="244" type="line"/>
      <point x="263" y="243"/>
      <point x="263" y="242" type="qcurve"/>
      <point x="263" y="187"/>
      <point x="319" y="187" type="qcurve" smooth="yes"/>
      <point x="601" y="187" type="line"/>
      <point x="601" y="0" type="line"/>
      <point x="319" y="0" type="line" smooth="yes"/>
      <point x="269" y="0"/>
      <point x="180" y="39"/>
      <point x="114" y="105"/>
      <point x="75" y="194"/>
    </contour>
  </outline>
</glyph>
<glyph name="Gcircumflex" format="2">
  <advance width="620"/>
  <unicode hex="011C"/>
  <outline>
    <contour>
      <point x="316" y="942" type="line"/>
      <point x="530" y="818" type="line"/>
      <point x="477" y="733" type="line"/>
      <point x="314" y="794" type="line"/>
      <point x="152" y="733" type="line"/>
      <point x="99" y="818" type="line"/>
    </contour>
    <contour>
      <point x="601" y="413" type="line"/>
      <point x="601" y="0" type="line"/>
      <point x="432" y="0" type="line" smooth="yes"/>
      <point x="358" y="0"/>
      <point x="228" y="56"/>
      <point x="131" y="153"/>
      <point x="75" y="283"/>
      <point x="75" y="357" type="qcurve" smooth="yes"/>
      <point x="75" y="470" type="line"/>
      <point x="19" y="470" type="line"/>
      <point x="19" y="676" type="line"/>
      <point x="601" y="676" type="line"/>
      <point x="601" y="451" type="line"/>
      <point x="413" y="451" type="line"/>
      <point x="413" y="488" type="line"/>
      <point x="263" y="488" type="line"/>
      <point x="263" y="357" type="line" smooth="yes"/>
      <point x="263" y="325"/>
      <point x="286" y="267"/>
      <point x="326" y="222"/>
      <point x="381" y="193"/>
      <point x="413" y="189" type="qcurve"/>
      <point x="413" y="244" type="line"/>
      <point x="357" y="244" type="line"/>
      <point x="357" y="413" type="line"/>
    </contour>
  </outline>
</glyph>
<glyph name="gdotaccent" format="2">
  <advance width="620"/>
  <unicode hex="0121"/>
  <outline>
    <contour>
      <point x="214" y="834" type="qcurve" smooth="yes"/>
      <point x="214" y="872"/>
      <point x="267" y="926"/>
      <point x="305" y="926" type="qcurve" smooth="yes"/>
      <point x="343" y="926"/>
      <point x="396" y="872"/>
      <point x="396" y="834" type="qcurve" smooth="yes"/>
      <point x="396" y="796"/>
      <point x="343" y="744"/>
      <point x="305" y="744" type="qcurve" smooth="yes"/>
      <point x="267" y="744"/>
      <point x="214" y="796"/>
    </contour>
    <contour>
      <point x="601" y="413" type="line"/>
      <point x="601" y="0" type="line"/>
      <point x="432" y="0" type="line" smooth="yes"/>
      <point x="358" y="0"/>
      <point x="228" y="56"/>
      <point x="131" y="153"/>
      <point x="75" y="283"/>
      <point x="75" y="357" type="qcurve" smooth="yes"/>
      <point x="75" y="470" type="line"/>
      <point x="19" y="470" type="line"/>
      <point x="19" y="676" type="line"/>
      <point x="601" y="676" type="line"/>
      <point x="601" y="451" type="line"/>
      <point x="413" y="451" type="line"/>
      <point x="413" y="488" type="line"/>
      <point x="263" y="488" type="line"/>
      <point x="263" y="357" type="line" smooth="yes"/>
      <point x="263" y="325"/>
      <point x="286" y="267"/>
      <point x="326" y="222"/>
      <point x="381" y="193"/>
      <point x="413" y="189" type="qcurve"/>
      <point x="413" y="244" type="line"/>
      <point x="357" y="244" type="line"/>
      <point x="357" y="413" type="line"/>
    </contour>
  </outline>
</glyph>
<glyph name="Hcircumflex" format="2">
  <advance width="673"/>
  <unicode hex="0124"/>
  <outline>
    <contour>
      <point x="326" y="942" type="line"/>
      <point x="540" y="818" type="line"/>
      <point x="487" y="733" type="line"/>
      <point x="324" y="794" type="line"/>
      <point x="162" y="733" type="line"/>
      <point x="109" y="818" type="line"/>
    </contour>
    <contour>
      <point x="657" y="188" type="line"/>
      <point x="657" y="0" type="line"/>
      <point x="582" y="0" type="line" smooth="yes"/>
      <point x="547" y="0"/>
      <point x="486" y="27"/>
      <point x="440" y="73"/>
      <point x="413" y="134"/>
      <point x="413" y="169" type="qcurve" smooth="yes"/>
      <point x="413" y="244" type="line"/>
      <point x="262" y="244" type="line"/>
      <point x="262" y="0" type="line"/>
      <point x="75" y="0" type="line"/>
      <point x="75" y="244" type="line"/>
      <point x="18" y="244" type="line"/>
      <point x="18" y="432" type="line"/>
      <point x="75" y="432" type="line"/>
      <point x="75" y="676" type="line"/>
      <point x="262" y="676" type="line"/>
      <point x="262" y="432" type="line"/>
      <point x="413" y="432" type="line"/>
      <point x="413" y="676" type="line"/>
      <point x="600" y="676" type="line"/>
      <point x="600" y="225" type="line" smooth="yes"/>
      <point x="600" y="210"/>
      <point x="609" y="195"/>
      <point x="625" y="188"/>
      <point x="636" y="188" type="qcurve"/>
      <point x="637" y="188" type="line"/>
      <point x="638" y="188"/>
      <point x="639" y="188" type="qcurve"/>
      <point x="640" y="188" type="line"/>
      <point x="641" y="188"/>
      <point x="641" y="188" type="qcurve"/>
      <point x="642" y="188" type="line"/>
      <point x="642" y="188"/>
      <point x="642" y="188" type="qcurve"/>
      <point x="644" y="188" type="line"/>
      <point x="644" y="188"/>
      <point x="645" y="188" type="qcurve"/>
      <point x="646" y="188"/>
      <point x="646" y="188" type="qcurve"/>
      <point x="654" y="188" type="line"/>
      <point x="654" y="188"/>
      <point x="654" y="188" type="qcurve"/>
    </contour>
  </outline>
</glyph>
<glyph name="Hbar" format="2">
  <advance width="673"/>
  <unicode hex="0126"/>
  <outline>
    <contour>
      <point x="657" y="188" type="line"/>
      <point x="657" y="0" type="line"/>
      <point x="582" y="0" type="line" smooth="yes"/>
      <point x="547" y="0"/>
      <point x="486" y="27"/>
      <point x="440" y="73"/>
      <point x="413" y="134"/>
      <point x="413" y="169" type="qcurve" smooth="yes"/>
      <point x="413" y="244" type="line"/>
      <point x="262" y="244" type="line"/>
      <point x="262" y="0" type="line"/>
      <point x="75" y="0" type="line"/>
      <point x="75" y="244" type="line"/>
      <point x="18" y="244" type="line"/>
      <point x="18" y="432" type="line"/>
      <point x="75" y="432" type="line"/>
      <point x="75" y="468" type="line"/>
      <point x="15" y="468" type="line"/>
      <point x="15" y="622" type="line"/>
      <point x="75" y="622" type="line"/>
      <point x="75" y="676" type="line"/>
      <point x="262" y="676" type="line"/>
      <point x="262" y="622" type="line"/>
      <point x="413" y="622" type="line"/>
      <point x="413" y="676" type="line"/>
      <point x="600" y="676" type="line"/>
      <point x="600" y="622" type="line"/>
      <point x="651" y="622" type="line"/>
      <point x="651" y="468" type="line"/>
      <point x="600" y="468" type="line"/>
      <point x="600" y="225" type="line" smooth="yes"/>
      <point x="600" y="210"/>
      <point x="609" y="195"/>
      <point x="625" y="188"/>
      <point x="636" y="188" type="qcurve"/>
      <point x="637" y="188" type="line"/>
      <point x="638" y="188"/>
      <point x="639" y="188" type="qcurve"/>
      <point x="640" y="188" type="line"/>
      <point x="641" y="188"/>
      <point x="641" y="188" type="qcurve"/>
      <point x="642" y="188" type="line"/>
      <point x="642" y="188"/>
      <point x="642" y="188" type="qcurve"/>
      <point x="644" y="188" type="line"/>
      <point x="644" y="188"/>
      <point x="645" y="188" type="qcurve"/>
      <point x="646" y="188"/>
      <point x="646" y="188" type="qcurve"/>
      <point x="654" y="188" type="line"/>
      <point x="654" y="188"/>
      <point x="654" y="188" type="qcurve"/>
    </contour>
    <contour>
      <point x="262" y="432" type="line"/>
      <point x="413" y="432" type="line"/>
      <point x="413" y="468" type="line"/>
      <point x="262" y="468" type="line"/>
    </contour>
  </outline>
</glyph>
<glyph name="iogonek" format="2">
  <advance width="285"/>
  <unicode hex="012F"/>
  <outline>
    <contour>
      <point x="274" y="-152" type="line"/>
      <point x="226" y="-169"/>
      <point x="186" y="-179" type="qcurve"/>
      <point x="174" y="-181"/>
      <point x="148" y="-184"/>
      <point x="131" y="-184" type="qcurve" smooth="yes"/>
      <point x="109" y="-184"/>
      <point x="64" y="-176"/>
      <point x="48" y="-165" type="qcurve" smooth="yes"/>
      <point x="25" y="-149"/>
      <point x="25" y="-134" type="qcurve" smooth="yes"/>
      <point x="25" y="-118"/>
      <point x="55" y="-72"/>
      <point x="75" y="-51" type="qcurve" smooth="yes"/>
      <point x="83" y="-42"/>
      <point x="122" y="2" type="qcurve"/>
      <point x="109" y="0"/>
      <point x="96" y="0" type="qcurve" smooth="yes"/>
      <point x="21" y="0" type="line"/>
      <point x="21" y="188" type="line"/>
      <point x="32" y="188"/>
      <point x="53" y="189"/>
      <point x="68" y="195"/>
      <point x="77" y="210"/>
      <point x="77" y="225" type="qcurve" smooth="yes"/>
      <point x="77" y="676" type="line"/>
      <point x="265" y="676" type="line"/>
      <point x="265" y="169" type="line" smooth="yes"/>
      <point x="265" y="134"/>
      <point x="238" y="73"/>
      <point x="215" y="50" type="qcurve" smooth="yes"/>
      <point x="211" y="46" type="line"/>
      <point x="211" y="46"/>
      <point x="211" y="46" type="qcurve"/>
      <point x="205" y="40" type="line"/>
      <point x="160" y="-87"/>
      <point x="160" y="-108" type="qcurve" smooth="yes"/>
      <point x="160" y="-123"/>
      <point x="170" y="-126" type="qcurve" smooth="yes"/>
      <point x="175" y="-128"/>
      <point x="189" y="-130"/>
      <point x="194" y="-130" type="qcurve" smooth="yes"/>
      <point x="198" y="-130"/>
      <point x="202" y="-129" type="qcurve" smooth="yes"/>
      <point x="210" y="-128"/>
      <point x="248" y="-116" type="qcurve"/>
    </contour>
  </outline>
</glyph>
<glyph name="Idotaccent" format="2">
  <advance width="285"/>
  <unicode hex="0130"/>
  <outline>
    <contour>
      <point x="84" y="834" type="qcurve" smooth="yes"/>
      <point x="84" y="872"/>
      <point x="137" y="926"/>
      <point x="175" y="926" type="qcurve" smooth="yes"/>
      <point x="213" y="926"/>
      <point x="266" y="872"/>
      <point x="266" y="834" type="qcurve" smooth="yes"/>
      <point x="266" y="796"/>
      <point x="213" y="744"/>
      <point x="175" y="744" type="qcurve" smooth="yes"/>
      <point x="137" y="744"/>
      <point x="84" y="796"/>
    </contour>
    <contour>
      <point x="265" y="676" type="line"/>
      <point x="265" y="169" type="line" smooth="yes"/>
      <point x="265" y="134"/>
      <point x="238" y="73"/>
      <point x="192" y="27"/>
      <point x="131" y="0"/>
      <point x="96" y="0" type="qcurve" smooth="yes"/>
      <point x="21" y="0" type="line"/>
      <point x="21" y="188" type="line"/>
      <point x="32" y="188"/>
      <point x="53" y="189"/>
      <point x="68" y="195"/>
      <point x="77" y="210"/>
      <point x="77" y="225" type="qcurve" smooth="yes"/>
      <point x="77" y="676" type="line"/>
    </contour>
  </outline>
</glyph>
<glyph name="Lacute" format="2">
  <advance width="620"/>
  <unicode hex="0139"/>
  <outline>
    <contour>
      <point x="418" y="824" type="line"/>
      <point x="208" y="730" type="line"/>
      <point x="147" y="814" type="line"/>
      <point x="322" y="969" type="line"/>
    </contour>
    <contour>
      <point x="601" y="169" type="line" smooth="yes"/>
      <point x="601" y="134"/>
      <point x="574" y="73"/>
      <point x="528" y="27"/>
      <point x="467" y="0"/>
      <point x="432" y="0" type="qcurve" smooth="yes"/>
      <point x="19" y="0" type="line"/>
      <point x="19" y="188" type="line"/>
      <point x="75" y="188" type="line"/>
      <point x="75" y="676" type="line"/>
      <point x="263" y="676" type="line"/>
      <point x="263" y="188" type="line"/>
      <point x="375" y="188" type="line" smooth="yes"/>
      <point x="390" y="188"/>
      <point x="406" y="197"/>
      <point x="412" y="212"/>
      <point x="413" y="232"/>
      <point x="413" y="244" type="qcurve"/>
      <point x="601" y="244" type="line"/>
    </contour>
  </outline>
</glyph>
<glyph name="ldot" format="2">
  <advance width="620"/>
  <unicode hex="0140"/>
  <outline>
    <contour>
      <point x="601" y="169" type="line" smooth="yes"/>
      <point x="601" y="134"/>
      <point x="574" y="73"/>
      <point x="528" y="27"/>
      <point x="467" y="0"/>
      <point x="432" y="0" type="qcurve" smooth="yes"/>
      <point x="19" y="0" type="line"/>
      <point x="19" y="188" type="line"/>
      <point x="75" y="188" type="line"/>
      <point x="75" y="676" type="line"/>
      <point x="263" y="676" type="line"/>
      <point x="263" y="188" type="line"/>
      <point x="375" y="188" type="line" smooth="yes"/>
      <point x="390" y="188"/>
      <point x="406" y="197"/>
      <point x="412" y="212"/>
      <point x="413" y="232"/>
      <point x="413" y="244" type="qcurve"/>
      <point x="601" y="244" type="line"/>
    </contour>
    <contour>
      <point x="423" y="413" type="qcurve" smooth="yes"/>
      <point x="423" y="451"/>
      <point x="476" y="505"/>
      <point x="514" y="505" type="qcurve" smooth="yes"/>
      <point x="552" y="505"/>
      <point x="605" y="451"/>
      <point x="605" y="413" type="qcurve" smooth="yes"/>
      <point x="605" y="375"/>
      <point x="552" y="323"/>
      <point x="514" y="323" type="qcurve" smooth="yes"/>
      <point x="476" y="323"/>
      <point x="423" y="375"/>
    </contour>
  </outline>
</glyph>
<glyph name="OE" format="2">
  <advance width="906"/>
  <unicode hex="0152"/>
  <outline>
    <contour>
      <point x="23" y="0" type="line"/>
      <point x="23" y="676" type="line"/>
      <point x="887" y="675" type="line"/>
      <point x="887" y="488" type="line"/>
      <point x="549" y="488" type="line"/>
      <point x="549" y="413" type="line"/>
      <point x="774" y="413" type="line"/>
      <point x="774" y="244" type="line"/>
      <point x="549" y="244" type="line"/>
      <point x="549" y="188" type="line"/>
      <point x="887" y="187" type="line"/>
      <point x="887" y="0" type="line"/>
    </contour>
    <contour>
      <point x="361" y="188" type="line"/>
      <point x="361" y="488" type="line"/>
      <point x="211" y="488" type="line"/>
      <point x="211" y="188" type="line"/>
    </contour>
  </outline>
</glyph>
<glyph name="scircumflex" format="2">
  <advance width="561"/>
  <unicode hex="015D"/>
  <outline>
    <contour>
      <point x="281" y="942" type="line"/>
      <point x="495" y="818" type="line"/>
      <point x="442" y="733" type="line"/>
      <point x="279" y="794" type="line"/>
      <point x="117" y="733" type="line"/>
      <point x="64" y="818" type="line"/>
    </contour>
    <contour>
      <point x="20" y="244" type="line"/>
      <point x="20" y="432" type="line" smooth="yes"/>
      <point x="20" y="482"/>
      <point x="59" y="571"/>
      <point x="125" y="637"/>
      <point x="214" y="676"/>
      <point x="264" y="676" type="qcurve" smooth="yes"/>
      <point x="546" y="676" type="line"/>
      <point x="546" y="489" type="line"/>
      <point x="358" y="489" type="line" smooth="yes"/>
      <point x="326" y="489"/>
      <point x="289" y="492"/>
      <point x="280" y="492" type="qcurve" smooth="yes"/>
      <point x="264" y="492"/>
      <point x="231" y="485"/>
      <point x="208" y="452"/>
      <point x="208" y="413" type="qcurve"/>
      <point x="546" y="413" type="line"/>
      <point x="546" y="244" type="line" smooth="yes"/>
      <point x="546" y="194"/>
      <point x="507" y="105"/>
      <point x="441" y="39"/>
      <point x="352" y="0"/>
      <point x="302" y="0" type="qcurve" smooth="yes"/>
      <point x="20" y="0" type="line"/>
      <point x="20" y="188" type="line"/>
      <point x="264" y="188" type="line" smooth="yes"/>
      <point x="281" y="188"/>
      <point x="300" y="187"/>
      <point x="301" y="187" type="qcurve"/>
      <point x="316" y="187"/>
      <point x="342" y="196"/>
      <point x="358" y="220"/>
      <point x="358" y="244" type="qcurve"/>
    </contour>
  </outline>
</glyph>
<glyph name="uni0163" format="2">
  <advance width="563"/>
  <unicode hex="0163"/>
  <outline>
    <contour>
      <point x="369" y="33" type="line"/>
      <point x="348" y="-54" type="line"/>
      <point x="358" y="-56" type="line"/>
      <point x="374" y="-60"/>
      <point x="406" y="-72"/>
      <point x="419" y="-81" type="qcurve"/>
      <point x="430" y="-91"/>
      <point x="446" y="-117"/>
      <point x="446" y="-128" type="qcurve" smooth="yes"/>
      <point x="446" y="-147"/>
      <point x="410" y="-180"/>
      <point x="364" y="-188" type="qcurve"/>
      <point x="365" y="-188" type="line"/>
      <point x="355" y="-190"/>
      <point x="224" y="-214" type="qcurve"/>
      <point x="239" y="-167" type="line"/>
      <point x="302" y="-145"/>
      <point x="333" y="-132"/>
      <point x="333" y="-123" type="qcurve" smooth="yes"/>
      <point x="333" y="-115"/>
      <point x="308" y="-101"/>
      <point x="282" y="-91"/>
      <point x="254" y="-85"/>
      <point x="244" y="-84" type="qcurve"/>
      <point x="275" y="33" type="line"/>
    </contour>
    <contour>
      <point x="375" y="226" type="line" smooth="yes"/>
      <point x="375" y="211"/>
      <point x="384" y="195"/>
      <point x="399" y="188"/>
      <point x="409" y="188" type="qcurve"/>
      <point x="411" y="188" type="line"/>
      <point x="412" y="188"/>
      <point x="413" y="188" type="qcurve"/>
      <point x="414" y="188"/>
      <point x="415" y="188" type="qcurve"/>
      <point x="416" y="188"/>
      <point x="416" y="188" type="qcurve"/>
      <point x="417" y="188" type="line"/>
      <point x="418" y="188"/>
      <point x="418" y="188" type="qcurve"/>
      <point x="419" y="188" type="line"/>
      <point x="419" y="188"/>
      <point x="419" y="188" type="qcurve"/>
      <point x="427" y="188" type="line"/>
      <point x="428" y="188"/>
      <point x="428" y="188" type="qcurve"/>
      <point x="431" y="188" type="line"/>
      <point x="431" y="0" type="line"/>
      <point x="356" y="0" type="line" smooth="yes"/>
      <point x="321" y="0"/>
      <point x="260" y="27"/>
      <point x="214" y="73"/>
      <point x="187" y="134"/>
      <point x="187" y="169" type="qcurve" smooth="yes"/>
      <point x="187" y="488" type="line"/>
      <point x="18" y="488" type="line"/>
      <point x="18" y="676" type="line"/>
      <point x="543" y="676" type="line"/>
      <point x="543" y="488" type="line"/>
      <point x="375" y="488" type="line"/>
    </contour>
  </outline>
</glyph>
<glyph name="Tcaron" format="2">
  <advance width="561"/>
  <unicode hex="0164"/>
  <outline>
    <contour>
      <point x="63" y="857" type="line"/>
      <point x="116" y="942" type="line"/>
      <point x="278" y="881" type="line"/>
      <point x="441" y="942" type="line"/>
      <point x="494" y="857" type="line"/>
      <point x="280" y="733" type="line"/>
    </contour>
    <contour>
      <point x="375" y="226" type="line" smooth="yes"/>
      <point x="375" y="211"/>
      <point x="384" y="195"/>
      <point x="399" y="188"/>
      <point x="409" y="188" type="qcurve"/>
      <point x="411" y="188" type="line"/>
      <point x="412" y="188"/>
      <point x="413" y="188" type="qcurve"/>
      <point x="414" y="188"/>
      <point x="415" y="188" type="qcurve"/>
      <point x="416" y="188"/>
      <point x="416" y="188" type="qcurve"/>
      <point x="417" y="188" type="line"/>
      <point x="418" y="188"/>
      <point x="418" y="188" type="qcurve"/>
      <point x="419" y="188" type="line"/>
      <point x="419" y="188"/>
      <point x="419" y="188" type="qcurve"/>
      <point x="427" y="188" type="line"/>
      <point x="428" y="188"/>
      <point x="428" y="188" type="qcurve"/>
      <point x="431" y="188" type="line"/>
      <point x="431" y="0" type="line"/>
      <point x="356" y="0" type="line" smooth="yes"/>
      <point x="321" y="0"/>
      <point x="260" y="27"/>
      <point x="214" y="73"/>
      <point x="187" y="134"/>
      <point x="187" y="169" type="qcurve" smooth="yes"/>
      <point x="187" y="488" type="line"/>
      <point x="18" y="488" type="line"/>
      <point x="18" y="676" type="line"/>
      <point x="543" y="676" type="line"/>
      <point x="543" y="488" type="line"/>
      <point x="375" y="488" type="line"/>
    </contour>
  </outline>
</glyph>
<glyph name="Tbar" format="2">
  <advance width="561"/>
  <unicode hex="0166"/>
  <outline>
    <contour>
      <point x="375" y="226" type="line" smooth="yes"/>
      <point x="375" y="211"/>
      <point x="384" y="195"/>
      <point x="399" y="188"/>
      <point x="409" y="188" type="qcurve"/>
      <point x="411" y="188" type="line"/>
      <point x="412" y="188"/>
      <point x="413" y="188" type="qcurve"/>
      <point x="414" y="188"/>
      <point x="415" y="188" type="qcurve"/>
      <point x="416" y="188"/>
      <point x="416" y="188" type="qcurve"/>
      <point x="417" y="188" type="line"/>
      <point x="418" y="188"/>
      <point x="418" y="188" type="qcurve"/>
      <point x="419" y="188" type="line"/>
      <point x="419" y="188"/>
      <point x="419" y="188" type="qcurve"/>
      <point x="427" y="188" type="line"/>
      <point x="428" y="188"/>
      <point x="428" y="188" type="qcurve"/>
      <point x="431" y="188" type="line"/>
      <point x="431" y="0" type="line"/>
      <point x="356" y="0" type="line" smooth="yes"/>
      <point x="321" y="0"/>
      <point x="260" y="27"/>
      <point x="214" y="73"/>
      <point x="187" y="134"/>
      <point x="187" y="169" type="qcurve" smooth="yes"/>
      <point x="187" y="254" type="line"/>
      <point x="104" y="254" type="line"/>
      <point x="104" y="408" type="line"/>
      <point x="187" y="408" type="line"/>
      <point x="187" y="488" type="line"/>
      <point x="18" y="488" type="line"/>
      <point x="18" y="676" type="line"/>
      <point x="543" y="676" type="line"/>
      <point x="543" y="488" type="line"/>
      <point x="375" y="488" type="line"/>
      <point x="375" y="408" type="line"/>
      <point x="458" y="408" type="line"/>
      <point x="458" y="254" type="line"/>
      <point x="375" y="254" type="line"/>
    </contour>
  </outline>
</glyph>
<glyph name="uogonek" format="2">
  <advance width="622"/>
  <unicode hex="0173"/>
  <outline>
    <contour>
      <point x="601" y="0" type="line"/>
      <point x="526" y="0" type="line"/>
      <point x="504" y="-28"/>
      <point x="489" y="-53" type="qcurve" smooth="yes"/>
      <point x="467" y="-87"/>
      <point x="467" y="-108" type="qcurve" smooth="yes"/>
      <point x="467" y="-123"/>
      <point x="477" y="-126" type="qcurve" smooth="yes"/>
      <point x="482" y="-128"/>
      <point x="496" y="-130"/>
      <point x="501" y="-130" type="qcurve" smooth="yes"/>
      <point x="505" y="-130"/>
      <point x="509" y="-129" type="qcurve" smooth="yes"/>
      <point x="517" y="-128"/>
      <point x="555" y="-116" type="qcurve"/>
      <point x="581" y="-152" type="line"/>
      <point x="533" y="-169"/>
      <point x="493" y="-179" type="qcurve"/>
      <point x="481" y="-181"/>
      <point x="455" y="-184"/>
      <point x="438" y="-184" type="qcurve" smooth="yes"/>
      <point x="416" y="-184"/>
      <point x="371" y="-176"/>
      <point x="355" y="-165" type="qcurve" smooth="yes"/>
      <point x="332" y="-149"/>
      <point x="332" y="-134" type="qcurve" smooth="yes"/>
      <point x="332" y="-118"/>
      <point x="362" y="-72"/>
      <point x="382" y="-51" type="qcurve" smooth="yes"/>
      <point x="394" y="-38"/>
      <point x="416" y="-19" type="qcurve" smooth="yes"/>
      <point x="425" y="-10"/>
      <point x="437" y="0" type="qcurve"/>
      <point x="432" y="0" type="line" smooth="yes"/>
      <point x="358" y="0"/>
      <point x="228" y="56"/>
      <point x="131" y="153"/>
      <point x="75" y="283"/>
      <point x="75" y="357" type="qcurve" smooth="yes"/>
      <point x="75" y="469" type="line"/>
      <point x="19" y="469" type="line"/>
      <point x="19" y="676" type="line"/>
      <point x="263" y="676" type="line"/>
      <point x="263" y="485" type="line"/>
      <point x="263" y="484"/>
      <point x="263" y="482" type="qcurve"/>
      <point x="263" y="463" type="line"/>
      <point x="263" y="461"/>
      <point x="263" y="460" type="qcurve"/>
      <point x="263" y="445" type="line"/>
      <point x="263" y="444"/>
      <point x="263" y="442" type="qcurve"/>
      <point x="263" y="393" type="line" smooth="yes"/>
      <point x="263" y="343"/>
      <point x="288" y="257"/>
      <point x="350" y="196"/>
      <point x="413" y="189" type="qcurve"/>
      <point x="413" y="676" type="line"/>
      <point x="601" y="676" type="line"/>
    </contour>
  </outline>
</glyph>
<glyph name="wcircumflex" format="2">
  <advance width="789"/>
  <unicode hex="0175"/>
  <outline>
    <contour>
      <point x="400" y="942" type="line"/>
      <point x="614" y="818" type="line"/>
      <point x="561" y="733" type="line"/>
      <point x="398" y="794" type="line"/>
      <point x="236" y="733" type="line"/>
      <point x="183" y="818" type="line"/>
    </contour>
    <contour>
      <point x="771" y="676" type="line"/>
      <point x="771" y="488" type="line"/>
      <point x="770" y="488" type="line"/>
      <point x="769" y="488"/>
      <point x="767" y="488" type="qcurve"/>
      <point x="765" y="488" type="line"/>
      <point x="765" y="488"/>
      <point x="764" y="488" type="qcurve"/>
      <point x="762" y="488" type="line"/>
      <point x="762" y="488"/>
      <point x="762" y="488" type="qcurve"/>
      <point x="761" y="488" type="line"/>
      <point x="761" y="488"/>
      <point x="760" y="488" type="qcurve"/>
      <point x="758" y="488" type="line"/>
      <point x="757" y="488"/>
      <point x="757" y="488" type="qcurve"/>
      <point x="752" y="488" type="line"/>
      <point x="752" y="488"/>
      <point x="752" y="488" type="qcurve"/>
      <point x="750" y="488" type="line"/>
      <point x="739" y="488"/>
      <point x="724" y="481"/>
      <point x="715" y="466"/>
      <point x="715" y="451" type="qcurve" smooth="yes"/>
      <point x="715" y="188" type="line"/>
      <point x="771" y="188" type="line"/>
      <point x="771" y="0" type="line"/>
      <point x="489" y="0" type="line"/>
      <point x="489" y="-38" type="line"/>
      <point x="301" y="-38" type="line"/>
      <point x="301" y="0" type="line"/>
      <point x="20" y="0" type="line"/>
      <point x="20" y="188" type="line"/>
      <point x="76" y="188" type="line"/>
      <point x="76" y="451" type="line" smooth="yes"/>
      <point x="76" y="466"/>
      <point x="67" y="481"/>
      <point x="52" y="488"/>
      <point x="42" y="488" type="qcurve"/>
      <point x="41" y="488" type="line"/>
      <point x="39" y="488"/>
      <point x="38" y="488" type="qcurve"/>
      <point x="36" y="488" type="line"/>
      <point x="35" y="488"/>
      <point x="35" y="488" type="qcurve"/>
      <point x="33" y="488" type="line"/>
      <point x="33" y="488"/>
      <point x="32" y="488" type="qcurve"/>
      <point x="31" y="488"/>
      <point x="31" y="488" type="qcurve"/>
      <point x="28" y="488" type="line"/>
      <point x="28" y="488"/>
      <point x="28" y="488" type="qcurve"/>
      <point x="23" y="488" type="line"/>
      <point x="23" y="488"/>
      <point x="22" y="488" type="qcurve"/>
      <point x="20" y="488" type="line"/>
      <point x="20" y="676" type="line"/>
      <point x="76" y="676" type="line" smooth="yes"/>
      <point x="138" y="676"/>
      <point x="213" y="639"/>
      <point x="252" y="573"/>
      <point x="264" y="484"/>
      <point x="264" y="432" type="qcurve" smooth="yes"/>
      <point x="264" y="188" type="line"/>
      <point x="301" y="188" type="line"/>
      <point x="301" y="432" type="line"/>
      <point x="489" y="432" type="line"/>
      <point x="489" y="188" type="line"/>
      <point x="527" y="188" type="line"/>
      <point x="527" y="432" type="line" smooth="yes"/>
      <point x="527" y="492"/>
      <point x="542" y="583"/>
      <point x="586" y="644"/>
      <point x="667" y="676"/>
      <point x="733" y="676" type="qcurve" smooth="yes"/>
    </contour>
  </outline>
</glyph>
<glyph name="ycircumflex" format="2">
  <advance width="617"/>
  <unicode hex="0177"/>
  <outline>
    <contour>
      <point x="299" y="942" type="line"/>
      <point x="513" y="818" type="line"/>
      <point x="460" y="733" type="line"/>
      <point x="297" y="794" type="line"/>
      <point x="135" y="733" type="line"/>
      <point x="82" y="818" type="line"/>
    </contour>
    <contour>
      <point x="600" y="413" type="line"/>
      <point x="600" y="244" type="line"/>
      <point x="544" y="244" type="line"/>
      <point x="544" y="194"/>
      <point x="505" y="105"/>
      <point x="439" y="39"/>
      <point x="350" y="0"/>
      <point x="300" y="0" type="qcurve" smooth="yes"/>
      <point x="131" y="0" type="line"/>
      <point x="131" y="188" type="line"/>
      <point x="300" y="188" type="line" smooth="yes"/>
      <point x="356" y="188"/>
      <point x="356" y="242" type="qcurve"/>
      <point x="356" y="243"/>
      <point x="356" y="244" type="qcurve"/>
      <point x="329" y="244"/>
      <point x="258" y="239"/>
      <point x="183" y="239"/>
      <point x="110" y="249"/>
      <point x="53" y="277"/>
      <point x="18" y="328"/>
      <point x="18" y="370" type="qcurve" smooth="yes"/>
      <point x="18" y="676" type="line"/>
      <point x="206" y="676" type="line"/>
      <point x="206" y="413" type="line"/>
      <point x="356" y="413" type="line"/>
      <point x="356" y="676" type="line"/>
      <point x="544" y="676" type="line"/>
      <point x="544" y="413" type="line"/>
    </contour>
  </outline>
</glyph>
<glyph name="zcaron" format="2">
  <advance width="634"/>
  <unicode hex="017E"/>
  <outline>
    <contour>
      <point x="89" y="857" type="line"/>
      <point x="142" y="942" type="line"/>
      <point x="304" y="881" type="line"/>
      <point x="467" y="942" type="line"/>
      <point x="520" y="857" type="line"/>
      <point x="306" y="733" type="line"/>
    </contour>
    <contour>
      <point x="618" y="169" type="line" smooth="yes"/>
      <point x="618" y="134"/>
      <point x="591" y="73"/>
      <point x="545" y="27"/>
      <point x="484" y="0"/>
      <point x="449" y="0" type="qcurve" smooth="yes"/>
      <point x="17" y="0" type="line"/>
      <point x="309" y="488" type="line"/>
      <point x="242" y="488" type="line" smooth="yes"/>
      <point x="227" y="488"/>
      <point x="212" y="479"/>
      <point x="205" y="463"/>
      <point x="205" y="453" type="qcurve"/>
      <point x="205" y="451" type="line"/>
      <point x="205" y="450"/>
      <point x="205" y="450" type="qcurve"/>
      <point x="205" y="448" type="line"/>
      <point x="205" y="448"/>
      <point x="205" y="447" type="qcurve"/>
      <point x="205" y="446"/>
      <point x="205" y="446" type="qcurve"/>
      <point x="205" y="445" type="line"/>
      <point x="205" y="445"/>
      <point x="205" y="445" type="qcurve"/>
      <point x="205" y="443" type="line"/>
      <point x="205" y="442"/>
      <point x="205" y="442" type="qcurve"/>
      <point x="205" y="431" type="line"/>
      <point x="17" y="431" type="line"/>
      <point x="17" y="507" type="line" smooth="yes"/>
      <point x="17" y="542"/>
      <point x="44" y="603"/>
      <point x="90" y="649"/>
      <point x="151" y="676"/>
      <point x="186" y="676" type="qcurve" smooth="yes"/>
      <point x="618" y="676" type="line"/>
      <point x="326" y="187" type="line"/>
      <point x="393" y="187" type="line" smooth="yes"/>
      <point x="408" y="187"/>
      <point x="423" y="196"/>
      <point x="430" y="212"/>
      <point x="430" y="223" type="qcurve"/>
      <point x="430" y="223"/>
      <point x="430" y="224" type="qcurve"/>
      <point x="430" y="225"/>
      <point x="430" y="225" type="qcurve"/>
      <point x="430" y="227" type="line"/>
      <point x="430" y="228"/>
      <point x="430" y="229" type="qcurve"/>
      <point x="430" y="231" type="line"/>
      <point x="430" y="231"/>
      <point x="430" y="232" type="qcurve"/>
      <point x="430" y="233"/>
      <point x="430" y="233" type="qcurve"/>
      <point x="430" y="239" type="line"/>
      <point x="430" y="239"/>
      <point x="430" y="240" type="qcurve"/>
      <point x="430" y="241" type="line"/>
      <point x="430" y="241"/>
      <point x="430" y="241" type="qcurve"/>
      <point x="430" y="244" type="line"/>
      <point x="618" y="244" type="line"/>
    </contour>
  </outline>
</glyph>
<glyph name="florin" format="2">
  <advance width="468"/>
  <unicode hex="0192"/>
  <outline>
    <contour>
      <point x="419" y="394" type="line"/>
      <point x="419" y="267" type="line"/>
      <point x="255" y="267" type="line"/>
      <point x="255" y="-33" type="line" smooth="yes"/>
      <point x="255" y="-59"/>
      <point x="235" y="-103"/>
      <point x="202" y="-136"/>
      <point x="158" y="-156"/>
      <point x="133" y="-156" type="qcurve" smooth="yes"/>
      <point x="57" y="-156" type="line"/>
      <point x="57" y="-19" type="line"/>
      <point x="65" y="-19"/>
      <point x="99" y="-19"/>
      <point x="109" y="-14"/>
      <point x="116" y="-4"/>
      <point x="116" y="7" type="qcurve"/>
      <point x="117" y="267" type="line"/>
      <point x="19" y="267" type="line"/>
      <point x="19" y="394" type="line"/>
      <point x="117" y="394" type="line"/>
      <point x="117" y="417" type="line" smooth="yes"/>
      <point x="117" y="470"/>
      <point x="158" y="565"/>
      <point x="228" y="635"/>
      <point x="322" y="675"/>
      <point x="376" y="675" type="qcurve" smooth="yes"/>
      <point x="451" y="675" type="line"/>
      <point x="451" y="539" type="line"/>
      <point x="405" y="539"/>
      <point x="366" y="537"/>
      <point x="315" y="525"/>
      <point x="277" y="498"/>
      <point x="254" y="452"/>
      <point x="254" y="417" type="qcurve" smooth="yes"/>
      <point x="254" y="394" type="line"/>
    </contour>
  </outline>
</glyph>
<glyph name="circumflex" format="2">
  <advance width="473"/>
  <unicode hex="02C6"/>
  <outline>
    <contour>
      <point x="239" y="942" type="line"/>
      <point x="453" y="818" type="line"/>
      <point x="400" y="733" type="line"/>
      <point x="237" y="794" type="line"/>
      <point x="75" y="733" type="line"/>
      <point x="22" y="818" type="line"/>
    </contour>
  </outline>
</glyph>
<glyph name="caron" format="2">
  <advance width="465"/>
  <unicode hex="02C7"/>
  <outline>
    <contour>
      <point x="18" y="857" type="line"/>
      <point x="71" y="942" type="line"/>
      <point x="233" y="881" type="line"/>
      <point x="396" y="942" type="line"/>
      <point x="449" y="857" type="line"/>
      <point x="235" y="733" type="line"/>
    </contour>
  </outline>
</glyph>
<glyph name="uni02C9" format="2">
  <advance width="422"/>
  <unicode hex="02C9"/>
  <outline>
    <contour>
      <point x="383" y="880" type="line"/>
      <point x="383" y="746" type="line"/>
      <point x="38" y="746" type="line"/>
      <point x="38" y="880" type="line"/>
    </contour>
  </outline>
</glyph>
<glyph name="breve" format="2">
  <advance width="402"/>
  <unicode hex="02D8"/>
  <outline>
    <contour>
      <point x="422" y="882" type="line"/>
      <point x="418" y="851"/>
      <point x="391" y="794"/>
      <point x="342" y="748"/>
      <point x="278" y="718"/>
      <point x="237" y="717" type="qcurve"/>
      <point x="198" y="718"/>
      <point x="131" y="745"/>
      <point x="84" y="789"/>
      <point x="53" y="848"/>
      <point x="51" y="881" type="qcurve"/>
      <point x="140" y="881" type="line"/>
      <point x="154" y="857"/>
      <point x="200" y="819"/>
      <point x="236" y="819" type="qcurve" smooth="yes"/>
      <point x="255" y="819"/>
      <point x="282" y="826"/>
      <point x="303" y="843"/>
      <point x="321" y="866"/>
      <point x="332" y="881" type="qcurve"/>
    </contour>
  </outline>
</glyph>
<glyph name="dotaccent" format="2">
  <advance width="207"/>
  <unicode hex="02D9"/>
  <outline>
    <contour>
      <point x="15" y="834" type="qcurve" smooth="yes"/>
      <point x="15" y="872"/>
      <point x="68" y="926"/>
      <point x="106" y="926" type="qcurve" smooth="yes"/>
      <point x="144" y="926"/>
      <point x="197" y="872"/>
      <point x="197" y="834" type="qcurve" smooth="yes"/>
      <point x="197" y="796"/>
      <point x="144" y="744"/>
      <point x="106" y="744" type="qcurve" smooth="yes"/>
      <point x="68" y="744"/>
      <point x="15" y="796"/>
    </contour>
  </outline>
</glyph>
<glyph name="ring" format="2">
  <advance width="261"/>
  <unicode hex="02DA"/>
  <outline>
    <contour>
      <point x="134" y="972" type="qcurve" smooth="yes"/>
      <point x="157" y="972"/>
      <point x="198" y="954"/>
      <point x="228" y="922"/>
      <point x="246" y="881"/>
      <point x="246" y="857" type="qcurve" smooth="yes"/>
      <point x="246" y="833"/>
      <point x="228" y="792"/>
      <point x="198" y="760"/>
      <point x="157" y="742"/>
      <point x="134" y="742" type="qcurve" smooth="yes"/>
      <point x="110" y="742"/>
      <point x="69" y="760"/>
      <point x="39" y="792"/>
      <point x="21" y="833"/>
      <point x="21" y="857" type="qcurve" smooth="yes"/>
      <point x="21" y="881"/>
      <point x="39" y="922"/>
      <point x="69" y="954"/>
      <point x="110" y="972"/>
    </contour>
    <contour>
      <point x="134" y="826" type="qcurve" smooth="yes"/>
      <point x="146" y="826"/>
      <point x="164" y="844"/>
      <point x="164" y="857" type="qcurve" smooth="yes"/>
      <point x="164" y="870"/>
      <point x="146" y="888"/>
      <point x="134" y="888" type="qcurve" smooth="yes"/>
      <point x="120" y="888"/>
      <point x="102" y="870"/>
      <point x="102" y="857" type="qcurve" smooth="yes"/>
      <point x="102" y="844"/>
      <point x="120" y="826"/>
    </contour>
  </outline>
</glyph>
<glyph name="ogonek" format="2">
  <advance width="285"/>
  <unicode hex="02DB"/>
  <outline>
    <contour>
      <point x="268" y="-152" type="line"/>
      <point x="220" y="-169"/>
      <point x="180" y="-179" type="qcurve"/>
      <point x="168" y="-181"/>
      <point x="142" y="-184"/>
      <point x="125" y="-184" type="qcurve" smooth="yes"/>
      <point x="103" y="-184"/>
      <point x="58" y="-176"/>
      <point x="42" y="-165" type="qcurve" smooth="yes"/>
      <point x="19" y="-149"/>
      <point x="19" y="-134" type="qcurve" smooth="yes"/>
      <point x="19" y="-118"/>
      <point x="49" y="-72"/>
      <point x="69" y="-51" type="qcurve" smooth="yes"/>
      <point x="81" y="-38"/>
      <point x="124" y="1"/>
      <point x="153" y="24" type="qcurve"/>
      <point x="232" y="24" type="line"/>
      <point x="197" y="-18"/>
      <point x="154" y="-87"/>
      <point x="154" y="-108" type="qcurve" smooth="yes"/>
      <point x="154" y="-123"/>
      <point x="164" y="-126" type="qcurve" smooth="yes"/>
      <point x="169" y="-128"/>
      <point x="183" y="-130"/>
      <point x="188" y="-130" type="qcurve" smooth="yes"/>
      <point x="192" y="-130"/>
      <point x="196" y="-129" type="qcurve" smooth="yes"/>
      <point x="204" y="-128"/>
      <point x="242" y="-116" type="qcurve"/>
    </contour>
  </outline>
</glyph>
<glyph name="tilde" format="2">
  <advance width="637"/>
  <unicode hex="02DC"/>
  <outline>
    <contour>
      <point x="51" y="788" type="line"/>
      <point x="71" y="839" type="line"/>
      <point x="85" y="878"/>
      <point x="152" y="920"/>
      <point x="195" y="918" type="qcurve"/>
      <point x="220" y="918"/>
      <point x="277" y="900"/>
      <point x="335" y="879"/>
      <point x="391" y="861"/>
      <point x="415" y="859" type="qcurve" smooth="yes"/>
      <point x="425" y="858"/>
      <point x="429" y="863"/>
      <point x="431" y="868" type="qcurve"/>
      <point x="430" y="867" type="line"/>
      <point x="447" y="918" type="line"/>
      <point x="551" y="880" type="line"/>
      <point x="533" y="830" type="line" smooth="yes"/>
      <point x="518" y="790"/>
      <point x="454" y="748"/>
      <point x="408" y="750" type="qcurve" smooth="yes"/>
      <point x="379" y="752"/>
      <point x="315" y="772"/>
      <point x="282" y="784" type="qcurve"/>
      <point x="283" y="783" type="line"/>
      <point x="262" y="790" type="line" smooth="yes"/>
      <point x="241" y="797"/>
      <point x="203" y="807"/>
      <point x="189" y="809" type="qcurve" smooth="yes"/>
      <point x="180" y="810"/>
      <point x="176" y="809"/>
      <point x="175" y="807" type="qcurve" smooth="yes"/>
      <point x="153" y="750" type="line"/>
    </contour>
  </outline>
</glyph>
<glyph name="hungarumlaut" format="2">
  <advance width="655"/>
  <unicode hex="02DD"/>
  <outline>
    <contour>
      <point x="157" y="915" type="line"/>
      <point x="306" y="915" type="line"/>
      <point x="212" y="743" type="line"/>
      <point x="81" y="743" type="line"/>
    </contour>
    <contour>
      <point x="450" y="915" type="line"/>
      <point x="599" y="915" type="line"/>
      <point x="505" y="743" type="line"/>
      <point x="374" y="743" type="line"/>
    </contour>
  </outline>
</glyph>
<glyph name="gravecomb" format="2">
  <advance width="668"/>
  <unicode hex="0300"/>
  <outline>
    <contour>
      <point x="438" y="743" type="line"/>
      <point x="307" y="743" type="line"/>
      <point x="213" y="915" type="line"/>
      <point x="362" y="915" type="line"/>
    </contour>
  </outline>
</glyph>
<glyph name="acutecomb" format="2">
  <advance width="591"/>
  <unicode hex="0301"/>
  <outline>
    <contour>
      <point x="289" y="915" type="line"/>
      <point x="438" y="915" type="line"/>
      <point x="344" y="743" type="line"/>
      <point x="213" y="743" type="line"/>
    </contour>
  </outline>
</glyph>
<glyph name="tildecomb" format="2">
  <advance width="597"/>
  <unicode hex="0303"/>
  <outline>
    <contour>
      <point x="54" y="788" type="line"/>
      <point x="74" y="839" type="line"/>
      <point x="88" y="878"/>
      <point x="155" y="920"/>
      <point x="198" y="918" type="qcurve"/>
      <point x="223" y="918"/>
      <point x="280" y="900"/>
      <point x="338" y="879"/>
      <point x="394" y="861"/>
      <point x="418" y="859" type="qcurve" smooth="yes"/>
      <point x="428" y="858"/>
      <point x="432" y="863"/>
      <point x="434" y="868" type="qcurve"/>
      <point x="433" y="867" type="line"/>
      <point x="450" y="918" type="line"/>
      <point x="554" y="880" type="line"/>
      <point x="536" y="830" type="line" smooth="yes"/>
      <point x="521" y="790"/>
      <point x="457" y="748"/>
      <point x="411" y="750" type="qcurve" smooth="yes"/>
      <point x="382" y="752"/>
      <point x="318" y="772"/>
      <point x="285" y="784" type="qcurve"/>
      <point x="286" y="783" type="line"/>
      <point x="265" y="790" type="line" smooth="yes"/>
      <point x="244" y="797"/>
      <point x="206" y="807"/>
      <point x="192" y="809" type="qcurve" smooth="yes"/>
      <point x="183" y="810"/>
      <point x="179" y="809"/>
      <point x="178" y="807" type="qcurve" smooth="yes"/>
      <point x="156" y="750" type="line"/>
    </contour>
  </outline>
</glyph>
<glyph name="uni0304" format="2">
  <advance width="398"/>
  <unicode hex="0304"/>
  <outline>
    <contour>
      <point x="369" y="880" type="line"/>
      <point x="369" y="746" type="line"/>
      <point x="24" y="746" type="line"/>
      <point x="24" y="880" type="line"/>
    </contour>
  </outline>
</glyph>
<glyph name="uni0306" format="2">
  <advance width="402"/>
  <unicode hex="0306"/>
  <outline>
    <contour>
      <point x="422" y="896" type="line"/>
      <point x="418" y="865"/>
      <point x="391" y="808"/>
      <point x="342" y="762"/>
      <point x="278" y="732"/>
      <point x="237" y="731" type="qcurve"/>
      <point x="198" y="732"/>
      <point x="131" y="759"/>
      <point x="84" y="803"/>
      <point x="53" y="862"/>
      <point x="51" y="895" type="qcurve"/>
      <point x="140" y="895" type="line"/>
      <point x="154" y="871"/>
      <point x="200" y="833"/>
      <point x="236" y="833" type="qcurve" smooth="yes"/>
      <point x="255" y="833"/>
      <point x="282" y="840"/>
      <point x="303" y="857"/>
      <point x="321" y="880"/>
      <point x="332" y="895" type="qcurve"/>
    </contour>
  </outline>
</glyph>
<glyph name="uni0308" format="2">
  <advance width="488"/>
  <unicode hex="0308"/>
  <outline>
    <contour>
      <point x="48" y="808" type="qcurve" smooth="yes"/>
      <point x="48" y="838"/>
      <point x="94" y="882"/>
      <point x="127" y="882" type="qcurve" smooth="yes"/>
      <point x="160" y="882"/>
      <point x="206" y="838"/>
      <point x="206" y="808" type="qcurve" smooth="yes"/>
      <point x="206" y="778"/>
      <point x="160" y="736"/>
      <point x="127" y="736" type="qcurve" smooth="yes"/>
      <point x="94" y="736"/>
      <point x="48" y="778"/>
    </contour>
    <contour>
      <point x="291" y="808" type="qcurve" smooth="yes"/>
      <point x="291" y="838"/>
      <point x="337" y="882"/>
      <point x="370" y="882" type="qcurve" smooth="yes"/>
      <point x="403" y="882"/>
      <point x="449" y="838"/>
      <point x="449" y="808" type="qcurve" smooth="yes"/>
      <point x="449" y="778"/>
      <point x="403" y="736"/>
      <point x="370" y="736" type="qcurve" smooth="yes"/>
      <point x="337" y="736"/>
      <point x="291" y="778"/>
    </contour>
  </outline>
</glyph>
<glyph name="uni030B" format="2">
  <advance width="795"/>
  <unicode hex="030B"/>
  <outline>
    <contour>
      <point x="229" y="915" type="line"/>
      <point x="378" y="915" type="line"/>
      <point x="284" y="743" type="line"/>
      <point x="153" y="743" type="line"/>
    </contour>
    <contour>
      <point x="522" y="915" type="line"/>
      <point x="671" y="915" type="line"/>
      <point x="577" y="743" type="line"/>
      <point x="446" y="743" type="line"/>
    </contour>
  </outline>
</glyph>
<glyph name="uni0326" format="2">
  <advance width="469"/>
  <unicode hex="0326"/>
  <outline>
    <contour>
      <point x="356" y="188" type="line"/>
      <point x="251" y="-101" type="line"/>
      <point x="113" y="-102" type="line"/>
      <point x="158" y="188" type="line"/>
    </contour>
  </outline>
</glyph>
<glyph name="uni0327" format="2">
  <advance width="299"/>
  <unicode hex="0327"/>
  <outline>
    <contour>
      <point x="191" y="33" type="line"/>
      <point x="170" y="-54" type="line"/>
      <point x="180" y="-56" type="line"/>
      <point x="196" y="-60"/>
      <point x="228" y="-72"/>
      <point x="241" y="-81" type="qcurve"/>
      <point x="252" y="-91"/>
      <point x="268" y="-117"/>
      <point x="268" y="-128" type="qcurve" smooth="yes"/>
      <point x="268" y="-147"/>
      <point x="232" y="-180"/>
      <point x="186" y="-188" type="qcurve"/>
      <point x="187" y="-188" type="line"/>
      <point x="177" y="-190"/>
      <point x="46" y="-214" type="qcurve"/>
      <point x="61" y="-167" type="line"/>
      <point x="124" y="-145"/>
      <point x="155" y="-132"/>
      <point x="155" y="-123" type="qcurve" smooth="yes"/>
      <point x="155" y="-115"/>
      <point x="130" y="-101"/>
      <point x="104" y="-91"/>
      <point x="76" y="-85"/>
      <point x="66" y="-84" type="qcurve"/>
      <point x="97" y="33" type="line"/>
    </contour>
  </outline>
</glyph>
<glyph name="uni0394" format="2">
  <advance width="719"/>
  <unicode hex="0394"/>
  <outline>
    <contour>
      <point x="698" y="0" type="line"/>
      <point x="6" y="0" type="line"/>
      <point x="352" y="676" type="line"/>
    </contour>
    <contour>
      <point x="87" y="50" type="line"/>
      <point x="512" y="50" type="line"/>
      <point x="300" y="465" type="line"/>
    </contour>
  </outline>
</glyph>
<glyph name="uni03A9" format="2">
  <advance width="602"/>
  <unicode hex="03A9"/>
  <outline>
    <contour>
      <point x="584" y="154" type="line"/>
      <point x="584" y="0" type="line"/>
      <point x="350" y="0" type="line"/>
      <point x="350" y="91" type="line"/>
      <point x="350" y="162" type="line"/>
      <point x="371" y="173"/>
      <point x="410" y="211"/>
      <point x="421" y="232" type="qcurve" smooth="yes"/>
      <point x="438" y="264"/>
      <point x="456" y="329"/>
      <point x="456" y="367" type="qcurve" smooth="yes"/>
      <point x="456" y="404"/>
      <point x="438" y="470"/>
      <point x="421" y="508" type="qcurve"/>
      <point x="410" y="521"/>
      <point x="387" y="549"/>
      <point x="359" y="571"/>
      <point x="327" y="586"/>
      <point x="308" y="586" type="qcurve" smooth="yes"/>
      <point x="287" y="586"/>
      <point x="252" y="571"/>
      <point x="223" y="549"/>
      <point x="199" y="521"/>
      <point x="188" y="508" type="qcurve"/>
      <point x="172" y="470"/>
      <point x="152" y="404"/>
      <point x="152" y="367" type="qcurve" smooth="yes"/>
      <point x="152" y="329"/>
      <point x="172" y="264"/>
      <point x="188" y="232" type="qcurve"/>
      <point x="204" y="211"/>
      <point x="237" y="173"/>
      <point x="259" y="162" type="qcurve"/>
      <point x="259" y="91" type="line"/>
      <point x="259" y="0" type="line"/>
      <point x="26" y="0" type="line"/>
      <point x="26" y="154" type="line"/>
      <point x="47" y="154" type="line"/>
      <point x="63" y="117"/>
      <point x="113" y="84"/>
      <point x="139" y="84" type="qcurve" smooth="yes"/>
      <point x="223" y="84" type="line"/>
      <point x="223" y="98" type="line"/>
      <point x="181" y="111"/>
      <point x="109" y="163"/>
      <point x="56" y="232"/>
      <point x="26" y="315"/>
      <point x="26" y="360" type="qcurve" smooth="yes"/>
      <point x="26" y="418"/>
      <point x="70" y="520"/>
      <point x="147" y="597"/>
      <point x="249" y="642"/>
      <point x="308" y="642" type="qcurve" smooth="yes"/>
      <point x="363" y="642"/>
      <point x="464" y="597"/>
      <point x="539" y="520"/>
      <point x="584" y="418"/>
      <point x="584" y="360" type="qcurve" smooth="yes"/>
      <point x="584" y="315"/>
      <point x="556" y="232"/>
      <point x="504" y="163"/>
      <point x="431" y="111"/>
      <point x="386" y="98" type="qcurve"/>
      <point x="386" y="84" type="line"/>
      <point x="471" y="84" type="line" smooth="yes"/>
      <point x="503" y="84"/>
      <point x="546" y="117"/>
      <point x="562" y="154" type="qcurve"/>
    </contour>
  </outline>
</glyph>
<glyph name="Germandbls" format="2">
  <advance width="628"/>
  <unicode hex="1E9E"/>
  <outline>
    <contour>
      <point x="79" y="0" type="line"/>
      <point x="79" y="244" type="line"/>
      <point x="23" y="244" type="line"/>
      <point x="23" y="432" type="line"/>
      <point x="79" y="432" type="line"/>
      <point x="79" y="507" type="line" smooth="yes"/>
      <point x="79" y="542"/>
      <point x="106" y="603"/>
      <point x="152" y="649"/>
      <point x="213" y="676"/>
      <point x="248" y="676" type="qcurve" smooth="yes"/>
      <point x="605" y="676" type="line"/>
      <point x="605" y="169" type="line" smooth="yes"/>
      <point x="605" y="134"/>
      <point x="578" y="73"/>
      <point x="532" y="27"/>
      <point x="471" y="0"/>
      <point x="436" y="0" type="qcurve" smooth="yes"/>
      <point x="296" y="0" type="line"/>
      <point x="296" y="188" type="line"/>
      <point x="417" y="188" type="line"/>
      <point x="417" y="244" type="line"/>
      <point x="267" y="244" type="line"/>
      <point x="267" y="0" type="line"/>
    </contour>
    <contour>
      <point x="417" y="413" type="line"/>
      <point x="417" y="488" type="line"/>
      <point x="323" y="488" type="line" smooth="yes"/>
      <point x="312" y="488"/>
      <point x="291" y="487"/>
      <point x="276" y="481"/>
      <point x="267" y="466"/>
      <point x="267" y="451" type="qcurve" smooth="yes"/>
      <point x="267" y="413" type="line"/>
    </contour>
  </outline>
</glyph>
<glyph name="emdash" format="2">
  <advance width="663"/>
  <unicode hex="2014"/>
  <outline>
    <contour>
      <point x="641" y="421" type="line"/>
      <point x="641" y="267" type="line"/>
      <point x="15" y="267" type="line"/>
      <point x="15" y="421" type="line"/>
    </contour>
  </outline>
</glyph>
<glyph name="quoteleft" format="2">
  <advance width="291"/>
  <unicode hex="2018"/>
  <outline>
    <contour>
      <point x="28" y="386" type="line"/>
      <point x="133" y="676" type="line"/>
      <point x="271" y="676" type="line"/>
      <point x="226" y="386" type="line"/>
    </contour>
  </outline>
</glyph>
<glyph name="quoteright" format="2">
  <advance width="291"/>
  <unicode hex="2019"/>
  <outline>
    <contour>
      <point x="271" y="676" type="line"/>
      <point x="166" y="386" type="line"/>
      <point x="28" y="386" type="line"/>
      <point x="73" y="676" type="line"/>
    </contour>
  </outline>
</glyph>
<glyph name="quotesinglbase" format="2">
  <advance width="261"/>
  <unicode hex="201A"/>
  <outline>
    <contour>
      <point x="247" y="188" type="line"/>
      <point x="142" y="-101" type="line"/>
      <point x="4" y="-102" type="line"/>
      <point x="49" y="188" type="line"/>
    </contour>
  </outline>
</glyph>
<glyph name="quotedblleft" format="2">
  <advance width="513"/>
  <unicode hex="201C"/>
  <outline>
    <contour>
      <point x="251" y="386" type="line"/>
      <point x="356" y="676" type="line"/>
      <point x="494" y="676" type="line"/>
      <point x="449" y="386" type="line"/>
    </contour>
    <contour>
      <point x="25" y="386" type="line"/>
      <point x="130" y="676" type="line"/>
      <point x="268" y="676" type="line"/>
      <point x="223" y="386" type="line"/>
    </contour>
  </outline>
</glyph>
<glyph name="quotedblright" format="2">
  <advance width="505"/>
  <unicode hex="201D"/>
  <outline>
    <contour>
      <point x="268" y="676" type="line"/>
      <point x="163" y="386" type="line"/>
      <point x="25" y="386" type="line"/>
      <point x="70" y="676" type="line"/>
    </contour>
    <contour>
      <point x="494" y="676" type="line"/>
      <point x="389" y="386" type="line"/>
      <point x="251" y="386" type="line"/>
      <point x="296" y="676" type="line"/>
    </contour>
  </outline>
</glyph>
<glyph name="quotedblbase" format="2">
  <advance width="504"/>
  <unicode hex="201E"/>
  <outline>
    <contour>
      <point x="247" y="188" type="line"/>
      <point x="142" y="-101" type="line"/>
      <point x="4" y="-102" type="line"/>
      <point x="49" y="188" type="line"/>
    </contour>
    <contour>
      <point x="478" y="188" type="line"/>
      <point x="373" y="-101" type="line"/>
      <point x="235" y="-102" type="line"/>
      <point x="280" y="188" type="line"/>
    </contour>
  </outline>
</glyph>
<glyph name="dagger" format="2">
  <advance width="591"/>
  <unicode hex="2020"/>
  <outline>
    <contour>
      <point x="208" y="801" type="line"/>
      <point x="374" y="801" type="line"/>
      <point x="374" y="-165" type="line"/>
      <point x="208" y="-165" type="line"/>
    </contour>
    <contour>
      <point x="572" y="601" type="line"/>
      <point x="572" y="447" type="line"/>
      <point x="19" y="447" type="line"/>
      <point x="19" y="601" type="line"/>
    </contour>
  </outline>
</glyph>
<glyph name="daggerdbl" format="2">
  <advance width="548"/>
  <unicode hex="2021"/>
  <outline>
    <contour>
      <point x="174" y="801" type="line"/>
      <point x="340" y="801" type="line"/>
      <point x="340" y="-165" type="line"/>
      <point x="174" y="-165" type="line"/>
    </contour>
    <contour>
      <point x="517" y="601" type="line"/>
      <point x="517" y="447" type="line"/>
      <point x="19" y="447" type="line"/>
      <point x="19" y="601" type="line"/>
    </contour>
    <contour>
      <point x="517" y="213" type="line"/>
      <point x="517" y="59" type="line"/>
      <point x="19" y="59" type="line"/>
      <point x="19" y="213" type="line"/>
    </contour>
  </outline>
</glyph>
<glyph name="bullet" format="2">
  <advance width="299"/>
  <unicode hex="2022"/>
  <outline>
    <contour>
      <point x="22" y="343" type="qcurve" smooth="yes"/>
      <point x="22" y="370"/>
      <point x="42" y="417"/>
      <point x="77" y="452"/>
      <point x="123" y="472"/>
      <point x="150" y="472" type="qcurve" smooth="yes"/>
      <point x="177" y="472"/>
      <point x="224" y="452"/>
      <point x="259" y="417"/>
      <point x="279" y="370"/>
      <point x="279" y="343" type="qcurve" smooth="yes"/>
      <point x="279" y="316"/>
      <point x="259" y="270"/>
      <point x="224" y="235"/>
      <point x="177" y="215"/>
      <point x="150" y="215" type="qcurve" smooth="yes"/>
      <point x="123" y="215"/>
      <point x="77" y="235"/>
      <point x="42" y="270"/>
      <point x="22" y="316"/>
    </contour>
  </outline>
</glyph>
<glyph name="ellipsis" format="2">
  <advance width="666"/>
  <unicode hex="2026"/>
  <outline>
    <contour>
      <point x="17" y="94" type="qcurve" smooth="yes"/>
      <point x="17" y="113"/>
      <point x="32" y="148"/>
      <point x="57" y="173"/>
      <point x="91" y="188"/>
      <point x="111" y="188" type="qcurve" smooth="yes"/>
      <point x="150" y="188"/>
      <point x="205" y="133"/>
      <point x="205" y="94" type="qcurve" smooth="yes"/>
      <point x="205" y="74"/>
      <point x="190" y="40"/>
      <point x="165" y="15"/>
      <point x="130" y="0"/>
      <point x="111" y="0" type="qcurve" smooth="yes"/>
      <point x="72" y="0"/>
      <point x="17" y="55"/>
    </contour>
    <contour>
      <point x="239" y="94" type="qcurve" smooth="yes"/>
      <point x="239" y="113"/>
      <point x="254" y="148"/>
      <point x="279" y="173"/>
      <point x="313" y="188"/>
      <point x="333" y="188" type="qcurve" smooth="yes"/>
      <point x="352" y="188"/>
      <point x="387" y="173"/>
      <point x="412" y="148"/>
      <point x="427" y="113"/>
      <point x="427" y="94" type="qcurve" smooth="yes"/>
      <point x="427" y="74"/>
      <point x="412" y="40"/>
      <point x="387" y="15"/>
      <point x="352" y="0"/>
      <point x="333" y="0" type="qcurve" smooth="yes"/>
      <point x="313" y="0"/>
      <point x="279" y="15"/>
      <point x="254" y="40"/>
      <point x="239" y="74"/>
    </contour>
    <contour>
      <point x="461" y="94" type="qcurve" smooth="yes"/>
      <point x="461" y="113"/>
      <point x="476" y="148"/>
      <point x="501" y="173"/>
      <point x="535" y="188"/>
      <point x="555" y="188" type="qcurve" smooth="yes"/>
      <point x="574" y="188"/>
      <point x="609" y="173"/>
      <point x="634" y="148"/>
      <point x="649" y="113"/>
      <point x="649" y="94" type="qcurve" smooth="yes"/>
      <point x="649" y="74"/>
      <point x="634" y="40"/>
      <point x="609" y="15"/>
      <point x="574" y="0"/>
      <point x="555" y="0" type="qcurve" smooth="yes"/>
      <point x="535" y="0"/>
      <point x="501" y="15"/>
      <point x="476" y="40"/>
      <point x="461" y="74"/>
    </contour>
  </outline>
</glyph>
<glyph name="perthousand" format="2">
  <advance width="1218"/>
  <unicode hex="2030"/>
  <outline>
    <contour>
      <point x="634" y="671" type="line"/>
      <point x="403" y="1" type="line"/>
      <point x="245" y="1" type="line"/>
      <point x="476" y="671" type="line"/>
    </contour>
    <contour>
      <point x="212" y="408" type="line"/>
      <point x="212" y="609" type="line"/>
      <point x="155" y="609" type="line"/>
      <point x="155" y="408" type="line"/>
    </contour>
    <contour>
      <point x="340" y="329" type="line"/>
      <point x="33" y="329" type="line"/>
      <point x="33" y="676" type="line"/>
      <point x="340" y="676" type="line"/>
    </contour>
    <contour>
      <point x="734" y="86" type="line"/>
      <point x="734" y="274" type="line"/>
      <point x="670" y="274" type="line"/>
      <point x="670" y="86" type="line"/>
    </contour>
    <contour>
      <point x="856" y="1" type="line"/>
      <point x="549" y="1" type="line"/>
      <point x="549" y="348" type="line"/>
      <point x="856" y="348" type="line"/>
    </contour>
    <contour>
      <point x="1074" y="86" type="line"/>
      <point x="1074" y="274" type="line"/>
      <point x="1010" y="274" type="line"/>
      <point x="1010" y="86" type="line"/>
    </contour>
    <contour>
      <point x="1196" y="1" type="line"/>
      <point x="889" y="1" type="line"/>
      <point x="889" y="348" type="line"/>
      <point x="1196" y="348" type="line"/>
    </contour>
  </outline>
</glyph>
<glyph name="guilsinglleft" format="2">
  <advance width="384"/>
  <unicode hex="2039"/>
  <outline>
    <contour>
      <point x="31" y="295" type="line"/>
      <point x="350" y="512" type="line"/>
      <point x="350" y="367" type="line"/>
      <point x="185" y="256" type="line"/>
      <point x="226" y="228"/>
      <point x="308" y="171"/>
      <point x="350" y="144" type="qcurve"/>
      <point x="350" y="0" type="line"/>
      <point x="31" y="216" type="line"/>
    </contour>
  </outline>
</glyph>
<glyph name="guilsinglright" format="2">
  <advance width="384"/>
  <unicode hex="203A"/>
  <outline>
    <contour>
      <point x="350" y="216" type="line"/>
      <point x="31" y="0" type="line"/>
      <point x="31" y="144" type="line"/>
      <point x="73" y="171"/>
      <point x="155" y="228"/>
      <point x="196" y="256" type="qcurve"/>
      <point x="31" y="367" type="line"/>
      <point x="31" y="512" type="line"/>
      <point x="350" y="295" type="line"/>
    </contour>
  </outline>
</glyph>
<glyph name="fraction" format="2">
  <advance width="469"/>
  <unicode hex="2044"/>
  <outline>
    <contour>
      <point x="455" y="678" type="line"/>
      <point x="202" y="0" type="line"/>
      <point x="14" y="0" type="line"/>
      <point x="267" y="678" type="line"/>
    </contour>
  </outline>
</glyph>
<glyph name="lira" format="2">
  <advance width="597"/>
  <unicode hex="20A4"/>
  <outline>
    <contour>
      <point x="419" y="675" type="line"/>
      <point x="419" y="522" type="line"/>
      <point x="318" y="522" type="line"/>
      <point x="301" y="521"/>
      <point x="285" y="517" type="qcurve" smooth="yes"/>
      <point x="265" y="512"/>
      <point x="236" y="489"/>
      <point x="219" y="454"/>
      <point x="219" y="430" type="qcurve" smooth="yes"/>
      <point x="219" y="258" type="line"/>
      <point x="365" y="258" type="line"/>
      <point x="365" y="204" type="line"/>
      <point x="219" y="204" type="line"/>
      <point x="219" y="153" type="line"/>
      <point x="399" y="153" type="line" smooth="yes"/>
      <point x="411" y="153"/>
      <point x="424" y="160"/>
      <point x="429" y="172"/>
      <point x="430" y="189"/>
      <point x="430" y="198" type="qcurve"/>
      <point x="583" y="198" type="line"/>
      <point x="583" y="137" type="line" smooth="yes"/>
      <point x="583" y="109"/>
      <point x="561" y="59"/>
      <point x="524" y="22"/>
      <point x="474" y="0"/>
      <point x="446" y="0" type="qcurve" smooth="yes"/>
      <point x="21" y="0" type="line"/>
      <point x="21" y="153" type="line"/>
      <point x="66" y="153" type="line"/>
      <point x="66" y="204" type="line"/>
      <point x="18" y="204" type="line"/>
      <point x="18" y="258" type="line"/>
      <point x="66" y="258" type="line"/>
      <point x="66" y="430" type="line" smooth="yes"/>
      <point x="66" y="486"/>
      <point x="107" y="576"/>
      <point x="178" y="639"/>
      <point x="225" y="656" type="qcurve" smooth="yes"/>
      <point x="269" y="672"/>
      <point x="318" y="674" type="qcurve"/>
    </contour>
    <contour>
      <point x="365" y="360" type="line"/>
      <point x="365" y="311" type="line"/>
      <point x="18" y="311" type="line"/>
      <point x="18" y="360" type="line"/>
    </contour>
  </outline>
</glyph>
<glyph name="peseta" format="2">
  <advance width="1190"/>
  <unicode hex="20A7"/>
  <outline>
    <contour>
      <point x="457" y="415" type="line"/>
      <point x="459" y="359"/>
      <point x="432" y="298"/>
      <point x="384" y="269"/>
      <point x="323" y="264"/>
      <point x="291" y="265" type="qcurve"/>
      <point x="259" y="265"/>
      <point x="238" y="264"/>
      <point x="237" y="264"/>
      <point x="243" y="263"/>
      <point x="237" y="263" type="qcurve"/>
      <point x="237" y="-1" type="line"/>
      <point x="100" y="-1" type="line"/>
      <point x="100" y="263" type="line"/>
      <point x="37" y="263" type="line"/>
      <point x="37" y="400" type="line"/>
      <point x="100" y="400" type="line"/>
      <point x="100" y="536" type="line"/>
      <point x="37" y="536" type="line"/>
      <point x="37" y="674" type="line"/>
      <point x="457" y="674" type="line"/>
    </contour>
    <contour>
      <point x="809" y="160" type="line"/>
      <point x="809" y="284" type="line" smooth="yes"/>
      <point x="809" y="317"/>
      <point x="833" y="375"/>
      <point x="877" y="419"/>
      <point x="936" y="443"/>
      <point x="968" y="443" type="qcurve" smooth="yes"/>
      <point x="1154" y="443" type="line"/>
      <point x="1154" y="321" type="line"/>
      <point x="1030" y="321" type="line" smooth="yes"/>
      <point x="1009" y="321"/>
      <point x="985" y="323"/>
      <point x="978" y="323" type="qcurve" smooth="yes"/>
      <point x="968" y="323"/>
      <point x="947" y="319"/>
      <point x="931" y="296"/>
      <point x="931" y="272" type="qcurve"/>
      <point x="1154" y="272" type="line"/>
      <point x="1154" y="160" type="line" smooth="yes"/>
      <point x="1154" y="128"/>
      <point x="1128" y="70"/>
      <point x="1084" y="26"/>
      <point x="1027" y="0"/>
      <point x="993" y="0" type="qcurve" smooth="yes"/>
      <point x="809" y="0" type="line"/>
      <point x="809" y="123" type="line"/>
      <point x="993" y="123" type="line" smooth="yes"/>
      <point x="1002" y="123"/>
      <point x="1020" y="128"/>
      <point x="1030" y="145"/>
      <point x="1030" y="160" type="qcurve"/>
    </contour>
    <contour>
      <point x="701" y="148" type="line" smooth="yes"/>
      <point x="701" y="139"/>
      <point x="707" y="128"/>
      <point x="717" y="123"/>
      <point x="723" y="123" type="qcurve" smooth="yes"/>
      <point x="738" y="123" type="line"/>
      <point x="738" y="0" type="line"/>
      <point x="688" y="0" type="line" smooth="yes"/>
      <point x="666" y="0"/>
      <point x="625" y="18"/>
      <point x="595" y="48"/>
      <point x="579" y="89"/>
      <point x="579" y="111" type="qcurve" smooth="yes"/>
      <point x="579" y="319" type="line"/>
      <point x="497" y="319" type="line"/>
      <point x="497" y="443" type="line"/>
      <point x="782" y="443" type="line"/>
      <point x="782" y="319" type="line"/>
      <point x="701" y="319" type="line"/>
    </contour>
    <contour>
      <point x="320" y="378" type="line"/>
      <point x="320" y="536" type="line"/>
      <point x="237" y="536" type="line"/>
      <point x="237" y="378" type="line"/>
    </contour>
    <contour>
      <point x="579" y="550" type="line"/>
      <point x="701" y="550" type="line"/>
      <point x="701" y="439" type="line"/>
      <point x="579" y="439" type="line"/>
    </contour>
  </outline>
</glyph>
<glyph name="Euro" format="2">
  <advance width="625"/>
  <unicode hex="20AC"/>
  <outline>
    <contour>
      <point x="401" y="417" type="line"/>
      <point x="401" y="355" type="line"/>
      <point x="263" y="355" type="line"/>
      <point x="263" y="337"/>
      <point x="265" y="322" type="qcurve"/>
      <point x="401" y="322" type="line"/>
      <point x="401" y="260" type="line"/>
      <point x="288" y="260" type="line"/>
      <point x="302" y="240"/>
      <point x="321" y="226" type="qcurve"/>
      <point x="348" y="208"/>
      <point x="418" y="191"/>
      <point x="482" y="187"/>
      <point x="509" y="187" type="qcurve" smooth="yes"/>
      <point x="520" y="187"/>
      <point x="568" y="188"/>
      <point x="601" y="188" type="qcurve"/>
      <point x="601" y="0" type="line"/>
      <point x="432" y="0" type="line" smooth="yes"/>
      <point x="358" y="0"/>
      <point x="228" y="56"/>
      <point x="131" y="153"/>
      <point x="103" y="218" type="qcurve" smooth="yes"/>
      <point x="94" y="238"/>
      <point x="88" y="260" type="qcurve"/>
      <point x="19" y="260" type="line"/>
      <point x="19" y="322" type="line"/>
      <point x="76" y="322" type="line"/>
      <point x="75" y="338"/>
      <point x="75" y="355" type="qcurve"/>
      <point x="19" y="355" type="line"/>
      <point x="19" y="417" type="line"/>
      <point x="75" y="417" type="line"/>
      <point x="75" y="470" type="line"/>
      <point x="19" y="470" type="line"/>
      <point x="19" y="676" type="line"/>
      <point x="601" y="676" type="line"/>
      <point x="601" y="445" type="line"/>
      <point x="413" y="445" type="line"/>
      <point x="413" y="489" type="line"/>
      <point x="263" y="489" type="line"/>
      <point x="263" y="417" type="line"/>
    </contour>
  </outline>
</glyph>
<glyph name="trademark" format="2">
  <advance width="450"/>
  <unicode hex="2122"/>
  <outline>
    <contour>
      <point x="328" y="401" type="line"/>
      <point x="296" y="401" type="line"/>
      <point x="296" y="464" type="line"/>
      <point x="292" y="448"/>
      <point x="283" y="416"/>
      <point x="279" y="401" type="qcurve"/>
      <point x="252" y="401" type="line"/>
      <point x="235" y="467" type="line"/>
      <point x="235" y="401" type="line"/>
      <point x="203" y="401" type="line"/>
      <point x="203" y="529" type="line"/>
      <point x="246" y="529" type="line"/>
      <point x="266" y="459" type="line"/>
      <point x="285" y="529" type="line"/>
      <point x="328" y="529" type="line"/>
    </contour>
    <contour>
      <point x="193" y="500" type="line"/>
      <point x="160" y="500" type="line"/>
      <point x="160" y="404" type="line"/>
      <point x="128" y="404" type="line"/>
      <point x="128" y="500" type="line"/>
      <point x="92" y="500" type="line"/>
      <point x="92" y="529" type="line"/>
      <point x="193" y="529" type="line"/>
    </contour>
    <contour>
      <point x="427" y="511" type="qcurve" smooth="yes"/>
      <point x="429" y="501"/>
      <point x="431" y="481"/>
      <point x="431" y="470" type="qcurve" smooth="yes"/>
      <point x="431" y="434"/>
      <point x="406" y="367"/>
      <point x="362" y="312"/>
      <point x="301" y="272"/>
      <point x="265" y="263" type="qcurve" smooth="yes"/>
      <point x="243" y="258"/>
      <point x="222" y="258" type="qcurve" smooth="yes"/>
      <point x="187" y="258"/>
      <point x="120" y="283"/>
      <point x="66" y="327"/>
      <point x="27" y="387"/>
      <point x="20" y="422" type="qcurve" smooth="yes"/>
      <point x="15" y="445"/>
      <point x="15" y="467" type="qcurve" smooth="yes"/>
      <point x="15" y="503"/>
      <point x="39" y="569"/>
      <point x="82" y="623"/>
      <point x="142" y="661"/>
      <point x="179" y="669" type="qcurve" smooth="yes"/>
      <point x="190" y="671"/>
      <point x="212" y="674"/>
      <point x="223" y="674" type="qcurve" smooth="yes"/>
      <point x="259" y="674"/>
      <point x="326" y="650"/>
      <point x="380" y="607"/>
      <point x="419" y="547"/>
    </contour>
    <contour>
      <point x="260" y="295" type="qcurve" smooth="yes"/>
      <point x="291" y="302"/>
      <point x="342" y="334"/>
      <point x="379" y="379"/>
      <point x="399" y="435"/>
      <point x="399" y="466" type="qcurve" smooth="yes"/>
      <point x="399" y="486"/>
      <point x="395" y="503" type="qcurve" smooth="yes"/>
      <point x="388" y="533"/>
      <point x="356" y="584"/>
      <point x="310" y="621"/>
      <point x="254" y="641"/>
      <point x="224" y="641" type="qcurve" smooth="yes"/>
      <point x="216" y="641"/>
      <point x="197" y="639"/>
      <point x="187" y="637" type="qcurve" smooth="yes"/>
      <point x="155" y="631"/>
      <point x="103" y="598"/>
      <point x="66" y="552"/>
      <point x="45" y="496"/>
      <point x="45" y="466" type="qcurve" smooth="yes"/>
      <point x="45" y="458"/>
      <point x="47" y="439"/>
      <point x="49" y="430" type="qcurve" smooth="yes"/>
      <point x="63" y="367"/>
      <point x="159" y="291"/>
      <point x="221" y="291" type="qcurve" smooth="yes"/>
      <point x="230" y="291"/>
      <point x="250" y="293"/>
    </contour>
  </outline>
</glyph>
<glyph name="Omega" format="2">
  <advance width="621"/>
  <unicode hex="2126"/>
  <outline>
    <contour>
      <point x="602" y="163" type="line"/>
      <point x="602" y="0" type="line"/>
      <point x="356" y="0" type="line"/>
      <point x="356" y="96" type="line"/>
      <point x="356" y="171" type="line"/>
      <point x="378" y="182"/>
      <point x="419" y="222"/>
      <point x="431" y="245" type="qcurve" smooth="yes"/>
      <point x="448" y="279"/>
      <point x="467" y="347"/>
      <point x="467" y="387" type="qcurve" smooth="yes"/>
      <point x="467" y="425"/>
      <point x="448" y="496"/>
      <point x="431" y="535" type="qcurve"/>
      <point x="420" y="549"/>
      <point x="394" y="578"/>
      <point x="365" y="602"/>
      <point x="331" y="617"/>
      <point x="312" y="617" type="qcurve" smooth="yes"/>
      <point x="290" y="617"/>
      <point x="253" y="602"/>
      <point x="223" y="578"/>
      <point x="197" y="549"/>
      <point x="185" y="535" type="qcurve"/>
      <point x="168" y="496"/>
      <point x="147" y="425"/>
      <point x="147" y="387" type="qcurve" smooth="yes"/>
      <point x="147" y="347"/>
      <point x="168" y="279"/>
      <point x="185" y="245" type="qcurve"/>
      <point x="202" y="222"/>
      <point x="237" y="182"/>
      <point x="260" y="171" type="qcurve"/>
      <point x="260" y="96" type="line"/>
      <point x="260" y="0" type="line"/>
      <point x="15" y="0" type="line"/>
      <point x="15" y="163" type="line"/>
      <point x="37" y="163" type="line"/>
      <point x="54" y="124"/>
      <point x="106" y="89"/>
      <point x="134" y="89" type="qcurve" smooth="yes"/>
      <point x="222" y="89" type="line"/>
      <point x="222" y="104" type="line"/>
      <point x="178" y="118"/>
      <point x="102" y="172"/>
      <point x="46" y="244"/>
      <point x="15" y="332"/>
      <point x="15" y="380" type="qcurve" smooth="yes"/>
      <point x="15" y="441"/>
      <point x="61" y="548"/>
      <point x="142" y="629"/>
      <point x="250" y="676"/>
      <point x="312" y="676" type="qcurve" smooth="yes"/>
      <point x="370" y="676"/>
      <point x="475" y="629"/>
      <point x="555" y="548"/>
      <point x="602" y="441"/>
      <point x="602" y="380" type="qcurve" smooth="yes"/>
      <point x="602" y="332"/>
      <point x="572" y="244"/>
      <point x="518" y="172"/>
      <point x="441" y="118"/>
      <point x="394" y="104" type="qcurve"/>
      <point x="394" y="89" type="line"/>
      <point x="483" y="89" type="line" smooth="yes"/>
      <point x="516" y="89"/>
      <point x="562" y="124"/>
      <point x="579" y="163" type="qcurve"/>
    </contour>
  </outline>
</glyph>
<glyph name="estimated" format="2">
  <advance width="567"/>
  <unicode hex="212E"/>
  <outline>
    <contour>
      <point x="543" y="261" type="line"/>
      <point x="543" y="233" type="line"/>
      <point x="480" y="233" type="line"/>
      <point x="428" y="233" type="line"/>
      <point x="139" y="233" type="line"/>
      <point x="139" y="101" type="line"/>
      <point x="165" y="69"/>
      <point x="240" y="28"/>
      <point x="285" y="28" type="qcurve" smooth="yes"/>
      <point x="327" y="28"/>
      <point x="402" y="69"/>
      <point x="428" y="101" type="qcurve"/>
      <point x="428" y="104" type="line"/>
      <point x="433" y="107"/>
      <point x="439" y="117"/>
      <point x="442" y="122" type="qcurve"/>
      <point x="504" y="122" type="line"/>
      <point x="468" y="67"/>
      <point x="354" y="0"/>
      <point x="285" y="0" type="qcurve" smooth="yes"/>
      <point x="230" y="0"/>
      <point x="135" y="41"/>
      <point x="65" y="112"/>
      <point x="25" y="207"/>
      <point x="25" y="261" type="qcurve" smooth="yes"/>
      <point x="25" y="314"/>
      <point x="65" y="409"/>
      <point x="135" y="480"/>
      <point x="230" y="522"/>
      <point x="285" y="522" type="qcurve" smooth="yes"/>
      <point x="337" y="522"/>
      <point x="430" y="483"/>
      <point x="500" y="414"/>
      <point x="541" y="321"/>
      <point x="543" y="268" type="qcurve"/>
    </contour>
    <contour>
      <point x="428" y="268" type="line"/>
      <point x="428" y="421" type="line"/>
      <point x="402" y="455"/>
      <point x="327" y="494"/>
      <point x="285" y="494" type="qcurve" smooth="yes"/>
      <point x="240" y="494"/>
      <point x="165" y="455"/>
      <point x="139" y="421" type="qcurve"/>
      <point x="139" y="268" type="line"/>
    </contour>
  </outline>
</glyph>
<glyph name="product" format="2">
  <advance width="508"/>
  <unicode hex="220F"/>
  <outline>
    <contour>
      <point x="475" y="676" type="line"/>
      <point x="475" y="0" type="line"/>
      <point x="346" y="0" type="line"/>
      <point x="346" y="625" type="line"/>
      <point x="165" y="625" type="line"/>
      <point x="165" y="0" type="line"/>
      <point x="38" y="0" type="line"/>
      <point x="38" y="676" type="line"/>
    </contour>
  </outline>
</glyph>
<glyph name="minus" format="2">
  <advance width="579"/>
  <unicode hex="2212"/>
  <outline>
    <contour>
      <point x="565" y="421" type="line"/>
      <point x="565" y="267" type="line"/>
      <point x="15" y="267" type="line"/>
      <point x="15" y="421" type="line"/>
    </contour>
  </outline>
</glyph>
<glyph name="uni2215" format="2">
  <advance width="461"/>
  <unicode hex="2215"/>
  <outline>
    <contour>
      <point x="455" y="678" type="line"/>
      <point x="202" y="0" type="line"/>
      <point x="14" y="0" type="line"/>
      <point x="267" y="678" type="line"/>
    </contour>
  </outline>
</glyph>
